SplineFontDB: 3.0
FontName: Essays1743-Bold
FullName: Essays 1743
FamilyName: Essays1743
Weight: Bold
Copyright: Created by John Stracke with PfaEdit 1.0 (http://pfaedit.sf.net)
FontLog: "2010-03-17: Adding 6 arrows.  Want to add more.+AAoACgAA-2010-03-07: Adding a bunch of characters to round out some scripts (pointed out by Fedora's QA bot, which runs fc-query).+AAoACgAA-2010-03-02: A whole bunch of cleanups (prodded by +AAoA-Fedora's font sanity checker, and a couple of people whose OSes were rendering capital O as a solid circle).  Jumping version # to 1.1.+AAoACgAA-2006-01-09: Moved the dot of uni1E46 to the center (thanks to Nathan Hill).  Calling this 1.001.+AAoACgAA-2004-10-09: Added bunch of other Latin-derived chars.  Calling this 0.2; don't expect much change before 1.0.+AAoACgAA-2004-10-04: Finished Latin-1 and Latin Extended A (plus miscellaneous other chars).+AAoACgAA-2004-9-21: Finished the basic alphabet (Roman alphabet +------------------------ +AH8A +------------------------ +AMMAnwAA).+AAoACgAA-2004-6-7: Began." 
Version: 002.000
ItalicAngle: 0
UnderlinePosition: -100
UnderlineWidth: 50
Ascent: 759
Descent: 265
sfntRevision: 0x00020000
LayerCount: 2
Layer: 0 0 "Back"  1
Layer: 1 0 "Fore"  0
XUID: [1021 117 711671440 1260258]
FSType: 0
OS2Version: 0
OS2_WeightWidthSlopeOnly: 0
OS2_UseTypoMetrics: 0
CreationTime: 1168432599
ModificationTime: 1383422500
PfmFamily: 17
TTFWeight: 700
TTFWidth: 5
LineGap: 90
VLineGap: 0
Panose: 2 0 6 2 0 0 0 0 0 0
OS2TypoAscent: 0
OS2TypoAOffset: 1
OS2TypoDescent: 0
OS2TypoDOffset: 1
OS2TypoLinegap: 0
OS2WinAscent: 0
OS2WinAOffset: 1
OS2WinDescent: 0
OS2WinDOffset: 1
HheadAscent: 0
HheadAOffset: 1
HheadDescent: 0
HheadDOffset: 1
OS2Vendor: 'PfEd'
Lookup: 1 0 0 "'pnum' Proportional Numbers in Latin lookup 3"  {"'pnum' Proportional Numbers in Latin lookup 3-1"  } ['pnum' ('DFLT' <'dflt' > 'latn' <'dflt' > ) ]

StartChar: exclam
Encoding: 33 33 1
Width: 301
Flags: W
HStem: 7 159<103.953 212.506> 731 20G<144.5 178.5>
VStem: 81 165<40.8245 142.857 373.375 728.219> 101 104<224.661 331.011>
LayerCount: 2
Fore
SplineSet
74 86 m 0xc0
 77 116 93 143 125 156 c 0
 141 163 155 166 169 166 c 0
 214 166 244 132 244 93 c 0
 244 73 236 51 216 32 c 0
 198 15 175 7 152 7 c 0
 112 7 74 32 74 77 c 0
 74 80 74 83 74 86 c 0xc0
141 209 m 0
 124.471 209 103.112 217.101 101 234 c 0xd0
 94 284 92 311 92 332 c 0
 92 346 93 358 93 373 c 0
 93 381 92 389 92 399 c 0
 88 489 81 546 81 626 c 0
 81 649 82 673 83 700 c 0
 84 718 121 751 168 751 c 0
 189 751 213 744 236 725 c 0
 242 720 245 715 245 708 c 0
 246 686 246 665 246 645 c 0xe0
 246 447 220 346 205 251 c 0xd0
 203 239 174 209 141 209 c 0
EndSplineSet
Validated: 1
EndChar

StartChar: numbersign
Encoding: 35 35 3
Width: 526
Flags: W
HStem: 308 139<221 291>
LayerCount: 2
Fore
SplineSet
230 237 m 1
 253 240 269 243 294 246 c 1
 291 311 l 1
 221 308 l 1
 224 282 228 259 230 237 c 1
153 522 m 0
 182.104 522 208.162 476.025 213 447 c 1
 245 449 278 455 304 458 c 1
 320 503 342 521 364 521 c 0
 389 521 413 494 423 454 c 1
 445 450 464 444 480 430 c 0
 498 413 506 398 506 384 c 0
 506 352 467 328 431 319 c 1
 433 291 438 262 441 239 c 1
 474 230 506 202 506 173 c 0
 506 137.814 463.39 117.111 435 109 c 1
 427 70 398 36 367 36 c 0
 334.9 36 313.654 74.0395 305 100 c 1
 221 97 l 1
 212 66 184 36 156 36 c 0
 120.814 36 100.111 78.6099 92 107 c 1
 54 119 20 142 20 170 c 0
 20 195.618 57.3983 220.685 83 228 c 1
 82 266 81 294 80 323 c 1
 38 339 21 360 21 380 c 0
 21 406 48 430 87 440 c 1
 97 478 122 522 153 522 c 0
EndSplineSet
Validated: 1
EndChar

StartChar: dollar
Encoding: 36 36 4
Width: 368
VWidth: 1080
Flags: W
HStem: 7 21G<176 217.5>
VStem: 96 170<28.3953 139.689>
LayerCount: 2
Fore
SplineSet
16 244 m 0
 16 269.551 35.2559 334 63 334 c 0
 74 334 84 326 95 314 c 1
 94 341 l 1
 53 354 22 399 22 476 c 2
 22 487 l 1
 24 542 53 578 90 606 c 1
 90 709 l 2
 90 746 121 760 151 760 c 0
 164 760 178 757 188 752 c 0
 222 735 238 690 246 635 c 1
 279 623 307 601 322 563 c 0
 327 550 330 539 330 528 c 0
 330 507.552 311 439 285 439 c 0
 273 439 262 451 252 465 c 1
 252 445 l 1
 288 418 328 397 347 340 c 0
 353 322 356 303 356 284 c 0
 356 221 322 163 252 141 c 1
 254 113 258 87 264 60 c 0
 265 56 266 52 266 48 c 0
 266 19 235 7 200 7 c 0
 152 7 96 29 96 59 c 0
 96 63 96 66 98 70 c 1
 98 135 l 1
 78 140 55 149 39 173 c 0
 24 196 16 219 16 244 c 0
EndSplineSet
Validated: 1
EndChar

StartChar: ampersand
Encoding: 38 38 6
Width: 934
Flags: W
HStem: 5 156<272.391 515.38> 273 134<486.816 558.64> 390 165<218.004 297.994> 437 279<750.08 831.531> 441 87<713.016 749> 451 112<488.433 598.637> 610 143<228.102 330.214>
VStem: 23 143<242.75 373.447> 373 242<324.254 406.661> 631 108<255.396 415.724>
LayerCount: 2
Fore
SplineSet
382 677 m 0x8bc0
 382 638.549 345.936 601 309 601 c 0
 288 601 270 610 260 610 c 0
 258 610 256 610 255 609 c 0
 230 593 218 580 218 568 c 0
 218 557.312 223.075 555 236 555 c 0
 244 555 254 556 264 556 c 0
 290 556 321 551 336 518 c 0
 341 507 343 497 343 488 c 0
 343 456 319 430 298 412 c 0
 278 394 256 390 238 390 c 0xa3c0
 223 390 209 393 201 393 c 0
 196 393 193 392 192 389 c 0
 174 345 166 320 166 300 c 0
 166 276 177 259 198 228 c 0
 223 192 255 187 313 174 c 0
 347 166 374 161 400 161 c 0
 424 161 446.986 165.056 478 173 c 0
 536.973 188.106 569 198 599 240 c 0
 621 271 631 297 631 327 c 0
 631 344 628 362 622 383 c 0
 610.252 427.381 587.028 451 537 451 c 0
 516 451 499 443 487 427 c 0
 483 421 484 413 491 407 c 1
 493 407 l 2
 501 407 531 426 560 426 c 0
 576 426 592 420 604 402 c 0
 612 391 615 379 615 368 c 0
 615 319 553 273 491 273 c 0
 463 273 435 282 412 304 c 0
 384 331 373 363 373 395 c 0
 373 426 383.03 457.983 399 486 c 0
 428.054 536.969 478 546 523 557 c 0
 538 561 554 563 569 563 c 0xc5c0
 640 563 706 528 735 528 c 0x89c0
 744 528 749 531 749 541 c 2
 749 543 l 1
 748 551 687.053 539.012 676 589 c 0
 674.01 598.002 673 607 673 615 c 0
 673 669.3 711.38 716 780 716 c 0
 834 716 888 687 896 632 c 0
 897 624 898 615 898 606 c 0
 898 559 881.965 501.041 834 460 c 0
 812.985 442.018 792 437 773 437 c 0x91c0
 755 437 740 441 728 441 c 0
 721.004 441 711 439.489 711 432 c 0
 711 424 727 413 727 372 c 1
 728 334 739 298 739 260 c 0
 739 226 729.887 190.093 696 149 c 0
 654.862 99.1135 624.988 43.0631 543 27 c 0
 481.991 15.047 436 5 382 5 c 0
 347 5 309 10 262 20 c 0
 193 36 136 53 89 114 c 0
 50 165 23 219 23 278 c 0
 23 302 28 327 38 354 c 0
 79 464 103 479 117 479 c 0
 122 479 126 477 129 477 c 0
 131 477 132 477 133 479 c 1
 132 486 90 509 90 560 c 0
 91 627 112 680 179 717 c 0
 209 734 249 753 289 753 c 0
 315 753 341 744 363 721 c 0
 376 707 382 692 382 677 c 0x8bc0
EndSplineSet
Validated: 1
EndChar

StartChar: quotesingle
Encoding: 39 39 7
Width: 284
Flags: W
HStem: 728 20G<131 159>
VStem: 19 254<497.486 679.563> 82 135<247.051 470.626>
LayerCount: 2
Fore
SplineSet
89 447 m 1xa0
 55.644 467.014 19 517.026 19 580 c 0
 19 602 23 623 30 645 c 0
 40 676 49 725 100 742 c 0
 113 746 125 748 137 748 c 0
 181 748 218 723 245 688 c 0
 266 660 273 631 273 603 c 0xc0
 273 577 268 552 262 527 c 0
 249.929 467.987 213 468.982 213 413 c 0
 213 389 217 357 217 326 c 0
 217 272 203 220 123 218 c 0
 115 218 110 220 104 225 c 0
 87 243 82 271 82 304 c 0
 82 345 89 392 89 432 c 0
 89 437 89 442 89 447 c 1xa0
EndSplineSet
Validated: 1
EndChar

StartChar: parenleft
Encoding: 40 40 8
Width: 280
Flags: W
VStem: 20 127<56.4075 407.173> 127 159<-231.224 -174.531>
LayerCount: 2
Fore
SplineSet
127 -221 m 0x40
 82.4124 -124.809 58 -69 41 35 c 0
 29 112 20 175 20 239 c 0
 20 296 27.2187 353.947 44 423 c 0
 73.3829 543.907 108 623 192 713 c 0
 201 723 211 727 220 727 c 0
 245 727 267 698 267 673 c 0
 267 668 266 663 264 658 c 0
 200 525 183 492 164 377 c 0
 154 315 147 267 147 218 c 0x80
 147 174 153 129 165 74 c 0
 188 -26 204 -12 281 -172 c 0
 284 -179 286 -185 286 -192 c 0
 286 -228 236 -255 192 -255 c 0
 164 -255 138.103 -244.952 127 -221 c 0x40
EndSplineSet
Validated: 1
EndChar

StartChar: asterisk
Encoding: 42 42 10
Width: 552
Flags: W
HStem: 413 130<22.829 127.109> 431 109<72.7991 155.578> 445 128<442.615 527.781>
VStem: 213 121<638.17 733.062> 215 148<250.621 365.872> 225 105<625 693.919>
LayerCount: 2
Fore
SplineSet
442 562 m 1x84
 455 565 476 573 496 573 c 0
 519 573 540 561 540 511 c 2
 540 503 l 1
 538 455 500 445 465 445 c 0
 442 445 421 449 411 450 c 1
 425 437 491 402 491 356 c 0
 491 340 481.949 322.064 459 304 c 0
 434.947 285.067 418 278 405 278 c 0
 363 278 367 354 354 369 c 1
 356 356 363 331 363 305 c 0
 363 270 349 236 289 236 c 0
 286 236 283 236 280 236 c 0
 228 239 215 262 215 291 c 0x28
 215 315 224 343 225 367 c 1
 200 345 200 265 154 265 c 0
 138 265 117 274 88 299 c 0
 66 318 57 335 57 349 c 0
 57 392 138 415 173 431 c 1
 166 431 l 2x44
 133 431 94 413 63 413 c 0
 36 413 16 427 12 480 c 1
 12 490 l 2
 12 535 38 543 72 543 c 0x84
 89 543 109 540 128 540 c 0x44
 138 540 147 541 156 543 c 1
 117 560 64 577 64 615 c 0
 64 628 70 643 85 661 c 0
 107 688 125 698 140 698 c 0
 174 698 195 647 225 625 c 1
 225 629 l 2x84
 225 645 213 672 213 695 c 0
 213 720 227 742 284 742 c 2
 286 742 l 2
 325 742 334 727 334 701 c 0x90
 334 684 330 662 330 637 c 2
 330 624 l 1
 358 647 367 710 409 710 c 0
 424 710 443.953 700.942 471 679 c 0
 496.955 657.944 507 641 507 627 c 0
 507 595 459 579 442 562 c 1x84
EndSplineSet
Validated: 1
EndChar

StartChar: plus
Encoding: 43 43 11
Width: 360
Flags: W
HStem: 54 344<125.354 227.294> 158 138<29.0051 99.9055> 165 141<257.094 330.373>
VStem: 104 153<75.2029 159 306.001 366.992>
LayerCount: 2
Fore
SplineSet
257 308 m 1x90
 259 307 262 306 264 306 c 0
 271 306 278 308 288 308 c 0
 301 308 316 304 332 282 c 0
 344 266 352 246 352 225 c 0
 352 210 348 195 338 181 c 0
 328 166 310 163 292 163 c 0
 279 163 267 165 258 165 c 0x30
 255 165 252 165 250 164 c 1
 250 157 254 140 254 122 c 0
 254 104 250 85 235 74 c 0
 219 62 199 54 178 54 c 0x90
 163 54 148 58 134 68 c 0
 100 91 102 144 100 158 c 1
 98 159 95 159 91 159 c 0
 86 159 79 158 71 158 c 0
 55 158 35 161 21 180 c 0
 12 193 8 207 8 221 c 0
 8 241 16 260 29 274 c 0
 46 294 91 292 104 296 c 1x50
 104 322 l 2
 104 342 107 366 134 385 c 0
 147 394 161 398 174 398 c 0
 194 398 213 390 228 377 c 1
 228 377 257 338 257 308 c 1x90
EndSplineSet
Validated: 1
EndChar

StartChar: comma
Encoding: 44 44 12
Width: 322
Flags: W
VStem: 40 255<1.95987 126.378>
LayerCount: 2
Fore
SplineSet
123 -198 m 2
 93.3998 -198 40 -190.531 40 -139 c 0
 40 -86 117 -75 124 -60 c 0
 126 -54 127 -50 127 -47 c 0
 127 -41 125 -36 125 -28 c 0
 125 -26 57 -24 50 31 c 0
 48 44 47 57 47 70 c 0
 47 108 57 144 96 172 c 0
 115 186 134 191 153 191 c 0
 176 191 198 183 217 175 c 0
 263.957 156.502 295 106.174 295 48 c 0
 295 31 292 13 289 -5 c 0
 277 -64 261 -106 217 -153 c 0
 196 -175 173 -196 133 -198 c 1
 123 -198 l 2
EndSplineSet
Validated: 1
EndChar

StartChar: hyphen
Encoding: 45 45 13
Width: 364
Flags: W
HStem: 118 178<51.4085 203.013> 122 186<136.125 316.143>
VStem: 10 344<159.761 263.021>
LayerCount: 2
Fore
SplineSet
136 296 m 2xa0
 172.315 296 193.891 308 231 308 c 0
 237 308 244 308 251 307 c 0
 276 303 310 302 334 270 c 0
 346 254 354 234 354 213 c 0
 354 198 350 183 340 169 c 0
 305 116 246.998 124.048 204 122 c 0x60
 183 121 159 118 135 118 c 0
 94 118 53 127 23 168 c 0
 14 181 10 195 10 209 c 0
 10 229 18 248 31 262 c 0
 59 294 92 296 122 296 c 2
 136 296 l 2xa0
EndSplineSet
Validated: 1
EndChar

StartChar: period
Encoding: 46 46 14
Width: 331
VWidth: 1080
Flags: W
HStem: 8 248<91.7417 212.948>
VStem: 42 224<55.2953 196.348>
LayerCount: 2
Fore
SplineSet
266 119 m 0
 266 64 221 8 149 8 c 0
 81 8 66 41 57 60 c 1
 48 82 42 105 42 127 c 0
 42 186 84 256 152 256 c 0
 231 256 266 166 266 119 c 0
EndSplineSet
Validated: 1
EndChar

StartChar: slash
Encoding: 47 47 15
Width: 823
VWidth: 1080
Flags: W
HStem: 16 147<50.6644 132.948> 672 79<554.899 596.208> 735 20G<683 701.5>
LayerCount: 2
Fore
SplineSet
342 129 m 0xa0
 351.59 129 363 111.753 363 95 c 0
 363 60 319 38 315 32 c 0
 309 25 304 22 295 22 c 0
 229 22 200 16 158 16 c 0
 136 16 112 18 77 22 c 0
 70 23 65 26 61 31 c 0
 56 37 14 52 14 93 c 2
 14 97 l 1
 16 135 50 149 71 157 c 0
 82 162 92 163 101 163 c 0
 124 163 132 152 133 152 c 0
 279 328 328 368 447 489 c 0
 589.795 634.195 561 606 597 678 c 1
 580 674 569 672 563 672 c 0
 554 672 553 676 549 687 c 0
 547 692 546 697 546 702 c 0
 546 724 562 740 578 748 c 0
 582 750 585 751 590 751 c 0xc0
 652 751 674 755 692 755 c 0
 711 755 727 750 786 731 c 1
 800.634 725.146 809 705.122 809 689 c 0
 809 661.889 781.68 628 755 628 c 0
 745 628 737 633 733 640 c 1
 527 392 l 2
 429.039 272.968 411 261 325 141 c 1
 321 128 298 126 311 126 c 2
 315 126 l 2
 327 126 335 129 342 129 c 0xa0
EndSplineSet
Validated: 1
EndChar

StartChar: zero
Encoding: 48 48 16
Width: 580
Flags: W
HStem: 7 141<208.165 342.024> 427 135<202.204 345.77>
VStem: 7 136<208.562 364.062> 406 168<211.355 357.908>
LayerCount: 2
Fore
SplineSet
172 47 m 0
 114 79 59 119 28 195 c 0
 14 231 7 266 7 300 c 0
 7 340 17 380 38 422 c 0
 68 481 104 518 166 542 c 0
 201 556 233 562 264 562 c 0
 300 562 334 555 372 543 c 0
 439 523 494.926 499.956 535 433 c 0
 561.951 387.97 574 344 574 300 c 0
 574 266 567 232 555 196 c 0
 530 118 489 62 410 29 c 0
 374 14 341 7 308 7 c 0
 264 7 221 20 172 47 c 0
323 159 m 0
 366.904 182.182 386.934 204.019 400 250 c 0
 403.98 264.006 406 276 406 287 c 0
 406 310 399 330 384 358 c 1
 369 389 358 401 329 413 c 0
 307 422 288 427 270 427 c 0
 251 427 233 421 211 410 c 0
 176 391 164 370 152 326 c 0
 146 305 143 289 143 273 c 0
 143 255 147 239 158 219 c 0
 181 180 206 166 254 153 c 0
 266 150 276 148 284 148 c 0
 297 148 307.967 151.062 323 159 c 0
EndSplineSet
Validated: 1
Substitution2: "'pnum' Proportional Numbers in Latin lookup 3-1" uniE010
EndChar

StartChar: one
Encoding: 49 49 17
Width: 580
Flags: W
HStem: 15 556<202.889 412.845>
VStem: 208 209<131 423>
LayerCount: 2
Fore
SplineSet
152 492 m 0
 152 538 181 568 200 568 c 0
 262 570 300 571 327 571 c 0
 358 571 375 570 398 568 c 1
 405 565 409 566 414 562 c 0
 439 541 450 513 450 484 c 0
 450 466 446 449 439 433 c 0
 416 386 415 436 413 426 c 1
 414 343 412 312 417 124 c 1
 423 131 424 143 436 127 c 1
 440 120 461 81 461 51 c 0
 461 31 452 15 425 15 c 0
 395 14 376 14 362 14 c 0
 335 14 333 15 328 15 c 2
 287 15 l 2
 267 15 234 15 182 14 c 1
 181 14 l 2
 151 14 142 35 142 59 c 0
 142 105 171 147 189 147 c 0
 196 147 202 140 208 131 c 1
 211 253 209 289 211 423 c 1
 206 420 201 411 193 411 c 0
 183 411 152 441 152 492 c 0
EndSplineSet
Validated: 1
Substitution2: "'pnum' Proportional Numbers in Latin lookup 3-1" uniE011
EndChar

StartChar: two
Encoding: 50 50 18
Width: 580
Flags: W
HStem: 6 21G<248.5 269.5> 426 134<235.03 375>
VStem: 311 165<326.868 464.198>
LayerCount: 2
Fore
SplineSet
339 560 m 0
 411 560 476 505 476 422 c 0
 476 391 468 361 460 332 c 0
 435 243 373 227 342 179 c 1
 340 172 339 170 338 160 c 1
 348 160 l 2
 360 160 368 159 388 159 c 1
 373 163 368 169 368 176 c 0
 368 188 389 205 393 207 c 0
 416 216 435 221 453 221 c 0
 473 221 492 215 513 201 c 1
 523 193 526 187 523 175 c 0
 498 64 503 96 447 23 c 0
 442 17 436 14 428 14 c 0
 312 8 279 6 260 6 c 0
 237 6 234 9 112 11 c 0
 87 11 79 28 79 46 c 0
 79 64 86.0262 82.9837 91 91 c 0
 176.45 228.721 237.678 228.169 297 341 c 0
 305.951 358.026 311 373 311 386 c 0
 311 403 300 426 276 426 c 0
 266 426 253 423 237 417 c 0
 199 404 209 383 146 329 c 1
 137 324 131 321 126 321 c 0
 111 321 89 361 89 388 c 0
 89 409 99 423 106 434 c 0
 152 499 174 517 230 536 c 0
 264 548 302 560 339 560 c 0
EndSplineSet
Validated: 1
Substitution2: "'pnum' Proportional Numbers in Latin lookup 3-1" uniE012
EndChar

StartChar: three
Encoding: 51 51 19
Width: 580
Flags: W
HStem: -261 142<180 290.583> 387 180<244.173 360>
VStem: 348 154<-56.8086 90.3566>
LayerCount: 2
Fore
SplineSet
166 58 m 1
 149 58 123 78 123 115 c 0
 123 144 141 186 145 190 c 0
 228 282 238 273 307 352 c 0
 308 352 308 353 308 354 c 0
 308 362 293 387 273 387 c 0
 216 387 237 326 155 294 c 0
 149 292 143 290 139 290 c 0
 115 290 110 319 110 343 c 0
 110 407 147 489 225 534 c 0
 261 554 276 567 333 567 c 0
 387 567 471 536 471 452 c 0
 471 424 463 395 458 369 c 0
 439 276 380 274 380 239 c 2
 380 237 l 1
 392 247 400 254 409 254 c 0
 417 254 427 249 441 237 c 0
 481 204 488 164 495 123 c 0
 499 96 502 72 502 49 c 0
 502 7 493.985 -31.9939 475 -79 c 0
 451.982 -135.993 426.904 -180.818 368 -212 c 0
 322.926 -235.861 269 -261 217 -261 c 0
 143 -261 85 -208 85 -143 c 0
 85 -113 97 -84 119 -61 c 0
 126 -55 134 -52 172 -52 c 0
 190 -52 189 -55 207 -55 c 0
 212 -55 218 -54 226 -54 c 0
 241 -54 256 -68 256 -78 c 0
 256 -82 255 -86 255 -91 c 0
 255 -98 257 -119 264 -119 c 0
 271 -119 279.971 -105.965 292 -96 c 0
 308.959 -81.9507 348 -52 348 49 c 0
 348 78 331 96 299 96 c 0
 290 96 279 95 265 94 c 0
 243 92 241 65 166 58 c 1
EndSplineSet
Validated: 1
Substitution2: "'pnum' Proportional Numbers in Latin lookup 3-1" uniE013
EndChar

StartChar: four
Encoding: 52 52 20
Width: 580
Flags: W
HStem: -18 176<386.358 539.67> 7 130<134.206 177 177.009 233.947 386 449.836> 525 20G<331 350.5>
VStem: 235 150<-210.611 0> 235 141<-230.389 -145.542>
LayerCount: 2
Back
SplineSet
134.518 130.331 m 1
 288.166 135.453 86.4375 128.03 235 137.463 c 1
 235 190.294 235 90.2461 235 243.304 c 1
 230.209 253.273 116.92 127.334 134.518 130.331 c 1
375.854 -211.418 m 4
 339.688 -253.084 285.642 -258.563 243.82 -223.059 c 5
 238.005 -217.771 235.193 -212.413 235.006 -204.556 c 0
 231.33 -50.5781 236.662 -40.7705 233.498 6.69238 c 1
 165.251 11.8105 181.868 -30.8223 32.2139 5.67871 c 1
 -15.9111 16.8379 0.430664 74.7354 4.93164 90.7598 c 1
 5.56934 93.0215 6.4834 95.1133 7.71582 97.1143 c 0
 189.179 391.625 118.059 307.324 303.731 531.929 c 1
 306.487 535.213 309.628 537.549 313.6 539.165 c 0
 336.915 548.655 368.093 547.119 387.589 522.533 c 1
 390.659 518.572 392.376 514.475 392.876 509.487 c 0
 410.919 329.594 399.44 331.86 385.716 137.427 c 1
 422.547 135.194 398.285 165.467 569.387 155.962 c 1
 578.315 155.051 584.077 152.088 588.992 144.577 c 0
 626.425 87.375 578.536 30.9775 536.867 3.19824 c 1
 466.849 -43.4814 426.588 2.88281 381 0.350586 c 1
 381 -110.466 388.454 -79.5146 381.962 -196.387 c 1
 381.534 -202.275 379.724 -206.959 375.854 -211.418 c 4
EndSplineSet
Fore
SplineSet
603 103 m 0xb0
 603 42 530 -18 475 -18 c 0
 441 -18 414 0 385 0 c 2
 381 0 l 1
 381 -40 385 -98 385 -144 c 0xb0
 385 -177 382.988 -202.989 376 -211 c 0xa8
 355.965 -233.969 330 -247 304 -247 c 0
 273 -247 235 -225 235 -205 c 0
 234 -162 234 -131 234 -106 c 2
 234 -28 l 2
 234 -17 234 -6 233 7 c 1
 222 7 l 2
 185 7 176 -9 130 -9 c 0
 108 -9 78.0429 -4.81758 32 6 c 0
 6.02418 12.1029 -1 33 -1 54 c 0
 -1 74 6 93 8 97 c 0
 189 392 118 307 304 532 c 0
 311 541 324 545 338 545 c 0
 363 545 391 531 393 509 c 0
 400 444 402 403 402 367 c 0
 402 305 394 261 386 137 c 1
 387 137 388 137 389 137 c 0x70
 417 137 408 158 511 158 c 0
 528 158 547 157 569 156 c 1
 587 154 603 132 603 103 c 0xb0
135 130 m 1
 154 131 168 132 177 132 c 1
 177 133 189 134 235 137 c 1
 235 243 l 1x68
 234 244 l 1
 223 244 133 144 133 131 c 0
 133 130 133 130 134 130 c 2
 135 130 l 1
EndSplineSet
Validated: 1
Substitution2: "'pnum' Proportional Numbers in Latin lookup 3-1" uniE014
EndChar

StartChar: five
Encoding: 53 53 21
Width: 580
Flags: W
HStem: -260 145<190.68 298.76> 125 106<239.936 379.5> 125 92<239.028 325.671>
VStem: 357 179<-30.8796 102.119>
LayerCount: 2
Fore
SplineSet
300 366 m 1xd0
 294 378 294 400 289 416 c 1
 264 306 259 294 238 217 c 1xb0
 299 227 338 231 365 231 c 0
 394 231 410 227 426 222 c 0
 458 212 494 201 514 161 c 0
 529 129 536 98 536 68 c 0
 536 20 518.898 -24.9472 495 -71 c 0
 446.795 -163.893 384 -208 290 -245 c 0
 264 -256 240 -260 215 -260 c 0
 196 -260 176 -257 155 -252 c 0
 107 -240 60 -226 31 -174 c 0
 23 -160 19 -145 19 -131 c 0
 19 -83 63 -42 113 -42 c 0
 118 -42 122 -42 127 -43 c 0
 183 -53 185 -107 195 -110 c 0
 208 -113 221 -115 233 -115 c 0
 268 -115 297 -101 319 -71 c 0
 344 -38 357 -3 357 31 c 0
 357 61 347 89 326 114 c 0
 319 122 311 125 299 125 c 0
 288 125 274 122 255 118 c 0
 218 109 204 46 131 39 c 1
 123 39 l 2
 90 39 74 60 74 76 c 0
 74 78 75 79 75 81 c 0
 150 420 130 372 247 571 c 0
 253.307 580.46 265.495 585 280 585 c 0
 328 585 345 521 361 516 c 0
 380 509 383 510 386 512 c 0
 389 514 390 518 390 523 c 0
 390 530 388 540 388 551 c 0
 388 570 392 591 416 608 c 0
 426 615 436 617 445 617 c 0
 456 617 466.991 613.978 474 611 c 0
 549.897 578.758 572 531 572 485 c 0
 572 425 534 369 526 354 c 0
 523 348 511 342 503 343 c 0
 454 347 428 348 412 348 c 0
 391 348 387 346 373 346 c 0
 363 346 348 347 316 351 c 0
 310 352 304 362 300 366 c 1xd0
EndSplineSet
Validated: 1
Substitution2: "'pnum' Proportional Numbers in Latin lookup 3-1" uniE015
EndChar

StartChar: six
Encoding: 54 54 22
Width: 580
Flags: W
HStem: -22 123<218.835 356.652> 377 108<247.07 363.796>
VStem: 8 165<156.667 327.95> 399 173<145.724 342.079>
LayerCount: 2
Fore
SplineSet
228 448 m 1
 273 483 265 485 315 485 c 2
 358 485 l 1
 424 477 476 458 516 402 c 0
 552 351 572 300 572 246 c 0
 572 211 564 175 546 137 c 0
 514 70 437 4 364 -11 c 0
 334 -18 306 -22 278 -22 c 0
 247 -22 216 -17 182 -2 c 0
 111 28 53 66 33 146 c 0
 18 206 8 258 8 313 c 0
 8 353 13 395 27 442 c 0
 53 533 90 590 163 652 c 0
 243 719 312 765 425 766 c 0
 454 766 485 765 512 727 c 1
 515 720 517 714 517 710 c 0
 517 704 514 699 507 693 c 0
 429 629 405.103 641.879 362 605 c 0
 295.16 547.812 265 530 228 448 c 1
399 233 m 0
 399 293.651 395.379 337.213 357 360 c 0
 338 372 319 377 299 377 c 0
 278 377 256 371 231 358 c 0
 197 340 185 319 178 278 c 0
 175 260 173 245 173 230 c 0
 173 193 185 162 214 128 c 0
 232.354 107.351 263.104 101 303 101 c 0
 323 101 338 106 353 119 c 0
 389 152 399 185 399 233 c 0
EndSplineSet
Validated: 1
Substitution2: "'pnum' Proportional Numbers in Latin lookup 3-1" uniE016
EndChar

StartChar: seven
Encoding: 55 55 23
Width: 580
Flags: W
HStem: 552 164<210.012 290.85> 736 20G<154.5 173>
LayerCount: 2
Fore
SplineSet
234 716 m 1
 532 716 l 1
 550 709 559 707 559 698 c 0
 559 693 558 688 554 680 c 0
 390 313 395 373 247 6 c 0
 245 2 244 -1 241 -3 c 0
 234 -10 217 -50 176 -55 c 0
 115 -61 155 -64 90 -64 c 1
 72 -59 63 -56 63 -45 c 0
 63 -41 64 -37 66 -31 c 0
 150 240 158.528 182.183 208 310 c 0
 252.575 425.165 291 444 291 531 c 1
 288 539 272 552 244 552 c 0
 191 552 205 538 114 473 c 0
 110 470 102 468 93 468 c 0
 69 468 33 480 22 515 c 0
 21 519 20 524 21 528 c 0
 49 663 56 676 124 742 c 0
 126 743 127 744 129 746 c 0
 139 753 149 756 160 756 c 0
 186 756 214 739 234 716 c 1
EndSplineSet
Validated: 1
Substitution2: "'pnum' Proportional Numbers in Latin lookup 3-1" uniE017
EndChar

StartChar: eight
Encoding: 56 56 24
Width: 580
Flags: W
HStem: -27 135<225.34 332.339> 272 185<221.365 332.112> 611 139<218.319 331.615>
VStem: 69 130<479.83 592.249> 87 114<132.091 255.485 477.107 537.578> 361 171<129.932 249.91 477.035 581.619>
LayerCount: 2
Fore
SplineSet
408 362 m 1xf4
 429 359 481 353 512 294 c 0
 527 265 532 239 532 212 c 0
 532 179 524 147 514 113 c 0
 503 74 492 35 448 8 c 1
 405 -17 364 -27 323 -27 c 0
 284 -27 246 -18 205 -4 c 0
 158 13 124.06 39.0258 104 86 c 0
 92.036 114.015 87 139 87 164 c 0xec
 87 199 97.0979 231.964 110 267 c 0
 133.176 329.935 164 341 183 347 c 1
 164 361 124.121 364.047 92 447 c 0
 78.0524 483.02 69 518 69 553 c 0
 69 591 79 628 101 667 c 0
 128 713 170 727 213 738 c 0
 243 746 271 750 298 750 c 0
 336 750 371.985 741.963 413 725 c 0
 492.97 691.927 531 631 531 561 c 0
 531 540 527 519 521 497 c 0
 504 440 445 412 408 362 c 1xf4
333 472 m 0
 343 477 357 506 357 535 c 0
 357 556 349 578 329 591 c 0
 309 604 293 611 276 611 c 0
 267 611 257 609 246 606 c 0
 225 600 216 591 206 566 c 0
 201 555 199 547 199 538 c 0xf4
 199 529 201 520 206 507 c 0
 215 484 221 475 241 467 c 0
 257 460 270 457 284 457 c 0
 299 457 314 462 333 472 c 0
327 120 m 0
 342 129 345 138 353 165 c 0
 358 181 361 193 361 204 c 0
 361 213 358 222 353 233 c 1
 344 249 336 254 313 262 c 0
 295 268 281 272 269 272 c 0
 258 272 248 270 236 264 c 0
 219 255 214 247 207 225 c 0
 203 212 201 202 201 193 c 0xec
 201 180 205 168 212 152 c 0
 221 132 227 125 246 117 c 0
 262 111 274 108 286 108 c 0
 300 108 312 112 327 120 c 0
EndSplineSet
Validated: 1
Substitution2: "'pnum' Proportional Numbers in Latin lookup 3-1" uniE018
EndChar

StartChar: nine
Encoding: 57 57 25
Width: 580
Flags: W
HStem: 7 107<218.586 334.176> 369 132<221.139 354.015>
VStem: 38 147<152.354 323.745> 399 142<149.453 310.815>
LayerCount: 2
Fore
SplineSet
342 34 m 1
 342 34 322 22 307 15 c 1
 287 12 268 7 246 7 c 0
 235 7 223 8 209 12 c 0
 160 25 123 44 93 86 c 0
 57 138 38 187 38 241 c 0
 38 264 42 287 48 312 c 0
 66 387 104.139 440.688 179 474 c 0
 219.074 491.833 258 501 296 501 c 0
 342 501 387 488 432 463 c 0
 491 430 508 381 524 328 c 0
 536 285 541 248 541 212 c 0
 541 161 531 113 518 54 c 0
 500 -27 480 -81 426 -149 c 0
 375 -212 330 -249 252 -281 c 0
 208 -300 186 -301 128 -301 c 1
 105 -300 83 -269 83 -244 c 0
 83 -236 86 -228 91 -222 c 0
 168 -136 204 -144 254 -101 c 1
 337 -9 348 18 348 28 c 0
 348 32 342 34 342 34 c 1
383 160 m 0
 394 185 399 207 399 228 c 0
 399 258 389 287 371 323 c 0
 362 343 354 349 333 358 c 1
 314 365 298 369 284 369 c 0
 269 369 255 365 238 358 c 0
 220 350 214.026 341.99 205 319 c 0
 192.038 285.985 185 260 185 234 c 0
 185 210 191 187 203 160 c 0
 213 138 222 130 246 122 c 0
 261 116 274 114 287 114 c 0
 304 114 320 118 342 127 c 0
 366 136 375 142 383 160 c 0
EndSplineSet
Validated: 1
Substitution2: "'pnum' Proportional Numbers in Latin lookup 3-1" uniE019
EndChar

StartChar: less
Encoding: 60 60 28
Width: 396
VWidth: 1080
Flags: W
HStem: 356 110<284.221 370.283>
LayerCount: 2
Fore
SplineSet
253 461 m 0
 269 464 285 466 301 466 c 0
 328 466 354 460 373 441 c 1
 384 432 388 421 388 410 c 0
 388 392 376 374 368 366 c 1
 358 354 344 351 333 351 c 0
 324 351 317 353 317 355 c 0
 317 355 317 356 318 356 c 1
 317 356 l 0
 250 312 203 286 175 263 c 1
 186 246 235 231 342 148 c 1
 344 146 346 144 348 141 c 0
 349 139 365 122 365 101 c 0
 365 91 361 80 349 70 c 1
 346 67 343 66 339 65 c 0
 289 50 269 53 228 50 c 0
 226 50 225 50 223 50 c 0
 170 50 143 101 106 143 c 0
 83 168 10 215 10 257 c 0
 10 269 17 282 33 293 c 0
 48 303 92 351 136 385 c 0
 167 409 184 448 253 461 c 0
EndSplineSet
Validated: 1
EndChar

StartChar: question
Encoding: 63 63 31
Width: 384
Flags: W
HStem: 12 167<82.5886 195.654> 193 317<108.237 199.635>
VStem: 41 186<53.5625 146.091> 68 136.101<242.197 363.692>
LayerCount: 2
Fore
SplineSet
41 105 m 0xe0
 41 159 92 179 135 179 c 0
 162 179 187 170 205 147 c 0
 219 129 227 109 227 89 c 0
 227 75 223 61 215 47 c 0
 200 19 172 14 149 12 c 1
 144 12 l 2
 122 12 101 18 83 33 c 1
 64 51 41 74 41 105 c 0xe0
204 228 m 1
 204.068 227.216 204.101 226.445 204.101 225.686 c 0
 204.101 204.196 177.352 193 159 193 c 0
 134 193 111 210 97 226 c 0
 94 229 93 232 92 236 c 0
 74 303 68 341 68 387 c 0xd0
 68 412 70 439 73 474 c 1
 75 485 81 487 90 495 c 1
 106 507 127 510 149 510 c 0
 168 510 188 508 207 508 c 0
 218 508 229 509 239 511 c 1
 241 516 243 520 237 530 c 1
 224 557 194 549 139 580 c 0
 127 587 74 588 56 635 c 0
 56 636 56 637 56 638 c 0
 53 649 52 660 52 671 c 0
 52 702 68 735 105 744 c 1
 115 745 125 745 134 745 c 0
 181 745 210 732 255 706 c 0
 258 704 261 702 263 699 c 0
 298 646 324 615 334 551 c 0
 337 530 343 508 343 485 c 0
 343 457 335 429 305 401 c 0
 256 355 216 371 204 354 c 1
 204 350 204 346 204 342 c 0
 204 321 200 300 200 272 c 0
 200 259 201 245 204 228 c 1
EndSplineSet
Validated: 1
EndChar

StartChar: at
Encoding: 64 64 32
Width: 537
VWidth: 1000
Flags: W
HStem: 51 83<168.121 367.344> 484 62<266.338 325.15> 575 87<219.32 381.219>
VStem: 13 90<189.96 398.551> 154 90<236.333 307.712> 163 95<391.798 468.434> 329 80<265.749 333.809 390.356 483.167> 460 64<264.741 460.584>
LayerCount: 2
Fore
SplineSet
329 430 m 0xfb
 329 455.405 324.473 484 306 484 c 0
 294 484 273 479 266 469 c 0
 257 457 260 440 258 425 c 0
 255 399 233 385 211 385 c 0
 187 385 163 401 163 433 c 0xf7
 163 437 163 441 164 445 c 0
 169 471 176 495 199 515 c 0
 231 542 262 545 300 546 c 1
 314 546 l 2
 331 546 347.946 543.922 365 532 c 0
 403.876 504.823 409 461 409 404 c 0
 409 388 408 370 408 352 c 0
 408 317 410 280 417 240 c 0
 417 238 418 237 419 237 c 0
 423 237 433 249 447 286 c 0
 456 310 460 331 460 349 c 0
 460 386 447 414 444 443 c 0
 441 463 387 555 367 568 c 0
 361 572 344 575 322 575 c 0
 278 575 213 563 181 525 c 0
 163 503 103 375 103 274 c 0
 103 227 116 186 153 164 c 0
 192 140 242 134 290 134 c 0
 339 134 385 141 414 141 c 0
 434 141 446 138 446 128 c 0
 446 96 335 51 241 51 c 0
 169 51 119 51 69 114 c 1
 25 167 13 214 13 264 c 0
 13 298 19.0746 332.991 24 373 c 0
 36.1847 471.977 49.0914 550.875 133 612 c 0
 185.057 649.922 264 662 328 662 c 0
 378 662 419 655 429 648 c 0
 477 618 524 498 524 376 c 0
 524 303 508 230 465 175 c 0
 456 164 446 162 435 162 c 0
 428 162 420 163 414 163 c 2
 402 163 l 2
 352 163 355 178 342 191 c 0
 332 201 333 204 332 204 c 2
 331 204 l 2
 320 204 316 192 296 180 c 0
 286 174 280 165 263 162 c 0
 251 160 240 158 229 158 c 0
 196 158 169 173 158 219 c 0
 155 231 154 243 154 253 c 0
 154 333 229 368 270 384 c 0
 305.983 398.042 319 378 327 412 c 0
 328 417 329 423 329 430 c 0xfb
318 265 m 0
 331 281 336 296 336 308 c 0
 336 321 331 330 324 334 c 0
 323 334 322 334 321 334 c 0
 304 334 244 303 244 281 c 2
 244 280 l 2xfb
 244 257 246 243 262 236 c 1
 262 236 307 252 318 265 c 0
EndSplineSet
Validated: 1
EndChar

StartChar: uni007F
Encoding: 127 127 33
Width: 1597
VWidth: 1000
Flags: W
HStem: 9 54<242.561 516.222 1060.03 1313.62> 85 109<1112 1155.5> 149 31<1241.56 1288.51> 323 81<432.372 544.181> 341 64<412.85 512.628> 341 54<407.114 476.966> 354 77<245.527 285.009> 517 85<388 574.667> 570 55<1222.89 1363.45> 573 144<1107 1176> 725 68<397.72 567.85> 755 39<1162.16 1384.29>
VStem: 24 51<199.306 451.882> 319 61<430.423 501.905> 325 75<246.143 338.316> 722 89<293.378 454.157> 953 68<231.327 489.44> 1142 49<194.87 468.79> 1507 69<356.767 627.952>
LayerCount: 2
Fore
SplineSet
1142 521 m 0xc049e0
 1142 562 1133 573 1113 573 c 0
 1101 573 1094 564 1083 558 c 0
 1067 550 1047 551 1044 533 c 0
 1027 429 1030 329 1021 261 c 0
 1021 260 1021 259 1021 258 c 0
 1021 235 1050 230 1072 218 c 0
 1086 211 1106 194 1118 194 c 0
 1136 194 1130.62 266.019 1135 355 c 0
 1137.76 411.012 1140 442 1141 498 c 0
 1141 510 1142 513 1142 521 c 0xc049e0
324 319 m 2
 324 349.672 310.324 367 286 367 c 0
 265 367 235 354 230 354 c 0
 226 354 222 356 219 360 c 0
 213 369 225 377 231 387 c 0
 253 422 257 428 286 431 c 0x820be0
 293 432 299 426 305 430 c 0
 316 439 319 450 319 461 c 0
 319 475 315 489 315 505 c 0
 315 520 318 520 318 543 c 0
 318 551 317 560 317 568 c 0
 317 604 324 607 376 607 c 0
 393 607 402 606 424 606 c 0
 450 605 465 602 489 602 c 0
 556 602 560 615 592 633 c 0
 598 637 599 624 604 618 c 1
 608 611 616 607 614 598 c 0
 612 590 600 594 596 587 c 0
 594 583 593 580 593 577 c 0
 593 561 627 558 630 542 c 0
 632 532 623 527 616 520 c 0
 613 517 600 501 576 501 c 0
 547 501 554 517 493 517 c 0
 450 517 408 510 387 502 c 0
 382 500 380 496 380 492 c 0
 380 483 388 471 389 459 c 0
 392 404 393 395 412 395 c 0x850de0
 430 395 456 405 478 405 c 0x880de0
 485 405 485 404 496 404 c 0
 514 404 532 408 548 408 c 0
 581 408 583 386 583 383 c 0
 583 372 564 370 554 360 c 0
 542 348 540 323 513 323 c 0x900de0
 506 323 439 341 432 341 c 0
 425 341 405 337 405 303 c 0
 405 297 405 291 405 285 c 0
 405 267 400 248 400 224 c 0
 400 195 409 181 409 176 c 0
 409 166 393 162 384 154 c 0
 372 144 366 132 353 132 c 2
 351 132 l 2
 333 132 328 149 314 160 c 0
 294 175 285 196 260 196 c 0
 242 196 208 174 194 159 c 1
 188 151 192 138 182 136 c 0
 173 135 173 147 167 152 c 0
 161 156 149 154 151 161 c 0
 159 193 173 208 199 225 c 0
 255 260 325 225 325 271 c 0x880be0
 325 279 324 287 324 296 c 2
 324 319 l 2
222 93 m 0
 276.07 71.1722 307 63 391 63 c 0
 552 63 622 151 660 201 c 0
 684 233 722 282 722 353 c 0
 722 392 708.804 420.951 698 464 c 0
 681.705 528.926 679 570 642 626 c 0
 615 668 594 694 548 712 c 0
 524 721 503 725 482 725 c 0x8029e0
 461 725 439 721 414 714 c 0
 328 691 286 654 218 596 c 0
 156 543 75 473 75 353 c 0
 75 218 103 181 126 150 c 0
 152 115 182.051 109.127 222 93 c 0
924 582 m 0
 888 538 811 462 811 359 c 0
 811 319 826.012 292.007 848 254 c 0
 885.02 190.011 917.055 156.091 980 118 c 0
 1036.05 84.0814 1077 82.0179 1142 70 c 0
 1169 65.0074 1188 61 1211 61 c 0
 1333 61 1388.81 107.11 1424 168 c 0
 1462.79 235.121 1507 315 1507 511 c 0
 1507 567 1498.84 614.907 1466 672 c 0
 1445.9 706.943 1423 722 1386 736 c 0
 1350 749 1319 755 1288 755 c 0x8019e0
 1258 755 1228.02 749.879 1192 743 c 0
 1128.04 730.786 1094.09 711.853 1038 678 c 0
 988.079 647.869 961 627 924 582 c 0
447 10 m 2
 431 10 390 9 365 9 c 0
 324 9 287.017 12.0685 238 24 c 0
 176.021 39.0867 132 44 88 90 c 0
 45 135 42 178 31 240 c 0
 26 269 24 292 24 315 c 0
 24 413 50.0184 503.984 120 583 c 0
 174.014 643.987 213.122 670.805 282 714 c 0
 385.183 778.708 461 793 506 793 c 0
 513 793 520 793 527 793 c 0x8029e0
 577 793 614 791 652 765 c 0
 703 730 710 686 736 630 c 0
 759 580 781 474 783 474 c 0
 785 474 864.092 619.879 938 676 c 0
 1022.1 739.863 1145 784 1216 790 c 0
 1244 792 1268 794 1290 794 c 0
 1443 794 1502 713 1506 708 c 0
 1541 667 1554 638 1566 582 c 0
 1573 548 1576 520 1576 494 c 0
 1576 430 1558 379 1540 294 c 0
 1522 213 1483 175 1430 112 c 1
 1373 46 1338 23 1196 16 c 0
 1164 14 1135 13 1109 13 c 0
 924 13 844 98 818 123 c 0
 791 149 774 292 759 292 c 0
 754 292 736 241 728 231 c 2
 634 108 l 2
 601 66 557 10 473 10 c 2
 447 10 l 2
1451 530 m 0
 1451 511 1431 493 1417 493 c 0
 1413 493 1409 494 1406 498 c 0
 1392 514 1380 515 1372 532 c 0
 1358 560 1355 570 1292 570 c 0
 1255 570 1221 562 1216 532 c 0
 1201 455 1191 372 1191 252 c 0
 1191 170 1193 170 1203 170 c 0
 1213 170 1227 176 1238 176 c 0
 1239 176 1240 176 1241 176 c 0
 1253 176 1261 180 1272 180 c 0
 1278 180 1296 177 1296 172 c 0
 1296 165 1268 155 1256 149 c 0xa089e0
 1237 139 1221 146 1202 135 c 0
 1178 121 1160 85 1151 85 c 0
 1144 85 1146 94 1118 114 c 2
 1083 138 l 2
 1055 158 1035.03 164.043 1008 185 c 0
 986.027 202.035 953 204 953 231 c 2
 953 231 953 295 956 336 c 0
 960 390 955.153 404.967 970 474 c 0
 980.104 520.978 1011 537 1045 571 c 0
 1078 604 1111 606 1141 642 c 0
 1161 666 1148 717 1168 717 c 0xc049e0
 1184 717 1179 697 1184 684 c 0
 1190 667 1182.03 652.036 1195 640 c 0
 1210.04 626.041 1225 624 1242 624 c 0
 1251 624 1260 625 1269 625 c 0x8089e0
 1287 625 1308 621 1323 621 c 0
 1362 621 1358.07 633.81 1381 642 c 0
 1395 647 1406 658 1417 658 c 0
 1429 658 1436 651 1436 640 c 0
 1436 636 1435 632 1434 628 c 0
 1430 613 1407 620 1407 598 c 0
 1407 569 1451 556 1451 530 c 0
EndSplineSet
Validated: 1
EndChar

StartChar: cent
Encoding: 162 162 35
Width: 337
Flags: W
VStem: 15 80<328.435 469.151> 118 132<566.398 676.076> 133 88<105.42 195> 147 94<330.16 441.423>
LayerCount: 2
Fore
SplineSet
140 460 m 0x90
 138 467 132 472 128 479 c 1
 112 468 l 1
 101 438 95 420 95 394 c 0
 95 386 95 376 97 364 c 0
 102 334 100 344 126 320 c 1
 138 310 l 1
 144 318 148 324 147 332 c 1
 147 358 l 1
 145 434 148 439 140 460 c 0x90
167 91 m 0
 154.404 91 133 101.644 133 119 c 1xa0
 126 200 l 1
 102 204 15 262 15 373 c 0
 15 394 18.066 415.981 25 440 c 0
 49.2306 523.933 80 542 118 565 c 1
 118 574 118 596 120 641 c 0
 121 659 151 698 188 698 c 0
 206 698 226 689 244 665 c 0
 250 657 250 650 250 577 c 1xc0
 301 557 322 519 322 487 c 0
 322 459 305.994 436.076 278 434 c 0
 264.997 433.036 255 436 248 442 c 1
 242 350 l 1
 241 330 l 1x90
 249 343 262 349 275 349 c 0
 298 349 322 331 322 305 c 0
 322 304 322 303 322 302 c 0
 319 253 314.901 222.3 247 200 c 0
 243.996 199.013 180 197 227 195 c 1
 221 137 l 2xa0
 219 126 195 91 167 91 c 0
EndSplineSet
Validated: 1
EndChar

StartChar: sterling
Encoding: 163 163 36
Width: 708
VWidth: 1080
Flags: W
HStem: -4 99<296.377 505.43> -2 302<536.957 674.658> 298 186<353.376 466.969> 606 157<256 404.252>
VStem: 183 168<484.051 569.158> 534 161<120.577 212.951>
LayerCount: 2
Fore
SplineSet
374 606 m 0x9c
 362 606 351 601 351 583 c 2
 351 554 l 2
 351 503 353 489 353 486 c 1
 361 485 371 485 373 484 c 0
 405 474 453 490 489 448 c 0
 502 433 515 410 515 385 c 0
 515 370 510 355 497 342 c 0
 458 305 413 298 384 298 c 0xbc
 367 298 356 300 352 300 c 1x5c
 352 254 302 236 294 114 c 1
 345 101 379 95 409 95 c 0x9c
 448 95 481 106 534 129 c 1
 534 146 520 171 520 215 c 0
 520 227 521 241 524 257 c 0
 531 292 558 300 586 300 c 0
 609 300 633 294 644 294 c 0
 645 294 646 294 647 294 c 0
 665 293 672 291 676 274 c 0
 690 211 695 179 695 143 c 0
 695 112 691 79 685 21 c 0
 685 20 686 20 686 19 c 0
 686 11 668 -2 658 -2 c 0x5c
 656 -2 654 -1 653 0 c 0
 652 1 614 11 599 13 c 1
 454 5 396 -4 308 -4 c 0
 247 -4 171 0 39 13 c 0
 17 16 3 48 3 62 c 0
 3 81 14 99 27 122 c 1
 37 135 55 135 76 135 c 0
 99 135 104 133 106 133 c 0
 108 133 108 134 115 140 c 0
 165 182 172 234 172 266 c 0
 172 279 171 289 171 294 c 2
 171 296 l 1
 164 296 l 2
 146 296 94 300 48 342 c 0
 35 354 29 369 29 384 c 0
 29 407 42 430 59 443 c 0
 94 470 119 476 138 476 c 0
 152 476 163 472 173 472 c 0
 174 472 175 472 176 472 c 2
 176 472 183 492 183 521 c 0
 183 536 181 552 176 570 c 0
 172 583 125 604 125 652 c 2
 125 660 l 1
 134 739 214 763 298 763 c 0
 386 763 463 726 527 654 c 0
 534 645 562 592 562 557 c 0
 562 539 555 526 535 526 c 0
 530 526 525 527 519 528 c 0
 393 557 405 606 374 606 c 0x9c
EndSplineSet
Validated: 1
EndChar

StartChar: currency
Encoding: 164 164 37
Width: 338
VWidth: 1000
Flags: W
HStem: 207 82<282 318.657> 234 45<148.009 218.367> 438 46<169 218.107>
VStem: 68 52<296.387 417.367> 242 53<291.883 419.487>
LayerCount: 2
Fore
SplineSet
178 280 m 0x78
 181 280 184 279 187 279 c 0
 229 279 242 320 242 355 c 0
 242 373 239 390 234 398 c 0
 219 427 201 438 183 438 c 0
 172 438 162 434 152 428 c 0
 138 419 137 399 126 384 c 0
 122 377 120 369 120 362 c 0
 120 354 122 346 124 339 c 0
 131 316 134 286 178 280 c 0x78
13 249 m 2
 13 255 l 2
 13 279 57 299 75 300 c 1
 95 269 75 306 73 315 c 0
 70.1058 328.024 68 340 68 352 c 0
 68 365 70 379 74 392 c 0
 78 407 94 439 79 413 c 1
 73 416 14 441 13 466 c 0
 13 467 13 468 13 469 c 0
 13 493 33 501 33 501 c 1
 41 510 57 512 74 512 c 0
 92 512 112 510 128 510 c 0
 137 510 139 497 148 500 c 0
 152 501 166 496 169 481 c 1
 192 484 l 1
 201 484 l 1
 205 500 219 510 232 510 c 0
 249 510 258 511 266 511 c 0
 276 511 284 509 306 502 c 1
 318 497 325 485 325 471 c 0
 325 461 321 450 311 441 c 0
 298 430 289 426 285 426 c 0
 282 426 281 427 281 429 c 1
 279 426 l 1
 280 419 295 411 295 376 c 0
 295 360 292 339 283 310 c 0
 278.031 293.99 278 297 278 293 c 1
 282 289 l 2
 283 289 284 289 285 289 c 0
 301 289 325 270 325 246 c 0
 325 211.763 282.276 207 251 207 c 0xb8
 240 207 232 208 232 208 c 2
 218 208 205 220 201 235 c 1
 168 234 l 1
 166 234 l 1
 160 221 148 219 148 219 c 1
 143 212 137 208 128 208 c 0
 107 208 96 206 80 206 c 0
 72 206 62 206 49 208 c 0
 42 210 40 217 33 218 c 0
 31 218 13 226 13 249 c 2
EndSplineSet
Validated: 1
EndChar

StartChar: yen
Encoding: 165 165 38
Width: 788
VWidth: 1080
Flags: W
HStem: 3 88<341.5 519.237> 144 104<462.3 630.301> 285 83<517.648 631.491> 639 118<643.639 708.923> 639 110<287.471 360.289>
VStem: 455 322<645.791 732.313>
LayerCount: 2
Fore
SplineSet
504 110 m 0xf4
 530.339 110 546 73.6165 546 56 c 0
 546 35 535 18 518 16 c 0
 428 7 395 3 358 3 c 0
 325 3 290 6 207 13 c 0
 190 15 177 34 177 57 c 0
 177 74 183 93 200 108 c 0
 214 121 232 125 247 125 c 0
 268 125 285 117 287 112 c 1
 288 123 289 133 290 142 c 1
 243 145 198.032 151.06 163 170 c 0
 150.012 177.022 143 185 143 193 c 0
 143 216 198 241 295 242 c 1
 295 283 l 1
 247 285 200 292 163 311 c 0
 149 318 143 326 143 334 c 0
 143 355 192 377 256 381 c 1
 200 478 166 499 97 614 c 1
 95 610 85 606 72 606 c 0
 60 606 46.0249 609.028 35 619 c 0
 15.0451 637.05 7 661 7 682 c 0
 7 712 23 738 42 740 c 0
 119 746 148 748 165 748 c 0
 183 748 188 746 222 746 c 0
 243 746 275 747 327 749 c 1
 328 749 l 2
 348 749 374 719 374 687 c 0
 374 657.781 352.19 639 323 639 c 0
 310 639 297 643 287 653 c 1
 358 463 369 491 395 407 c 1
 526 619 l 1
 487 620 455 651 455 686 c 0
 455 706 466 728 494 745 c 0
 497 747 501 749 505 749 c 0xec
 584 754 594 757 609 757 c 0xf4
 624 757 642.005 754.105 739 749 c 0xec
 758 748 777 722 777 693 c 0
 777 681 774 669 766 658 c 0
 751 636 730 631 710 631 c 0
 687 631 666 639 657 639 c 0
 656 639 655 638 654 638 c 0
 597 536 569 470 516 388 c 1
 551 386 596 384 629 368 c 0
 647 359 659 347 659 336 c 0
 659 327 653 319 639 311 c 0
 591 285 518 285 457 285 c 1
 457 274 l 2
 457 264 458 256 459 248 c 1
 481 248 l 2
 523 248 594 245 629 227 c 0
 647 218 659 206 659 195 c 0
 659 186 653 178 639 170 c 0
 594 145 526 144 467 144 c 1
 464 130 461 114 455 95 c 0
 455 94 454 93 454 93 c 2
 454 91 455 91 456 91 c 0
 461 91 484 110 504 110 c 0xf4
EndSplineSet
Validated: 1
EndChar

StartChar: brokenbar
Encoding: 166 166 39
Width: 274
VWidth: 1080
Flags: W
HStem: 5 341<77.9426 210.324> 418 339<53.8705 167.509>
VStem: 57 170<26.7914 217.286> 59 152<47.1421 343.864>
LayerCount: 2
Fore
SplineSet
213 456 m 1xc0
 210 433 206 433 145 422 c 0
 128 419 111 418 97 418 c 0
 91 418 85 419 80 419 c 0
 61 421 54 424 53 443 c 0
 51 482 50 518 50 556 c 0
 50 601 51 648 51 704 c 1
 48 709 47 714 47 719 c 0
 47 743 83 757 115 757 c 0
 128 757 140 754 149 750 c 0
 209 720 213 603 213 500 c 2
 213 456 l 1xc0
56 319 m 1
 63 352 56 342 186 346 c 1
 205 343 212 340 212 321 c 0
 212 285 211 252 211 220 c 0xd0
 211 162 213 110 225 59 c 0
 226 55 227 50 227 47 c 0
 227 17 196 5 160 5 c 0
 113 5 57 27 57 57 c 0xe0
 57 61 58 64 59 68 c 1
 59 123 l 2xd0
 59 197 58 246 56 319 c 1
EndSplineSet
Validated: 1
EndChar

StartChar: section
Encoding: 167 167 40
Width: 643
Flags: W
HStem: -260 173<249.751 355.74>
VStem: 202 112<480.189 598.269> 373 141<-139.503 -35.0137> 461 90<58.9244 121.261>
LayerCount: 2
Fore
SplineSet
200 -163 m 0xe0
 200 -118.561 245.886 -87 285 -87 c 0
 299 -87 313 -90 325 -93 c 0
 366.441 -102.324 362.916 -129.916 373 -140 c 1
 373 -139 l 2xe0
 373 -137 369 -126 366 -102 c 0
 360 -46 346 -19 316 32 c 0
 271 108 265.601 139.325 184 188 c 0
 127 222 91 273 91 338 c 0
 91 346 92 355 93 363 c 0
 106.143 455 202 433.694 202 502 c 0
 202 531 187 563 187 600 c 0
 187 621 192 644 208 668 c 0
 239 712 283 734 332 734 c 0
 337 734 343 733 348 733 c 0
 433 726 471 681 471 639 c 0
 471 601 440 565 385 560 c 0
 384 560 383 560 382 560 c 0
 350 560 334 600 330 600 c 0
 329 600 329 599 329 598 c 0
 327 580 314 567 314 541 c 0
 314 534 315 527 317 518 c 0
 329 461 382.889 452.925 430 383 c 0
 477.887 311.924 546 268 551 163 c 1
 551 150 l 2xd0
 551 58 499 18 484 -2 c 1
 492 -17 514 -50 514 -96 c 0
 514 -119 509 -144 495 -173 c 0
 467 -230 416 -255 357 -259 c 0
 350 -259 344 -260 337 -260 c 0
 287 -260 234 -245 207 -191 c 0
 202 -182 200 -172 200 -163 c 0xe0
215 407 m 1
 234 358 247 327 280 256 c 0
 293 229 336 235 384 173 c 0
 402 149 405 134 405 126 c 0
 405 123 404 121 404 121 c 1
 434 116 446 83 460 58 c 0
 460 57 461 57 461 57 c 1
 461 58 l 2xd0
 461 67 433 159 384 211 c 1
 304 265 269 356 215 407 c 1
EndSplineSet
Validated: 1
EndChar

StartChar: logicalnot
Encoding: 172 172 45
Width: 376
Flags: W
HStem: 165 174<52.9685 203.88>
VStem: 201 150<75.8228 164.881>
LayerCount: 2
Fore
SplineSet
25 211 m 1
 16 224 12 238 12 252 c 0
 12 272 20 291 33 305 c 0
 60 337 93 339 123 339 c 2
 137 339 l 2
 147 339 156 339 164 341 c 2
 164 341 199 351 239 351 c 0
 274 351 314 343 336 313 c 0
 358 282 364 253 364 224 c 0
 364 187 353 150 351 112 c 0
 350 78 311 60 274 60 c 0
 249 60 226 68 214 85 c 0
 204 100 201 115 201 129 c 0
 201 145 204 158 205 165 c 1
 172 170 71 153 25 211 c 1
EndSplineSet
Validated: 1
EndChar

StartChar: macron
Encoding: 175 175 48
Width: 360
Flags: W
HStem: 375.5 89<25.2901 330.868>
LayerCount: 2
Fore
SplineSet
134 464.5 m 2
 170.314 464.5 191.892 470.5 229 470.5 c 0
 235 470.5 242 470.5 249 470 c 0
 274 468 308 467.5 332 451.5 c 0
 344 443.5 352 433.5 352 423 c 0
 352 415.5 348 408 338 401 c 0
 303 374.5 244.999 378.524 202 377.5 c 0
 181 377 157 375.5 133 375.5 c 0
 92 375.5 51 380 21 400.5 c 0
 12 407 8 414 8 421 c 0
 8 431 16 440.5 29 447.5 c 0
 57 463.5 90 464.5 120 464.5 c 2
 134 464.5 l 2
EndSplineSet
Validated: 1
EndChar

StartChar: acute
Encoding: 180 180 53
Width: 288
VWidth: 1080
Flags: W
HStem: 410 323<117.002 167.997>
VStem: 19 149<419.488 483.115>
LayerCount: 2
Fore
SplineSet
256 661 m 0
 230 639 192 467 168 431 c 0
 159 418 127 410 95 410 c 0
 57 410 19 421 19 448 c 0
 19 451 19 454 20 457 c 0
 28 488 38.0312 518.989 50 553 c 0
 70.0523 609.982 71 644 117 712 c 1
 124.62 727.24 157.368 733 172 733 c 0
 202 733 230 718 255 705 c 1
 266 692 273 686 273 680 c 0
 273 676 267.924 671.09 256 661 c 0
EndSplineSet
Validated: 1
EndChar

StartChar: mu
Encoding: 181 181 54
Width: 502
VWidth: 1080
Flags: W
HStem: 375 124<247.984 302.901>
VStem: 10 193<371.252 460> 57 126<-183.621 41.4854> 58 145<129.482 177 180 369> 58 1<177 180> 304 135<130.979 384>
LayerCount: 2
Fore
SplineSet
282 375 m 0x94
 257.546 375 226 396.273 226 430 c 0
 226 446 233 461 242 471 c 0
 266 499 297 497 315 499 c 0
 328 500 341 502 353 502 c 0
 374 502 395 498 419 489 c 0
 425 487 457 480 462 448 c 1
 462 441 l 2
 462 421 451 401 444 401 c 0
 442 401 440 402 439 406 c 1
 439 135 l 1
 463 104 444 126 482 96 c 1
 489 88 493 82 493 76 c 0
 493 72 491 67 486 61 c 0
 449 10 429.95 -9.84989 360 -33 c 0
 356.998 -33.9936 354 -34 351 -34 c 0
 298 -32 299 5 293 12 c 1
 290 4 301 8 284 4 c 0
 236 -8 216 1 200 -17 c 0
 187 -31 183 -50 183 -70 c 0
 183 -102 192 -121 192 -157 c 0
 192 -188 185 -219 159 -245 c 0
 145 -259 134 -265 123 -265 c 0
 67 -265 57 -102 57 7 c 0xa4
 57 55 58 95 59 95 c 1
 59 180 l 1x8c
 59 180 59 177 58 177 c 1
 58 369 l 1x94
 55 366 51 364 47 364 c 0
 33.7704 364 10 388.95 10 416 c 0xc4
 10 424 12 432 16 440 c 0
 41 482 82 488 114 496 c 0
 120 497 126 498 132 498 c 0
 159 498 188 484 200 460 c 0
 203 455 203 419 203 370 c 0
 203 305 202 217 202 149 c 1
 207 140 230 121 255 121 c 0
 272 121 291 131 304 164 c 1
 304 289 303 102 303 384 c 1
 301 378 292 375 282 375 c 0x94
EndSplineSet
Validated: 1
EndChar

StartChar: paragraph
Encoding: 182 182 55
Width: 733
VWidth: 1080
Flags: W
HStem: 12 148<266.234 341.365> 12 139<625.375 697.499> 330 122<284.379 345.957> 632 94<643.238 693.991> 651 88<255.982 346.734>
VStem: 16 200<499.092 613.821> 231 268<28.827 135.161> 340 159<158 330> 354 143<454.634 582.384> 524 193<23.0088 132.708> 524 122<274.064 618.652> 524 101<151 424.435>
LayerCount: 2
Fore
SplineSet
625 157 m 0x3410
 633 151 641 151 648 151 c 0
 656 151 664 153 669 153 c 2
 671 153 l 1
 674 152 676 151 679 149 c 0
 701 131 717 103 717 74 c 0
 717 54.0365 706.708 21.9514 683 18 c 1
 650 14 574 13 544 12 c 1
 525 14 533 18 528 35 c 1
 524 116 l 1
 524 117 l 1x7440
 525 150 525 180 525 216 c 2
 525 265 l 1
 524 341 524 392 524 428 c 2
 524 484 l 2
 524 519 524 535 520 580 c 0
 519 589 492 662 497 581 c 1x74a0
 497 581 499 296 499 295 c 2x75
 499 113 l 2
 499 104 506 74 506 48 c 0
 506 27 501 9 484 9 c 2
 483 9 l 2
 410 9 342 12 281 12 c 0
 275 12 271 14 266 17 c 0
 245 33 231 57 231 83 c 0xa6
 231 95 235 108 242 120 c 0
 261 154 294 160 317 160 c 0
 329 160 337 158 340 158 c 1
 344 225 345 252 346 330 c 1
 345 330 l 2
 339 330 321 325 293 325 c 0
 269 325 238 329 200 343 c 0
 131 370 87 401 46 461 c 0
 26 492 16 520 16 553 c 0
 16 607.71 26.2002 649.41 68 686 c 0
 119.177 730.798 171 739 229 739 c 0xad
 260 739 293 737 329 736 c 0
 425.983 733.306 484 731 530 729 c 1
 541 748 557 754 573 754 c 0
 597 754 621 739 629 726 c 1
 649 725 665 725 674 724 c 0
 681 724 686 722 691 718 c 0
 706 704 717 693 717 680 c 0x3540
 717 672 713 662 702 650 c 0
 698 645 682 644 688 641 c 0
 692 639 694 638 694 637 c 0
 694 634 681 632 668 632 c 0
 658 632 648 633 643 635 c 1
 644 587 646 591 646 566 c 0x3420
 646 542 643.409 489.031 635 328 c 0
 629.622 225.02 625 158 625 157 c 0x3410
348 646 m 1
 337 649 330 651 323 651 c 0
 314 651 305 648 288 642 c 0
 255 631 241 623 228 598 c 0
 220 582 216 570 216 556 c 0
 216 543 220 530 228 513 c 0
 237 496 246 491 273 479 c 0
 309 463 333 452 343 452 c 0
 345 452 347 452 348 453 c 0
 352 488 354 514 354 542 c 0x2c80
 354 570 352 601 348 646 c 1
EndSplineSet
Validated: 1
EndChar

StartChar: AE
Encoding: 198 198 71
Width: 1096
VWidth: 1080
Flags: W
HStem: 14 94<717.139 946.127> 19 170<67.5 151.763> 240 120<389.068 398.999 399 524> 305 98<705.798 798.391> 601 133<706.371 871.205>
VStem: 524 156<119.927 239.58> 535 169<406.823 532.009> 806 126<210.444 281.954> 822 110<192.264 250.512 252.384 292.16>
LayerCount: 2
Fore
SplineSet
531 363 m 1x2a
 533 396 535 447 535 480 c 2
 535 495 l 1
 537 501 538 506 538 510 c 0
 538 540 486 529 481 541 c 1
 476 530 391 401 391 401 c 1
 389 395 389 390 389 385 c 0
 389 370 395 360 398 360 c 1
 398 360 399 360 399 361 c 1
 419 361 438 360 454 360 c 0
 483 360 508 361 531 363 c 1x2a
822 283 m 2x5880
 822 289.054 749.732 305 739 305 c 0
 732 305 725 304 717 302 c 0
 700 298 699 298 697 293 c 0
 683 230 680 216 680 190 c 0
 680 176 681 159 681 129 c 1
 682 127 687 124 697 120 c 1
 742 111 775 108 807 108 c 0x9c80
 843 108 878 112 930 114 c 1
 960 128 931 142 1003 223 c 1
 1013 229 1018 233 1024 233 c 0
 1029 233 1034 230 1042 224 c 0
 1077 192 1072 166 1073 143 c 0
 1073 132 1074 121 1074 109 c 0
 1074 77 1068 44 1032 19 c 1x4c80
 1028 15 1023 14 1017 14 c 2
 515 26 l 1
 523 94 524 138 524 169 c 0
 524 193 523 210 523 224 c 0
 523 230 524 235 524 240 c 1xac80
 519 240 l 2
 491 240 446 246 388 246 c 0
 367 246 344 245 320 243 c 1
 304 232 298 212 298 194 c 0
 298 185 300 176 302 169 c 1
 314 172 322 180 332 180 c 0
 338.413 180 366 167.24 366 150 c 0
 366 134 368 117 368 100 c 0
 368 76 365 54 350 41 c 0
 329 22 306 17 284 17 c 0
 255 17 226 26 204 26 c 2
 200 26 l 1
 161 25 148 25 123 24 c 0
 119 23 111 19 99 19 c 0
 88 19 73 22 54 34 c 0
 51 36 48 38 47 41 c 1
 44 44 19 57 19 86 c 2
 19 88 l 1
 20 133 51 160 87 178 c 0
 102 186 114 189 124 189 c 0
 138 189 147 183 152 178 c 1
 175 214 194 283 198 295 c 0
 279 526 275 499 372 668 c 0
 374 673 378 676 383 678 c 0
 406 689 461 737 508 737 c 0
 518 737 527 735 535 731 c 1
 596 731 l 2
 730 731 791 734 837 734 c 0
 888 734 920 730 1010 716 c 1
 1024 712 1030 707 1031 694 c 0
 1037.77 606.055 1052 618 1052 602 c 0
 1052 598 1051 592 1048 581 c 1
 1048 580 l 2
 1048 571 1077 569 1077 549 c 0
 1077 535.633 1068.97 526.272 1059 522 c 1
 1020 511 999 507 975 507 c 0
 955 507 933 510 896 512 c 0
 889 513 883 515 879 521 c 1
 867 533 863 541 863 546 c 0
 863 558 889 554 890 571 c 0
 891 581 889 587 872 597 c 1
 855 600 841 601 822 601 c 0x6a80
 800 601 773 599 728 593 c 0
 716 592 714 582 706 600 c 1
 704 542 704 530 704 509 c 0
 704 493 704 470 705 411 c 1
 722 408 740 403 763 403 c 0
 774 403 786 404 799 407 c 0
 800 408 800 409 800 411 c 0
 800 417 797 430 797 444 c 0
 797 462 803.072 483.875 831 500 c 0
 843.031 506.946 856 510 869 510 c 0
 888 510 908 502 922 488 c 0
 930 479 927 493 932 216 c 1
 931 206 928 200 917 195 c 0
 899 187 883 184 870 184 c 0
 846 184 828 195 815 210 c 1
 808.806 219.291 806 240.753 806 251 c 0x5b
 806 281 821 281 822 282 c 1
 822 283 l 2x5880
EndSplineSet
Validated: 1
LCarets2: 1 0 
Ligature2: "'liga' Standard Ligatures in Latin lookup 0 subtable" A E
EndChar

StartChar: Eth
Encoding: 208 208 80
Width: 804
VWidth: 1080
Flags: W
HStem: -0 119<303.03 440.542> 1 128<80.4494 145> 656 104<135.374 155 319.284 448.422>
VStem: 145 166<132.259 274.162 447.902 644.893> 155 164<453.215 655.818> 611 177<287.402 498.172>
LayerCount: 2
Back
SplineSet
72.2891 314.58 m 4
 49.6299 345.881 57.9053 383.798 79.7363 408.715 c 4
 121.418 456.289 175.054 437.703 211.342 443.885 c 4
 239.025 448.602 262.218 458.278 300 453 c 4
 324.444 449.584 358.717 448.726 382.699 416.025 c 4
 403.257 387.996 412.142 349.091 389.25 315.236 c 4
 353.363 262.165 295.522 269.891 252.487 268.258 c 4
 195.302 266.089 120.181 248.424 72.2891 314.58 c 4
319.491 649.406 m 1
 335.499 663.442 376.493 655.38 423.988 642.204 c 0
 482.505 625.97 511.075 607.686 548.075 561.356 c 0
 594.776 502.879 610.023 462.672 611.002 389.199 c 0
 611.934 319.291 598.418 281.963 555.605 224.636 c 0
 520.049 177.024 489.979 160.188 430.138 135.824 c 0
 393.565 120.933 375.534 115.491 342.484 121.215 c 0
 310.085 126.826 302.776 126.628 302.98 129.206 c 0
 322.376 374.014 300.103 257.066 319.491 649.406 c 1
92 634.6 m 0
 93.3145 634.633 l 1
 126.057 636.27 133.971 654.783 135.354 655.121 c 0
 158.378 660.769 172.292 651.085 155.701 666.847 c 1
 143.74 270.176 156.872 500.692 145.276 128.925 c 1
 140.298 123.519 72.9746 161.158 20.3828 121.146 c 0
 16.8369 118.447 14.4287 115.288 12.7314 111.284 c 1
 -0.0556641 80.3643 -3.56934 47.1514 16.3418 23.3271 c 0
 20.8252 17.9629 25.8975 15.4199 33.0293 14.418 c 1
 150.419 1.07422 195.208 0.000976562 298.243 0.951172 c 0
 298.309 0.952148 l 1
 376.418 1.86719 430.445 -7.24609 512.76 18.2725 c 0
 581.186 39.4873 627.635 62.0195 677.508 114.184 c 0
 732.842 172.06 749.282 223.321 768.234 294.365 c 0
 786.144 361.502 797.924 412.404 777.124 485.032 c 0
 755.241 561.442 720.657 607.368 658.469 659.118 c 0
 601.77 706.301 552.993 719.25 486.532 736.375 c 0
 372.965 765.637 301.217 759.775 189.89 759.05 c 0
 157.663 758.84 126.416 766.754 85.751 749.362 c 0
 54.9541 736.191 7.05566 709.366 16.2773 674.321 c 1
 20.3047 632.243 78.1729 634.6 92 634.6 c 0
EndSplineSet
Fore
SplineSet
85 635 m 2x6c
 59.868 635 15 639.126 15 683 c 0
 15 713 58 737 86 749 c 0
 107 759 126 761 144 761 c 0
 160 761 175 759 190 759 c 0
 226 759 257 760 287 760 c 0
 351 760 409 756 487 736 c 0
 553 719 601.808 705.769 658 659 c 0
 720.786 606.742 754.761 560.93 777 485 c 0
 784.915 457.975 788 433 788 410 c 0
 788 372 779 336 768 294 c 0
 749 223 733 172 678 114 c 0
 581 12 449 -0 365 -0 c 0xac
 338 -0 316 1 302 1 c 2
 298 1 l 2
 195 1 150 1 33 14 c 0
 11 17 3 42 3 67 c 0
 3 90 10 113 20 121 c 0
 39 135 60 140 79 140 c 0
 110 140 136 129 143 129 c 2
 145 129 l 1x74
 147 189 148 233 149 267 c 1
 97 276 59 315 59 357 c 0
 59 374 65.0353 391.969 80 409 c 0
 101.05 432.956 126 440 150 442 c 1
 151 480 152 540 155 657 c 1
 150 657 143 657 135 655 c 1
 135 655 125 636 92 635 c 1
 85 635 l 2x6c
303 129 m 0x74
 303 128.308 344.702 119 366 119 c 0
 387 119 402.965 125.086 430 136 c 0
 489.923 160.191 520 177 556 225 c 0
 597 280 611 317 611 382 c 2
 611 389 l 1
 610 463 595 503 548 561 c 0
 511 608 482 626 424 642 c 0
 394 650 367 656 347 656 c 0
 335 656 325 654 319 649 c 1xac
 315 561 313 498 312 451 c 1
 335 449 362 444 383 416 c 0
 396 398 403 378 403 359 c 0
 403 316 369 278 311 271 c 1
 311 239 308 199 303 129 c 0x74
EndSplineSet
Validated: 1
EndChar

StartChar: multiply
Encoding: 215 215 86
Width: 446
VWidth: 1080
Flags: W
LayerCount: 2
Fore
SplineSet
60 113 m 1
 43.7415 113 36 121.279 36 133 c 0
 36 155 65 190 65 200 c 2
 65 201 l 1
 74 224 74 219 82 228 c 0
 143 289 136 289 148 310 c 1
 139 330 108 409 59 475 c 1
 56 486 53 492 53 497 c 0
 53 505 58 508 73 514 c 0
 93 523 101 524 112 524 c 2
 132 524 l 1
 143 523 149 520 155 509 c 0
 167 484 214 411 216 409 c 0
 219 407 219 406 228 410 c 0
 239 414 236 417 254 439 c 1
 298 485 l 1
 310 516 304 504 321 524 c 1
 321 524 329 526 340 526 c 0
 358 526 385 521 399 497 c 0
 405 485 405 478 396 468 c 0
 361 428 297 353 277 327 c 1
 288 299 320 283 380 206 c 0
 388 195 392 180 392 165 c 0
 392 149 387 134 374 128 c 0
 343 113 323 115 303 112 c 1
 281 119 277 119 277 129 c 0
 277 133 277 139 278 148 c 1
 225 204 l 1
 223 213 222 210 213 215 c 1
 198 215 l 1
 182 199 186 214 177 197 c 1
 173 184 149 141 149 138 c 0
 149 117 147.981 111.096 127 107 c 0
 116.991 105.046 109 105 103 105 c 0
 87 105 78 109 60 113 c 1
EndSplineSet
Validated: 1
EndChar

StartChar: Oslash
Encoding: 216 216 87
Width: 783
VWidth: 1080
Flags: W
HStem: -3 133<334.119 496.49> 649 110<356.371 514.451> 735 20G<683 701.5>
VStem: 12 215<264.89 501.821> 622 155<305.752 497.748>
LayerCount: 2
Fore
SplineSet
610 499 m 1x98
 504 352 445 307 333 151 c 1
 369 136 397 130 421 130 c 0
 448 130 468 137 489 148 c 0
 546 178 563 216 591 282 c 1
 611 332 622 368 622 410 c 0
 622 436 618 464 610 499 c 1x98
234 264 m 1
 361 409 504 541 553 599 c 1
 513 632 483 649 442 649 c 0xd8
 433 649 424 649 414 647 c 0
 343 635 310 599 266 533 c 0
 234 484 233 451 230 385 c 0
 228.909 361.004 227 340 227 321 c 0
 227 301 229 283 234 264 c 1
730 637 m 1
 716 624 l 1
 762 563 777 506 777 444 c 0
 777 401 770 357 760 307 c 0
 741 216 690 168 647 106 c 0
 592 27 507 -3 420 -3 c 0
 371 -3 322 6 277 22 c 1
 224 21 197 16 158 16 c 0
 137 16 112 17 77 22 c 0
 70 23 66 26 61 31 c 0
 56 37 14 52 14 93 c 2
 14 97 l 1
 15 122 30 142 74 158 c 1
 48 189 30 226 22 273 c 0
 16 311 12 347 12 382 c 0
 12 458 31.1775 526.858 88 598 c 0
 177.279 709.777 284 759 430 759 c 0xd8
 479 759 523 752 564 738 c 1
 570 744 579 751 590 751 c 0
 652 751 674 755 692 755 c 0xb8
 711 755 727 750 786 731 c 0
 800 726 809 709 809 690 c 0
 809 673 803 655 786 642 c 0
 775 633 761 630 751 630 c 0
 739 630 730 634 730 637 c 1
EndSplineSet
Validated: 1
EndChar

StartChar: Thorn
Encoding: 222 222 93
Width: 589
VWidth: 1080
Flags: W
HStem: -1 124<45.3725 113.905> 8 127<289.018 411.538> 203 130<282.037 344.479> 211 122<282.059 338.6> 633 118<44.2344 121 278 393.874>
VStem: 17 390<645.414 740.335> 122 152<335.68 524.948> 412 160<379.009 495.127>
LayerCount: 2
Fore
SplineSet
116 290 m 0x8d
 116 299 122 365 122 530 c 0x8b
 122 561 121 596 121 634 c 1
 116 633 111 633 104 633 c 0
 89 633 70 635 47 640 c 0
 30 643 17 664 17 689 c 0
 17 708 25 729 44 745 c 0
 49 749 54 751 60 751 c 2
 109 751 l 2
 186 751 285 749 347 749 c 2
 369 749 l 2
 390 749 407 724 407 696 c 0
 407 681 402 666 392 652 c 0
 380 636 342 633 313 633 c 0
 296 633 281 634 278 634 c 1
 365.636 615.365 449.273 634.742 521 567 c 1
 559 534 568 495 572 453 c 1
 572 440 l 2
 572 403 561 374 543 343 c 0
 515 293 490 253 430 225 c 0
 395 208 364 203 340 203 c 0xad
 310 203 289 211 283 211 c 2
 282 211 l 1
 283 166 286 167 289 126 c 1
 289 126 314 135 344 135 c 0
 375 135 411 126 433 87 c 0
 438 79 440 71 440 63 c 0
 440 44 427 27 408 13 c 0
 404 9 399 8 393 8 c 0x5d
 317 7 251 -1 174 -1 c 0
 137 -1 97 1 52 7 c 0
 30.7549 10.035 19 39.5106 19 54 c 0
 19 90 63 113 63 113 c 1
 81 120 94 123 102 123 c 0
 108 123 112 121 114 119 c 1
 116 194 116 280 116 290 c 0x8d
280 527 m 1
 276 483 274 453 274 426 c 0
 274 396 276 370 281 334 c 0
 282 333 284 333 286 333 c 0x2b
 297 333 318.937 344.147 356 360 c 0
 381.956 371.103 392 376 400 394 c 0
 408 410 412 424 412 437 c 0
 412 450 408 463 400 479 c 0
 388 503 374 512 341 523 c 0
 324 528 315 532 305 532 c 0
 298 532 291 530 280 527 c 1
EndSplineSet
Validated: 1
EndChar

StartChar: hbar
Encoding: 295 295 94
Width: 539
VWidth: 1000
Flags: W
HStem: -3 121<69.2636 114.082 324.552 354.953> 383 146<264.106 342.917> 543 88<31.7799 113 250 342.441>
VStem: 112 128<121.078 376.032> 114 135<114.605 269.384 273.362 377.834 501 543 636 644> 374 132<111.471 352.28>
LayerCount: 2
Fore
SplineSet
303 45 m 0xec
 303 74.7313 329.288 111 352 111 c 0
 353 111 354 111 355 110 c 1
 364 160 374 183 374 230 c 0
 374 253 371 282 365 323 c 0
 361 349 347 362 315 378 c 0
 308 382 304 383 298 383 c 0
 293 383 286 382 276 379 c 0
 250 372 250 378 250 374 c 0
 243 334 240 301 240 272 c 0xf4
 240 216 249 173 249 126 c 2
 249 121 l 1xec
 261 108 285 79 285 48 c 0
 285 34 281 20 269 7 c 0
 260 -2 270 -3 90 -3 c 0
 83 -3 53 21 53 54 c 0
 53 63 55 72 60 82 c 0
 74 109 95 118 107 118 c 0
 113 118 117 116 118 114 c 1
 113 236 112 289 112 352 c 0xf4
 112 399 113 452 113 543 c 1
 82 544 52 551 29 567 c 0
 20 573 15 580 15 587 c 0
 15 608 54 630 114 631 c 1
 114 644 l 1xec
 113 643 111 643 109 643 c 0
 100 643 82 649 66 663 c 0
 62 667 34 684 34 712 c 0
 34 763.305 98.3625 766.363 112 770 c 1xf4
 130 773 153 782 178 782 c 0
 199 782 220 776 239 756 c 0
 245 749 247 753 249 636 c 1
 312 633 325 627 339 618 c 0
 353 609 359 599 359 590 c 0
 359 566 318 545 250 544 c 1
 249 524 249 510 249 501 c 1
 283 513 307 529 337 529 c 0
 362 529 391 518 433 485 c 0
 459 464 472.928 439.978 482 411 c 0
 499.859 353.956 506 310 506 271 c 0
 506 211 493 164 493 108 c 2
 493 101 l 2
 493 102 494 102 494 102 c 1
 500 102 523 69 523 38 c 0
 523 19.9056 513.349 -4 492 -4 c 1
 478 -3 470 -3 464 -3 c 0
 454 -3 446 -4 416 -4 c 0
 397 -4 369 -4 326 -3 c 0
 319 -3 325 -1 320 4 c 0
 308 16 303 31 303 45 c 0xec
EndSplineSet
Validated: 1
EndChar

StartChar: Iogonek
Encoding: 302 302 101
Width: 419
Flags: W
HStem: -172 74<296.363 324.864> 6 126<18.4964 121.613> 11 112<313.525 391.75> 628 112<284.274 396.001> 636 115<39.6699 120.415>
VStem: 117 177<116 643.484> 208 86<-97.4776 -9.73743>
LayerCount: 2
Fore
SplineSet
402 661 m 0x94
 402 654 382 628 345 628 c 0
 317 628 290 641 283 648 c 1
 293 551 295 497 295 432 c 0
 295 398 294 360 294 311 c 0x94
 294 261 295 199 297 116 c 1
 299 117 317 123 338 123 c 0
 391 123 404 86 404 66 c 0
 404 44 387 11 357 11 c 1
 348 -0 324 3 313 -11 c 0
 298 -31 294 -50 294 -64 c 0
 294 -96 309 -98 313 -98 c 2
 314 -98 l 1
 325 -99 322 -102 325 -91 c 1
 331 -75 344 -68 357 -68 c 0
 375 -68 393 -82 393 -102 c 0
 393 -103 393 -104 393 -105 c 0
 389 -170 345 -172 318 -172 c 2
 302 -172 l 2
 241 -172 208 -116 208 -66 c 0xb2
 208 -39 217 -13 230 8 c 1
 209 7 200 6 189 6 c 0
 169 6 144 9 35 20 c 1
 12 25 -3 52 -3 74 c 0
 -3 107 29 132 63 132 c 0
 89 132 114 120 122 109 c 1
 119 255 117 339 117 407 c 0
 117 484 119 541 124 646 c 1
 119 641 107 636 92 636 c 0
 44 636 21 676 21 703 c 0
 21 724 36 751 58 751 c 0xcc
 366 746 112 748 383 740 c 0
 400 740 412 721 412 701 c 0
 412 681 402 662 402 661 c 0x94
EndSplineSet
Validated: 1
EndChar

StartChar: iogonek
Encoding: 303 303 102
Width: 313
Flags: W
HStem: -195 74<131.275 159.864> 11 103<39.2805 87.8511 238.096 275.679> 551 160<93.25 210.747>
VStem: 43 86<-120.478 -33.3204> 66 172<577.379 683.247> 108 130<113 375.731>
LayerCount: 2
Fore
SplineSet
27 56 m 0xf0
 27 90 55 114 86 114 c 0
 96 114 104 112 108 109 c 1
 108 141 l 2
 108 172 109 184 109 206 c 0
 109 231 107 268 102 356 c 1
 94 378 76 375 32 426 c 1
 28 435 25 442 25 447 c 0
 25 470 100 489 100 489 c 1
 116 494 133 506 160 506 c 0
 164 506 168 505 172 505 c 0
 198 501 225 492 241 464 c 0
 253 443 258 424 258 406 c 0
 258 371 243 341 243 314 c 0
 242 227 238 219 238 113 c 1xe4
 240 116 245 119 251 119 c 0
 272 119 294 86 294 57 c 0
 294 43 289 28 276 17 c 0
 269 12 272 11 210 11 c 2
 193 11 l 1
 194 7 195 3 195 -1 c 0
 195 -26 161 -16 148 -34 c 0
 133 -54 129 -73 129 -87 c 0
 129 -119 144 -121 148 -121 c 2
 149 -121 l 1
 160 -122 157 -125 160 -114 c 1
 166 -98 179 -91 192 -91 c 0
 210 -91 228 -105 228 -125 c 0
 228 -126 228 -127 228 -128 c 0
 224 -193 180 -195 153 -195 c 2
 137 -195 l 2
 75 -195 43 -139 43 -89 c 0
 43 -58 54 -18 88 11 c 1
 61 11 l 2
 42 11 27 33 27 56 c 0xf0
238 629 m 0xe8
 238 577 189 551 140 551 c 0
 118 551 98 557 84 570 c 1
 68 587 66 608 66 622 c 0
 66 684 110 711 152 711 c 0
 178 711 203 701 218 684 c 0
 231 668 238 648 238 629 c 0xe8
EndSplineSet
Validated: 1
EndChar

StartChar: IJ
Encoding: 306 306 103
Width: 644
VWidth: 1000
Flags: W
HStem: -234 150<254.16 346.555> -7 124<33.9023 134.752> -1 137<286.527 440.845> 626 120<51.4745 137.899> 735 20G<436.5 462>
VStem: 131 145<164.389 593.463> 138 128<304.866 622.885> 442 117<-89.5915 4 141.002 621.536>
LayerCount: 2
Fore
SplineSet
385 628 m 0xa5
 377 629 372 636 367 631 c 0
 361 624 268 640 266 600 c 1xa3
 276 460 276 355 276 284 c 2
 276 247 l 2
 276 199 277 172 282 164 c 0
 298 142 315 136 334 136 c 0
 355 136 379 144 405 146 c 1
 406 146 l 2
 414 146 422 141 429 141 c 0
 434 141 438 144 441 157 c 1
 442 212 442 250 442 309 c 0
 442 369 442 451 441 595 c 0
 440.972 599 440 602 438 606 c 0
 422 630 394 627 385 628 c 0xa5
11 62 m 0
 11 98.7305 46.1509 117 79 117 c 0
 106 117 130 108 135 101 c 1
 132 222 131 259 131 288 c 0xc5
 131 332 134 358 138 632 c 1
 136 629 124 626 109 626 c 0
 89 626 64 632 48 652 c 0
 39 664 33 679 33 694 c 0
 33 712.433 46.0923 746 72 746 c 2
 364 746 l 1xd3
 390 752 420 755 453 755 c 0
 471 755 490 754 510 753 c 1
 549 753 l 2
 574 753 602 749 623 723 c 0
 630 714 633 704 633 696 c 0
 633 685 629 676 626 670 c 0
 603 624 557 621 555 616 c 1
 559 504 559 439 559 384 c 0
 559 326 558 280 558 203 c 0
 558 144 559 68 561 -44 c 1
 561 -48 l 2
 561 -137 495 -176 477 -191 c 0
 440 -221 402 -250 334 -250 c 2
 330 -250 l 1
 311 -249 289 -250 265 -234 c 0
 243 -219 226 -195 226 -167 c 0
 226 -150 233 -131 249 -112 c 0
 257 -102 270 -84 297 -84 c 2
 305 -84 l 1
 347 -88 353 -121 357 -123 c 0
 368 -129 373 -132 378 -132 c 0
 383 -132 386 -127 395 -117 c 0
 406 -104 421 -97 424 -81 c 1
 436 -41 l 1
 445 -23 448 -13 448 -6 c 0
 448 3 443 3 443 4 c 1
 442 4 l 1
 437 1 433 -1 427 -1 c 0xab
 294 -3 263 -7 226 -7 c 0xc3
 195 -7 159 -4 49 8 c 0
 31 10 11 35 11 62 c 0
EndSplineSet
Validated: 1
LCarets2: 1 0 
Ligature2: "'liga' Standard Ligatures in Latin lookup 0 subtable" I J
EndChar

StartChar: ij
Encoding: 307 307 104
Width: 394
VWidth: 1000
Flags: W
HStem: -278 180<111.395 221.89> -25 128<176.236 229.391> -25 104<4.63037 71.9495> 377 123<208.167 344> 550 161<67.75 183.607 232.248 349.38>
VStem: 72 104<103.001 339.39> 230 148<-127.961 -25 104.254 376.999>
LayerCount: 2
Fore
SplineSet
293 711 m 0x9e
 338 711 378 674 378 628 c 0
 378 620 377 611 374 603 c 0
 364 575 339.975 567.055 329 562 c 0
 313.965 555.075 297 551 280 551 c 0
 247 551 216 566 208 600 c 1
 196 571 153 550 114 550 c 0
 76 550 41 570 41 622 c 0
 41 683 84 711 126 711 c 0
 162 711 198 691 209 654 c 1
 222 692 258 711 293 711 c 0x9e
331 500 m 0
 357 500 378 499 378 474 c 2
 378 -96 l 2
 378 -98 378 -100 377 -102 c 0
 351 -200 277.976 -235.958 249 -252 c 0
 230.985 -261.974 212 -276 181 -278 c 0
 180 -278 179 -278 178 -278 c 0
 142 -278 75 -251 75 -191 c 0
 75 -179 78 -167 83 -153 c 0
 98 -114 134 -98 167 -98 c 0
 195 -98 220 -110 227 -128 c 0
 228 -128 229 -128 230 -128 c 2
 232 -25 l 1
 25 -25 l 2
 7 -25 -10 -5 -10 20 c 0
 -10 28 -8 37 -3 46 c 0
 11 72 41 79 58 79 c 0xbe
 65 79 71 78 72 76 c 1
 72 107 l 2
 72 137 73 148 73 171 c 0
 73 195 71 232 66 320 c 1
 58 342 40 339 -4 390 c 1
 -8 399 -11 406 -11 411 c 0
 -11 417 -7 422 4 429 c 0
 33 446 42 447 65 453 c 1
 181 472 l 1
 180 469 l 1
 184 473 188 476 193 477 c 0
 245 490 285 500 331 500 c 0
180 354 m 1
 174 326 172 296 172 265 c 0
 172 217 176 169 176 128 c 0
 176 122 176 116 176 110 c 1
 181 105 188 103 196 103 c 0xde
 205 103 217 106 230 110 c 1
 235 145 237 197 237 248 c 0
 237 295 235 342 234 374 c 1
 230 376 225 377 221 377 c 0
 206 377 190 366 180 354 c 1
EndSplineSet
Validated: 1
LCarets2: 1 0 
Ligature2: "'liga' Standard Ligatures in Latin lookup 0 subtable" i j
EndChar

StartChar: Kcommaaccent
Encoding: 310 310 105
Width: 736
Flags: W
HStem: -253 21G<99.5 150.5> -1 133<643 701.967> -1 112<352.38 435.984> -1 97<394.979 441.261> 14 111<17.9978 77.6681> 614 128<259.284 328.435> 626 116<39.3733 92.5679 385.327 428 567.481 639.437> 642 100<43.8473 96.814>
VStem: 95 150<119.116 277.186> 97 164<398 621> 154 128<-171.248 -120.881> 369 163<661 746.5>
LayerCount: 2
Fore
SplineSet
258 5 m 1x9090
 276 -22 282 -50 282 -82 c 0
 282 -134 272 -168 237 -202 c 0
 203 -234 195 -250 106 -253 c 0
 93 -253 83 -242 83 -231 c 0
 83 -202 154 -173 154 -127 c 2
 154 -125 l 1x9030
 145 -119 114 -128 87 -94 c 0
 73 -76 68 -58 68 -39 c 0
 68 -20 72 -2 78 14 c 1
 36 14 l 1
 17 15 1 37 1 62 c 0
 1 75 5 90 17 102 c 0
 35 120 53 125 68 125 c 0
 81 125 91 121 95 118 c 1x8890
 93 222 91 244 91 308 c 0
 91 362 93 446 97 636 c 1
 97 638 l 2
 97 641 96 642 93 642 c 0x8950
 84 642 61 626 43 626 c 0
 25 626 17 654 17 669 c 0
 17 698 38 723 60 737 c 0
 64 740 69 742 74 742 c 2x8250
 306 742 l 1
 334 741 351 713 351 683 c 0
 351 664 345 644 329 629 c 0
 317 618 301 614 287 614 c 0
 275 614 265 617 259 621 c 1
 261 550 261 528 261 518 c 0
 261 502 259 517 257 398 c 1
 428 622 l 1
 426 622 l 2
 403 622 369 643 369 679 c 0
 369 728 423 746 432 746 c 0
 495 747 519 748 528 748 c 0
 532 748 533 747 533 747 c 1
 533 747 532 747 532 746 c 0
 532 745 540 743 596 739 c 1
 596 739 662 726 662 681 c 2
 662 676 l 1
 657 624 588 621 585 619 c 0
 481 536 491 531 379 399 c 1
 506 292 460 329 643 120 c 1
 643 121 l 2
 643 124 651 132 664 132 c 0
 695 132 723 88 723 59 c 0
 723 40 710 -1 682 -1 c 2xc450
 375 -1 l 2
 356 -1 337 23 337 50 c 0
 337 65 343 80 357 94 c 0
 371 107 383 111 394 111 c 0xa050
 415 111 429 96 435 96 c 2
 436 96 l 1
 443 101 443 114 440 123 c 1
 388 188 356 232 275 304 c 1
 264 298 258 291 251 279 c 1
 247 240 245 220 245 200 c 0
 245 178 247 155 251 106 c 1
 253 110 259 113 267 113 c 0
 284 113 314 91 314 62 c 0
 314 40 275 16 258 5 c 1x9090
EndSplineSet
Validated: 1
EndChar

StartChar: kcommaaccent
Encoding: 311 311 106
Width: 609
Flags: W
HStem: 389 113<276.25 332> 732 20G<117.5 191.5>
VStem: 92 142<311 628> 166 128<-178.874 -128.62>
LayerCount: 2
Fore
SplineSet
118 -260 m 0xd0
 106 -260 96 -250 96 -239 c 0
 96 -209 166 -180 166 -135 c 0
 166 -134 166 -133 166 -132 c 0xd0
 157 -127 126 -136 100 -101 c 1
 85 -84 81 -65 81 -47 c 0
 81 -30 85 -13 89 2 c 1
 75 2 l 1
 58 3 43 19 43 42 c 0
 43 52 47 63 54 74 c 0
 63 90 83 100 91 100 c 2
 92 100 l 1
 91 183 91 239 91 281 c 0
 91 365 92 395 92 482 c 0
 92 525 92 542 91 628 c 1
 84 623 77 620 70 620 c 0
 43 620 24 653 24 678 c 0
 24 693 29 707 39 713 c 1
 50 721 85 752 150 752 c 2
 181 752 l 2
 202 752 228 749 247 724 c 0
 255 712 259 700 259 689 c 0
 259 666 243 637 230 629 c 1
 233 534 234 556 234 517 c 0xe0
 234 484 233 436 232 311 c 1
 247 322 252 323 256 323 c 2
 258 323 l 2
 264 323 271 325 332 389 c 1
 327 389 l 2
 306 389 265 404 262 439 c 1
 262 443 l 2
 262 474 286 492 304 502 c 0
 313 507 306 502 519 517 c 1
 520 517 l 2
 544 517 566 484 566 457 c 0
 566 446 562 436 553 430 c 0
 414 332 406 332 337 277 c 1
 421 199 445 198 578 79 c 1
 584 72 586 67 586 58 c 2
 584 34 l 1
 581 20 577 14 564 11 c 0
 529 4 502 2 476 2 c 0
 436 2 398 7 335 7 c 0
 316 7 304 29 304 44 c 0
 304 62 318 81 338 97 c 1
 263 137 306 112 247 167 c 1
 244 97 l 1
 262 97 291 72 291 45 c 0
 291 35 287 25 279 16 c 0
 276 13 270 11 263 9 c 1
 287 -21 294 -53 294 -89 c 0
 294 -142 285 -176 249 -209 c 1
 216 -241 208 -258 118 -260 c 0xd0
EndSplineSet
Validated: 1
EndChar

StartChar: kgreenlandic
Encoding: 312 312 107
Width: 579
VWidth: 1000
Flags: W
VStem: 18 247<19.5989 95.8672> 66 167<402.724 504.787> 66 156<109 176 457.562 512.027> 67 140<320 397.995>
LayerCount: 2
Fore
SplineSet
233 457 m 0x40
 233 433 218 405 204 398 c 1
 204 398 205 392 207 320 c 1x10
 268 381 250 344 318 398 c 1
 313 398 l 2
 292 398 251 413 248 448 c 1
 248 452 l 2
 248 483 272 501 290 511 c 0
 294 513 286 514 290 514 c 0
 381 518 408 520 494 526 c 1
 495 526 l 2
 519 526 541 493 541 466 c 0
 541 455 537 445 528 439 c 0
 389 341 381 341 312 286 c 1
 396 208 420 208 553 88 c 1
 559 81 561 76 561 67 c 2
 559 43 l 1
 556 29 552 23 539 20 c 0
 504 13 477 11 451 11 c 0
 411 11 373 16 310 16 c 0
 291 16 279 38 279 53 c 0
 279 71 293 90 313 106 c 1
 238 146 281 121 222 176 c 1x20
 222 167 221 132 219 106 c 1
 238 106 265 81 265 53 c 0
 265 44 262 34 254 25 c 0
 241 12 174 10 120 10 c 0
 84 10 54 11 49 11 c 0
 33 12 18 28 18 50 c 0x80
 18 61 21 72 29 83 c 1
 38 99 58 109 66 109 c 2x20
 67 109 l 1x10
 67 149 66 175 66 196 c 0x20
 66 242 67 257 67 317 c 0x10
 67 353 67 406 66 492 c 1x40
 69 510 70 521 135 521 c 0
 140 521 148 522 157 522 c 0
 177 522 203 518 222 493 c 0x20
 230 481 233 469 233 457 c 0x40
EndSplineSet
Validated: 1
EndChar

StartChar: Lcommaaccent
Encoding: 315 315 110
Width: 709
Flags: W
HStem: -1.37122 114.371<26.186 168> 15 115<22.0871 166.008> 601 142<353.624 452.032> 731 20G<248.5 263.5>
VStem: 168 184<113 438.434> 178 176<113.672 597.745> 349.2 128<-169.824 -119.495> 535 161<116.997 204.091>
LayerCount: 2
Fore
SplineSet
301.2 -251.4 m 0x63
 288.557 -251.4 278.801 -240.598 278.801 -229.8 c 0
 278.801 -200.2 349.2 -171.4 349.2 -125.8 c 0
 349.2 -125 349.2 -124.2 349.2 -123.4 c 0
 340.4 -117.8 309.2 -126.6 282.801 -92.2002 c 0
 268.4 -74.5996 263.601 -56.2002 263.601 -37.7998 c 0
 263.601 -25.6028 266.36 -12.4836 268.86 -1.37122 c 1x83
 214.045 0.306119 144.533 5.42446 40 15 c 1
 18.3137 18.098 4 48.3933 4 62 c 0
 4 79 15 96 28 118 c 1
 34 126 39 129 49 130 c 1
 65 130 l 2x43
 125 130 150 113 164 113 c 2
 168 113 l 1
 168 156 l 2x89
 168 286 178 303 178 445 c 0
 178 478 177 519 176 569 c 1
 166 594 149 609 95 634 c 0
 79.7236 640.547 75 665.029 75 686 c 0
 75 704 81 722 98 737 c 0
 103 741 108 743 114 743 c 0xa5
 230 748 241 751 256 751 c 0x15
 271 751 290 748 420 743 c 0
 440 742 471 708 471 669 c 0
 471 655 466.933 640.047 457 626 c 0
 442.905 606.067 423 601 406 601 c 0
 394 601 383 604 377 604 c 0
 375 604 374 604 373 603 c 0
 360 595 354 585 352 579 c 1x29
 354 490 354 434 354 395 c 0x25
 354 318 352 306 352 236 c 0x29
 352 205 353 162 354 95 c 1x25
 388 95 l 2
 443 95 468 97 535 125 c 1
 535 141 521 165 521 206 c 0
 521 218 522 232 525 247 c 0
 532 279 558 287 585 287 c 0
 609 287 633 281 645 281 c 0
 646 281 647 281 648 281 c 0
 666 281 673 279 677 263 c 0
 691 203 696 173 696 138 c 0
 696 109 692 78 686 23 c 0
 686 22 687 22 687 21 c 0
 687 13 669 1 659 1 c 0
 657 1 655 2 654 3 c 0
 653 3 615 13 600 15 c 1
 539.231 11.6702 493.708 8.16716 454.921 5.21196 c 1
 471.816 -21.3217 477.2 -49.5372 477.2 -80.2002 c 0
 477.2 -132.761 467.546 -166.817 432.4 -200.2 c 0
 398.758 -232.156 390.801 -249 301.2 -251.4 c 0x63
EndSplineSet
Validated: 1
EndChar

StartChar: lcommaaccent
Encoding: 316 316 111
Width: 335
Flags: W
HStem: 729 20G<119.5 147.5>
VStem: 23 289<3.16138 96.71> 94 163<121 577> 172.2 128<-181.824 -131.495>
LayerCount: 2
Fore
SplineSet
124.2 -263.4 m 0x90
 111.557 -263.4 101.801 -252.598 101.801 -241.8 c 0
 101.801 -212.2 172.2 -183.4 172.2 -137.8 c 0
 172.2 -137 172.2 -136.2 172.2 -135.4 c 0x90
 163.4 -129.8 132.2 -138.6 105.801 -104.2 c 0
 91.4004 -86.5996 86.6006 -68.2002 86.6006 -49.7998 c 0
 86.6006 -33.0933 90.5277 -16.63 94.714 -2.18774 c 1
 58 -3 l 1
 32 -2 23 27 23 54 c 0xc0
 23 73 27 91 34 97 c 0
 52 114 94 126 94 126 c 1
 93 577 l 1
 76 577 33 586 12 616 c 0
 9 622 7 628 8 634 c 2
 14 673 l 2
 20 708 67 734 72 737 c 0
 91 746 110 749 129 749 c 0
 166 749 203 736 241 723 c 1
 253 717 257 712 258 699 c 1
 257 121 l 1xa0
 279 120 289 105 304 81 c 0
 310 73 312 62 312 52 c 0xc0
 312 37 308 23 307 22 c 0
 303 8 298 4 284 2 c 1
 272.048 1.73557 l 1
 293.592 -27.2667 300.2 -58.2317 300.2 -92.2002 c 0
 300.2 -144.761 290.546 -178.817 255.4 -212.2 c 0
 221.758 -244.156 213.801 -261 124.2 -263.4 c 0x90
EndSplineSet
Validated: 1
EndChar

StartChar: Lslash
Encoding: 321 321 116
Width: 709
VWidth: 1080
Flags: W
HStem: -2 97<354 514.429> 1 280<535.182 677.65> 15 115<22.4728 166.281> 158 88<-24.7878 77.1177> 525 76<507.049 554.213> 551 48<411.813 433.487> 601 142<353.624 451.809>
VStem: 168 184<224 231 540 569> 535 161<116.997 204.091>
LayerCount: 2
Fore
SplineSet
169 224 m 1x0180
 169 231 170 238 170 245 c 1
 157 233 l 1
 152 225 137 224 145 224 c 2
 148 224 l 2
 155 224 160 226 165 226 c 0
 166 226 168 225 169 224 c 1x0180
-42 193 m 0
 -42 229.326 10.8236 246 27 246 c 0
 41 246 43 239 44 239 c 0
 102 288 141 320 176 346 c 1
 177 373 178 403 178 445 c 0
 178 478 177 519 176 569 c 1
 166 594 149 609 95 634 c 0
 78 641 75 671 75 686 c 0
 75 720 98 743 114 743 c 0
 230 748 241 751 256 751 c 0
 271 751 290 748 420 743 c 0
 440 742 471 708 471 669 c 0
 471 648 458 601 406 601 c 0
 394 601 383 604 377 604 c 0
 372 604 357 593 352 579 c 1
 353 540 353 507 354 479 c 1
 414 525 403 519 434 555 c 1
 423 553 416 551 412 551 c 0
 403 551 407 566 408 569 c 0
 415 588 438 599 445 599 c 0
 482 599 496 601 507 601 c 0x3780
 519 601 558 590 564 581 c 0
 565 578 566 575 566 573 c 0
 566 550 534 525 518 525 c 0
 512 525 508 528 507 532 c 1
 354 403 l 1
 354 395 l 2
 354 318 352 306 352 236 c 0
 352 205 353 162 354 95 c 1
 388 95 l 2x8980
 443 95 468 97 535 125 c 1
 535 141 521 165 521 206 c 0
 521 260 535 287 585 287 c 0
 609 287 633 281 645 281 c 0
 646 281 647 281 648 281 c 0
 666 281 673 279 677 263 c 0
 691 203 696 173 696 138 c 0
 696 109 692 78 686 23 c 0
 686 22 687 22 687 21 c 0
 687 13 669 1 659 1 c 0x4180
 657 1 655 2 654 3 c 0
 653 3 615 13 600 15 c 1x2180
 454 7 396 -2 308 -2 c 0x8180
 247 -2 171 3 40 15 c 1
 21 18 4 44 4 62 c 0
 4 79 15 96 28 118 c 1
 34 126 39 129 49 130 c 1
 65 130 l 2
 125 130 150 113 164 113 c 2
 168 113 l 1
 168 202 l 1
 160 184 120 161 114 161 c 0
 74 161 55 158 30 158 c 0x3180
 17 158 -21 159 -25 167 c 0
 -27 171 -42 176 -42 193 c 0
EndSplineSet
Validated: 1
EndChar

StartChar: lslash
Encoding: 322 322 117
Width: 541
VWidth: 1080
Flags: W
HStem: 245 66<39.1119 96.9985> 521 57<470.001 510.892> 540 36<401.023 415.626>
VStem: 131 289<11.1614 104.71> 201 165<129 319 384 446 497 620>
LayerCount: 2
Fore
SplineSet
366 446 m 1xc8
 365 129 l 1
 387 128 397 113 412 89 c 0
 418 81 420 70 420 60 c 0
 420 45 416 31 415 30 c 0
 411 16 406 12 392 10 c 1
 166 5 l 1
 140 6 131 35 131 62 c 0xd0
 131 81 135 99 142 105 c 0
 160 122 202 134 202 134 c 1
 202 319 l 1
 181 301 l 1
 177 296 166 295 172 295 c 2
 174 295 l 2
 179 295 183 296 186 296 c 0
 194 296 191 285 189 281 c 0
 182 265 147 248 143 248 c 0
 113 248 99 245 80 245 c 0
 68 245 41 246 39 252 c 0
 38 255 22 260 32 282 c 1
 42 301 71 311 85 311 c 0
 95 311 97 306 97 306 c 1
 201 384 l 1
 201 620 l 1
 167 620 116 646 116 673 c 2
 116 677 l 1
 122 716 l 2
 126 737 162 792 237 792 c 0
 274 792 311 779 349 766 c 1
 361 760 365 755 366 742 c 1
 366 497 l 1
 397 520 394 520 416 543 c 1
 408 541 402 540 400 540 c 0
 393 540 398 553 398 554 c 0
 403 563 418 576 429 576 c 0xa8
 456 576 467 578 475 578 c 0
 485 578 513 569 516 563 c 0
 516 562 517 560 517 559 c 0
 517 543 493 521 477 521 c 0
 472 521 470 523 470 526 c 1
 366 446 l 1xc8
EndSplineSet
Validated: 1
EndChar

StartChar: Ncommaaccent
Encoding: 325 325 120
Width: 811
Flags: W
HStem: -20 127<12.9369 108.803> 603 124<27.4531 107.912> 620 123<532.736 621.75 732.412 768.225>
VStem: 109 130<108.5 465.791> 109 115<100 405.313> 199 129.235<-180.771 -129.297> 609 124<302 470.96> 623 105<463.04 631.654>
LayerCount: 2
Fore
SplineSet
113 -48 m 0xa4
 113 -38 115 -29 117 -20 c 1
 94 -20 l 2
 78 -20 60 -20 36 -19 c 1
 21 -16 16 -12 12 3 c 0
 11 5 -4 22 -4 45 c 0
 -4 56 -1 67 8 79 c 0
 22 99 46 107 68 107 c 0
 88 107 105 101 109 90 c 1
 105 196 104 246 104 281 c 0
 104 351 109 350 109 619 c 1
 104 609 90 603 74 603 c 0
 52 603 28 614 17 644 c 0
 14 653 12 661 12 669 c 0
 12 698 33 719 49 727 c 0
 51 727 52 728 54 728 c 0
 87 736 115 740 140 740 c 0
 178 740 213 732 257 720 c 0
 262 719 266 716 269 712 c 0
 291 686 592 326 609 302 c 1xca
 623 632 l 1
 617 632 601 620 579 620 c 0
 566 620 550 625 535 640 c 0
 517 657 512 667 512 676 c 0
 512 685 518 693 521 706 c 0
 525.146 723.967 523.01 739.915 550 743 c 0
 620 751 638 755 650 755 c 0
 664 755 667 750 755 741 c 0
 784.993 737.932 801 717 801 694 c 0
 801 673 788 651 761 638 c 0
 746 631 752 628 732 626 c 1
 729 565 728 517 728 477 c 0xa1
 728 388 733 343 733 252 c 0xa2
 733 206 732 150 728 76 c 0
 728 71 726 67 724 63 c 0
 721 59 705 13 662 9 c 0
 660 9 658 9 656 9 c 0
 620 9 601 37 589 53 c 0
 347 355 343 323 235 467 c 1
 238 441 239 429 239 409 c 0xb1
 239 330 224 274 224 132 c 2
 224 100 l 1xa8
 226 103 233 109 243 109 c 0
 251 109 261 104 271 87 c 0
 278 76 280 66 280 56 c 0
 280 46 278 37 275 30 c 1
 312.183 0.253448 321.431 -42.1047 327 -90 c 0
 327.826 -97.1581 328.235 -103.994 328.235 -110.547 c 0
 328.235 -151.598 312.182 -181.543 282 -210 c 0
 249 -242 241 -259 151 -261 c 0
 138 -261 129 -250 129 -240 c 0
 129 -210 199 -181 199 -136 c 0
 199 -135 199 -134 199 -133 c 0
 190 -128 159 -136 133 -102 c 0
 118 -84 113 -66 113 -48 c 0xa4
EndSplineSet
Validated: 1
EndChar

StartChar: ncommaaccent
Encoding: 326 326 121
Width: 542
Flags: W
HStem: 397 159<242.064 322.682>
VStem: 18 249<41.5639 148.941> 72 155<162 381.53> 268 255<35.6929 152.985> 322 147<161 395.635> 370.2 128<-169.824 -119.495>
LayerCount: 2
Fore
SplineSet
322.2 -251.4 m 0x84
 309.557 -251.4 299.801 -240.598 299.801 -229.8 c 0
 299.801 -200.2 370.2 -171.4 370.2 -125.8 c 0
 370.2 -125 370.2 -124.2 370.2 -123.4 c 0x84
 361.4 -117.8 330.2 -126.6 303.801 -92.2002 c 0
 289.4 -74.5996 284.601 -56.2002 284.601 -37.7998 c 0
 284.601 -14.3232 290.122 7.03926 298.57 26.1038 c 1
 278.811 43.3763 268 83.5004 268 99 c 0x90
 268 127 292 166 313 166 c 0
 318 166 321 164 324 161 c 1
 323 224 322 248 322 263 c 0
 322 285 323 284 324 366 c 1
 322 379 322 394 296 396 c 0
 293 396 290 397 288 397 c 0
 267 397 232 372 227 360 c 1
 226 321 226 300 226 284 c 0
 226 253 227 245 227 162 c 1xa8
 232 179 237 166 249 149 c 0
 260 133 267 115 267 96 c 0
 267 88 266 79 263 71 c 0
 258 54 251 30 216 21 c 0
 214 20 212 20 210 20 c 2
 83 20 l 2
 62 20 18 46 18 95 c 0xc0
 18 132 49 164 65 164 c 0
 68 164 70 163 72 161 c 1
 71 230 71 341 71 414 c 1
 69 410 64 408 60 408 c 0
 45 408 23 425 20 446 c 0
 20 448 20 450 20 452 c 0
 20 468 35 468 124 558 c 0
 130 563 135 565 143 565 c 0
 170 564 187 550 197 543 c 0
 218 527 206 509 211 519 c 0
 219 532 232 529 273 542 c 0
 283 545 294 556 321 556 c 0
 322 556 323 556 324 556 c 0
 358 555 375 539 393 531 c 0
 402 527 430 525 449 498 c 1
 466 472 472 442 472 418 c 0
 472 401 469 388 466 381 c 1
 469 330 469 299 469 277 c 0xa8
 469 243 467 232 467 198 c 0
 467 188 468 176 468 161 c 1
 470 174 473 179 478 179 c 0
 482 179 523 148 523 97 c 0x90
 523 42 487 18 473 18 c 2
 467.915 17.7885 l 1
 492.912 -10.9132 498.2 -44.8598 498.2 -80.2002 c 0
 498.2 -132.761 488.546 -166.817 453.4 -200.2 c 0
 419.758 -232.156 411.801 -249 322.2 -251.4 c 0x84
EndSplineSet
Validated: 1
EndChar

StartChar: Eng
Encoding: 330 330 125
Width: 829
VWidth: 1080
Flags: W
HStem: -195 99<364.445 457.1> 14 121<25.1883 121.804> 614 119<28.5312 121.71> 648 98<746.805 810.412> 649 110<543.532 636 746.472 811.015>
VStem: 122 130<128.469 484.877> 122 115<128 417.546> 627 115<-17.3816 77.2754 320 397.807> 636 106<477.624 643>
LayerCount: 2
Fore
SplineSet
78 614 m 0xe2
 49.1636 614 6 629.921 6 670 c 0
 6 703 45 724 62 733 c 0
 64 733 65 734 67 734 c 0
 100 742 127 745 153 745 c 0
 191 745 225 738 269 727 c 0
 275 725 279 723 282 719 c 0
 304 694 604 343 622 320 c 1
 636 643 l 1
 618 643 562 644 562 644 c 2
 543.016 644 530 672.759 530 681 c 0
 530 697 543 708 543 712 c 2
 543 713 l 1
 542 722 540 728 540 733 c 0xe280
 540 743 545.005 745.957 563 748 c 0
 632.019 755.835 655 759 671 759 c 0xca80
 693 759 703.061 753.734 792 746 c 0
 815 744 822 730 822 714 c 0
 822 689 806 658 798 648 c 1xd280
 786 648 780 649 777 649 c 0
 771 649 777 647 745 637 c 1
 742 585 742 545 742 511 c 0xca80
 742 427 747 383 747 294 c 0
 747 247 746 188 741 105 c 0
 741 101 739 99 738 95 c 1
 738 95 742 78 742 53 c 0
 742 12 732 -50 680 -98 c 1
 635 -164 493 -183 440 -192 c 0
 428 -194 418 -195 409 -195 c 0
 367 -195 353 -176 353 -154 c 0
 353 -131 369 -105 385 -96 c 0
 400 -88 627 -34 627 6 c 0
 627 7 627 8 627 9 c 0
 619 45 603 82 602 83 c 0
 358 372 365 338 248 486 c 1
 251 462 252 441 252 421 c 0xcd
 252 347 237 294 237 158 c 2
 237 128 l 1
 239 130 246 136 255 136 c 0
 264 136 274 131 284 115 c 0
 290 105 293 95 293 86 c 0
 293 65 281 47 280 43 c 0
 276 29 271 23 256 22 c 0
 180 19 175 14 107 14 c 0
 92 14 73 14 49 15 c 1
 34 17 29 21 25 35 c 0
 25 36 10 54 10 77 c 0
 10 87 12 98 21 109 c 0
 35 128 61 135 82 135 c 0
 102 135 118 129 122 119 c 1
 118 219 116 267 116 300 c 0
 116 366 122 375 122 630 c 1
 116 621 98 614 78 614 c 0xe2
EndSplineSet
Validated: 1
EndChar

StartChar: eng
Encoding: 331 331 126
Width: 491
VWidth: 1000
Flags: W
HStem: -246 104<89.6705 178.429> 528 11G<136.5 148 304.5 337>
VStem: 68 154<144 363.247> 269 205<18.3536 133.205> 318 156<147 378.635> 353 122<-57.9043 -0.331047>
LayerCount: 2
Fore
SplineSet
345 0 m 1xe4
 309 1 316 -0 308 4 c 0
 287 15 269 50 269 81 c 0xf0
 269 91 270 101 274 109 c 0
 286 136 309 148 317 148 c 0
 319 148 319 148 320 147 c 1
 319 204 318 229 318 243 c 0xe8
 318 268 320 264 321 349 c 1
 319 362 318 377 293 379 c 0
 291 379 289 379 287 379 c 0
 256 379 228 351 223 343 c 1
 222 307 222 286 222 270 c 0
 222 237 223 231 224 152 c 1
 246 132 258 103 258 76 c 0
 258 44 241 13 205 4 c 0
 203 3 207 3 207 3 c 1
 80 3 l 2
 51 3 15 37 15 78 c 0
 15 85 16 92 18 99 c 0
 29 132 53 146 63 146 c 0
 66 146 67 145 68 144 c 1
 68 397 l 1
 65 392 60 390 55 390 c 0
 40 390 20 408 17 429 c 0
 17 431 17 433 17 435 c 0
 17 450 29 449 121 541 c 0
 124 544 131 548 142 548 c 0
 154 548 171 543 194 526 c 0
 216 509 208 511 208 502 c 0
 208 499 209 498 211 498 c 0
 218 498 237 515 269 525 c 0xf0
 279 528 292 539 317 539 c 0
 318 539 319 539 320 539 c 0
 354 538 372 522 390 514 c 0
 399 510 426 508 445 481 c 0
 468 448 477 408 477 383 c 0
 477 375 476 368 474 364 c 1xe8
 475 335 476 305 476 274 c 0
 476 216 474 155 474 90 c 0xf0
 474 67 474 43 475 19 c 1
 475 -31 455 -96 406 -144 c 1
 361 -213 221 -233 166 -243 c 0
 154 -245 144 -246 135 -246 c 0
 93 -246 79 -225 79 -202 c 0
 79 -178 94 -151 110 -142 c 0
 126 -134 353 -76 353 -33 c 2
 353 -31 l 1
 350 -18 347 -7 345 0 c 1xe4
EndSplineSet
Validated: 1
EndChar

StartChar: OE
Encoding: 338 338 131
Width: 963
VWidth: 1080
Flags: W
HStem: 3 141<295.986 395.787> 3 99<552.05 817.28> 183 347<693.6 792.183> 310 103<577.798 669.438> 621 136<577 742.019>
VStem: 17 176<240.757 495.595> 414 163<416.823 619.827> 678 125<196.205 299.288>
LayerCount: 2
Fore
SplineSet
361 144 m 0x8f
 381.801 144 391.54 145.648 396 162 c 1
 407 266 414 333 414 456 c 0
 414 494 414 538 412 590 c 0
 410 631 405 636 390 636 c 2
 383 636 l 1
 372 632 l 1
 315 602 270 582 231 525 c 0
 199 477 198 437 196 386 c 0
 195 367 193 349 193 332 c 0
 193 300 198.016 270.009 218 236 c 0
 245.022 190.013 280.058 172.127 324 152 c 0
 337.017 146.038 350 144 361 144 c 0x8f
763 580 m 0
 763 582.958 760 590.188 760 592 c 2
 760 593 l 2
 760 595 759 597 743 617 c 1
 722 620 706 621 682 621 c 2
 605 621 l 1
 581 617 599 621 577 620 c 1
 576 564 575 549 575 531 c 0
 575 512 576 490 577 421 c 1
 594 418 613 413 637 413 c 0x5f
 647 413 658 414 670 416 c 0
 671 417 671 418 671 421 c 0
 671 428 668 442 668 458 c 0
 668 479 674.072 503.875 702 520 c 0
 714.031 526.946 727 530 739 530 c 0
 759 530 778 522 793 507 c 0
 801 498 799 507 803 216 c 1
 802 205 799 199 788 194 c 0
 770 186 754 183 741 183 c 0x2f
 717 183 700 193 687 210 c 0
 684 213 682 216 682 220 c 0
 679 234 678 245 678 253 c 0
 678 284 693 284 693 285 c 2
 693 286 l 2
 693 292 684 291 660 298 c 0
 637 305 623 310 609 310 c 0
 602 310 596 309 588 307 c 0
 571 302 571 302 568 297 c 1
 554 232 552 214 552 124 c 1
 553 123 558 119 568 115 c 1
 614 105 647 102 679 102 c 0
 715 102 750 106 802 108 c 1
 831 123 803 138 875 223 c 1
 884 229 890 233 896 233 c 0
 901 233 906 230 913 224 c 0
 948 190 943 163 944 139 c 0
 945 127 946 115 946 102 c 0
 946 69 939 35 904 8 c 0
 899 4 894 3 888 3 c 2
 440 3 l 2x5f
 349 3 268 23 258 29 c 0
 158 83 48 139 27 270 c 0
 21 308 17 344 17 378 c 0
 17 455 36 524 93 596 c 0
 174 697 271 757 401 757 c 0
 413 757 425 757 437 756 c 0
 442 756 451 754 452 754 c 2
 532 754 l 2
 669 754 718 757 754 757 c 0
 788 757 810 754 882 742 c 1
 896 737 901 733 902 719 c 0
 908.711 625.048 923 636 923 616 c 0
 923 612 922 605 920 594 c 1
 920 593 l 2
 920 585 944 591 944 574 c 0
 944 564.397 938.781 546.195 930 544 c 0
 891 532 871 528 847 528 c 0
 827 528 804 531 767 533 c 0
 760 534 755 536 750 542 c 0
 740 554 736 561 736 565 c 0
 736 576 763 568 763 580 c 0
EndSplineSet
Validated: 1
LCarets2: 1 0 
Ligature2: "'dlig' Discretionary Ligatures in Latin lookup 3-1" O E
EndChar

StartChar: oe
Encoding: 339 339 132
Width: 586
VWidth: 1000
Flags: W
HStem: 26 128<369.382 478.873> 298 70<381.619 455.662> 305 244<324 363 401.539 526.107> 429 122<171.181 248.673> 444 107<395.479 462.716>
VStem: 20 107<189.54 377.142> 250 74<233.471 304.29> 463 120<368.909 443.629> 484 100<156.156 211.974>
LayerCount: 2
Fore
SplineSet
250 284 m 0x96
 250 309.51 263 379.519 263 403 c 0
 263 426 256 423 249 428 c 1
 242 429 236 429 229 429 c 0
 190 429 161.124 409.952 144 366 c 0
 133.079 337.969 127 306 127 276 c 0
 127 212 154 154 218 146 c 1
 236 147 l 1
 246 151 249 155 250 165 c 1
 250 182 257 203 257 225 c 0
 257 231 257 237 255 244 c 0
 251 259 250 271 250 284 c 0x96
399 298 m 1xcf
 324 305 l 1xa7
 324 303 341 267 345 242 c 0
 351.078 204.012 355.041 187.049 378 168 c 0
 390.021 158.026 398 159 426 156 c 0
 441 155 451 154 458 154 c 0
 477 154 475 161 484 189 c 0
 492 212 510 222 529 222 c 0
 556 222 584 202 584 171 c 0
 584 170 584 169 584 168 c 0
 582 114 578.961 106.023 564 81 c 0
 535.926 34.044 495 26 466 26 c 0
 451 26 439 28 433 28 c 0
 406 28 391 29 366 31 c 0
 365 31 364 31 363 31 c 0
 352 31 341 27 320 27 c 0
 315 27 310 27 305 27 c 0
 287 27 274 28 257 28 c 0
 253 28 244 27 231 27 c 0
 200 27 148 33 101 77 c 0
 50.6427 123.161 20 181.73 20 271 c 0
 20 299 24 327 33 358 c 0
 50 416 68.0504 460.936 120 502 c 0
 173.051 543.935 233 551 281 551 c 0x8e80
 304 551 325 549 341 549 c 2
 348 549 l 2xa680
 370 549 389 551 411 551 c 0
 425 551 440 550 458 547 c 0
 491 540 536 538 561 488 c 0
 577 456 583 431 583 407 c 0
 583 387 578.945 367.021 571 346 c 0
 564.958 330.016 552 305 522 302 c 0
 518 301 453 298 399 298 c 1xcf
463 425 m 0
 463 439.16 456.086 444 445 444 c 0
 435 444 422 438 404 426 c 0
 389 417 363 411 363 404 c 0
 363 403 364 401 367 399 c 0
 388 386 416 368 435 368 c 0xcf
 446 368 455 374 458 390 c 0
 461 406 463 417 463 425 c 0
EndSplineSet
Validated: 1
LCarets2: 1 0 
Ligature2: "'dlig' Discretionary Ligatures in Latin lookup 3-1" o e
EndChar

StartChar: Rcommaaccent
Encoding: 342 342 133
Width: 777
Flags: W
HStem: 7 21G<653 683> 21 124<72.4219 119.937 310.973 388.182> 622 116<52.2344 122.228> 631 116<180.117 405.821>
VStem: 125 165<150 311.282> 130 177<426.728 623.946> 213.8 128<-172.824 -122.495> 448 189<466.403 591.602>
LayerCount: 2
Fore
SplineSet
313 626 m 1x15
 309 582 307 550 307 521 c 0
 307 490 309 462 314 425 c 1
 316 424 318 423 322 423 c 0
 334 423 356 433 390 446 c 0
 416 456 425 461 433 478 c 0
 443 497 448 513 448 529 c 0
 448 545 443 560 434 579 c 1
 421 603 407 611 374 622 c 0x25
 357 627 348 631 338 631 c 0
 331 631 324 629 313 626 c 1x15
165.8 -254.4 m 0
 153.156 -254.4 143.4 -243.598 143.4 -232.8 c 0
 143.4 -203.2 213.8 -174.4 213.8 -128.8 c 0
 213.8 -128 213.8 -127.2 213.8 -126.4 c 0x93
 205 -120.8 173.8 -129.6 147.4 -95.2002 c 0
 133 -77.5996 128.2 -59.2002 128.2 -40.7998 c 0
 128.2 -22.308 132.538 -4.68816 137.614 11.0678 c 1
 114.705 13.1915 89.2612 16.4595 60 21 c 0
 46 23 26 44 26 71 c 0
 26 91 36 113 65 135 c 1
 68 136 70 137 72 139 c 1
 81 143 90 145 98 145 c 0
 107 145 115 143 119 143 c 2
 120 143 l 1
 122 222 125 271 125 277 c 2
 125 279 l 1x49
 129 344 130 436 130 512 c 0
 130 588 129 647 129 647 c 1
 119 646 131 622 92 622 c 0
 83 622 71 624 56 627 c 0
 39 630 26 652 26 677 c 0
 26 695 33 715 52 732 c 0
 57 736 62 738 68 738 c 0x65
 167 740 209 747 308 747 c 0
 412 747 499.643 740.581 586 667 c 0
 617.869 639.846 637 596 637 548 c 0
 637 474 592 391 478 341 c 1
 516 322 651 230 763 71 c 1
 766 64 768 59 768 54 c 0
 768 48 765 44 757 38 c 0
 727 16 699 7 667 7 c 0
 639 7 608 14 571 27 c 0
 567 28 564 30 561 34 c 0
 552 44 342 311 341 311 c 0
 332 311 321 309 310 309 c 0
 304 309 297 309 290 312 c 1x99
 291 231 291 269 297 150 c 1
 297 150 306 152 320 152 c 0
 342 152 377 146 396 111 c 0
 401 101 404 91 404 82 c 0
 404 61 392 41 372 26 c 1
 357.193 17.1157 329.695 17.4099 310.046 15.3906 c 1
 334.463 -14.95 341.8 -47.4077 341.8 -83.2002 c 0x93
 341.8 -135.761 332.145 -169.817 297 -203.2 c 0
 263.358 -235.156 255.4 -252 165.8 -254.4 c 0
EndSplineSet
Validated: 1
EndChar

StartChar: rcommaaccent
Encoding: 343 343 134
Width: 403
Flags: W
HStem: 321 211<267.884 349.017>
VStem: 74 156<141 358.2> 132.8 128<-180.824 -130.495>
LayerCount: 2
Fore
SplineSet
84.7998 -262.4 m 0xa0
 72.1564 -262.4 62.4004 -251.598 62.4004 -240.8 c 0
 62.4004 -211.2 132.8 -182.4 132.8 -136.8 c 0
 132.8 -136 132.8 -135.2 132.8 -134.4 c 0xa0
 124 -128.8 92.7998 -137.6 66.4004 -103.2 c 0
 52 -85.5996 47.2002 -67.2002 47.2002 -48.7998 c 0
 47.2002 -29.919 51.6086 -12.114 56.9038 3.95657 c 1
 38.2021 11.1818 23 37.1768 23 61 c 0
 23 69 24 77 28 84 c 0
 42 112 57 122 66 122 c 0
 68 122 70 121 71 119 c 1
 73 152 74 177 74 198 c 0
 74 230 72 256 72 295 c 0
 72 311 72 329 73 350 c 1
 60 352 16 371 16 412 c 0
 16 417 17 421 20 425 c 0
 52 477 63 502 111 520 c 0
 121 524 130 525 139 525 c 0
 165 525 185 512 189 510 c 0
 198 506 204 499 217 494 c 1
 223 502 224 532 283 532 c 2
 297 532 l 1
 353 528 376.882 479.971 387 439 c 0
 387.988 434.997 390 427 390 416 c 0
 390 402 386 382 372 362 c 0
 366 353 343 321 310 321 c 0
 307 321 304 321 301 322 c 0
 265 330 262 354 238 384 c 1
 236 373 230 348 230 343 c 2
 230 210 l 2xc0
 230 190 230 169 229 141 c 1
 232 146 235 149 237 149 c 0
 247.212 149 262 103.481 262 85 c 0
 262 70 258 54 246 41 c 0
 241.038 35.3759 228.085 31.0651 210.438 27.235 c 1
 214.32 23.586 218.041 19.8132 221.6 16 c 0
 252 -16.7998 260.8 -52 260.8 -91.2002 c 0
 260.8 -143.761 251.145 -177.817 216 -211.2 c 0
 182.358 -243.156 174.4 -260 84.7998 -262.4 c 0xa0
EndSplineSet
Validated: 1
EndChar

StartChar: Scedilla
Encoding: 350 350 141
Width: 502
Flags: W
HStem: 660 87<201.933 293.998>
VStem: 25 152<492.017 634.681> 364 129<141.866 270>
LayerCount: 2
Fore
SplineSet
364.994 20.5549 m 1
 374.558 3.30655 381 -20.8478 381 -39.333 c 0
 381 -52.9336 378.6 -67.333 376.2 -81.7334 c 0
 366.6 -128.934 353.8 -162.533 318.6 -200.133 c 0
 301.8 -217.733 283.4 -234.533 251.4 -236.133 c 1
 243.4 -236.133 l 2
 219.72 -236.133 177 -230.158 177 -188.934 c 0
 177 -146.533 238.6 -137.733 244.2 -125.733 c 0
 245.8 -120.934 246.6 -117.733 246.6 -115.333 c 0
 246.6 -110.533 245 -106.533 245 -100.133 c 0
 245 -98.5332 190.6 -96.9336 185 -52.9336 c 0
 183.4 -42.5332 182.6 -32.1328 182.6 -21.7334 c 0
 182.6 -12.3353 183.364 -3.09017 185.342 5.86021 c 1
 109.628 22.6052 104.554 26.3842 27 75 c 0
 21 79 17 84 16 92 c 0
 12 129 10 154 10 175 c 0
 10 206 13 227 13 264 c 1
 14 279 31 297 60 297 c 0
 72 297 86 294 102 285 c 0
 185 241 160 157 199 130 c 0
 221 114 239 108 264 108 c 0
 272 108 282 109 292 110 c 0
 327 113 340 115 349 131 c 0
 359 148 364 165 364 182 c 0
 364 207 352.971 231.979 333 260 c 0
 300.953 304.966 254 295 180 333 c 0
 150 349 100 349 67 398 c 0
 38 442 25 486 25 530 c 0
 25 565 33 601 48 638 c 0
 67 687 101 714 149 732 c 0
 177 743 202 747 226 747 c 0
 265 747 302 736 342 729 c 1
 374 722 422 727 452 683 c 0
 455 679 457 665 457 643 c 0
 457 611 452 560 439 496 c 1
 435 485 431 480 420 477 c 0
 412 475 405 474 399 474 c 0
 316 474 330 619 290 641 c 0
 269 653 253 660 239 660 c 0
 231 660 224 657 217 652 c 0
 189 631 177 602 177 570 c 0
 177 546 184 520 197 495 c 0
 213 466 244 474 297 448 c 0
 339 428 407.813 435.868 452 373 c 0
 480.878 331.914 493 291 493 249 c 0
 493 209 482 168 465 127 c 0
 444.996 76.0806 413.394 43.4058 364.994 20.5549 c 1
EndSplineSet
Validated: 1
EndChar

StartChar: scedilla
Encoding: 351 351 142
Width: 362
Flags: W
HStem: 417 115<147.497 217.708>
VStem: 206 144<122.279 196.542>
LayerCount: 2
Fore
SplineSet
272.967 37.3988 m 1
 286.437 19.9447 298 -11.2085 298 -36.333 c 0
 298 -49.9336 295.6 -64.333 293.2 -78.7334 c 0
 283.6 -125.934 270.8 -159.533 235.6 -197.133 c 0
 218.8 -214.733 200.4 -231.533 168.4 -233.133 c 1
 160.4 -233.133 l 2
 136.72 -233.133 94 -227.158 94 -185.934 c 0
 94 -143.533 155.6 -134.733 161.2 -122.733 c 0
 162.8 -117.934 163.6 -114.733 163.6 -112.333 c 0
 163.6 -107.533 162 -103.533 162 -97.1328 c 0
 162 -95.5332 107.6 -93.9336 102 -49.9336 c 0
 100.4 -39.5332 99.5996 -29.1328 99.5996 -18.7334 c 0
 99.5996 -5.99446 101.004 6.46343 104.932 18.2872 c 1
 82.3326 23.0409 52.2209 29.7109 33 59 c 0
 18 82 10 105 10 130 c 0
 10 155.552 29.2559 220 57 220 c 0
 95 220 135 116 164 116 c 2
 165 116 l 1
 189 118 205 138 206 166 c 1
 206 168 l 2
 206 181 196 188 169 208 c 1
 143 230 73.1756 204.095 38 269 c 0
 20.0894 302.048 15 322 15 353 c 0
 15 359 16 366 16 373 c 0
 19 443 64 482 115 512 c 0
 137 526 160 532 183 532 c 0
 195 532 207 530 220 527 c 0
 262 516 298.866 493.949 316 449 c 0
 320.961 435.985 324 425 324 414 c 0
 324 393.667 304.049 324 279 324 c 0
 251 324 226 392 217 397 c 0
 196 411 188 417 181 417 c 0
 179 417 178 417 176 416 c 0
 156 410 146 399 146 387 c 0
 146 385 147 384 147 382 c 0
 152 360 189 376 235 340 c 0
 273 309 320 289 341 226 c 0
 347 207 350 188 350 170 c 0
 350 138 341 108 321 79 c 0
 306.869 58.9435 290.444 46.2 272.967 37.3988 c 1
EndSplineSet
Validated: 1
EndChar

StartChar: Tcedilla
Encoding: 354 354 145
Width: 889
Flags: W
HStem: 634 110<176.972 326.831>
VStem: 306 183<168.998 416.779> 334 172<364.574 621.072>
LayerCount: 2
Fore
SplineSet
595.075 31.8269 m 1xc0
 621.27 14.7394 641 -22.9095 641 -61.333 c 0
 641 -74.9336 638.6 -89.333 636.2 -103.733 c 0
 626.6 -150.934 613.8 -184.533 578.6 -222.133 c 0
 561.8 -239.733 543.4 -256.533 511.4 -258.133 c 1
 503.4 -258.133 l 2
 479.72 -258.133 437 -252.158 437 -210.934 c 0
 437 -168.533 498.6 -159.733 504.2 -147.733 c 0
 505.8 -142.934 506.6 -139.733 506.6 -137.333 c 0
 506.6 -132.533 505 -128.533 505 -122.133 c 0
 505 -120.533 450.6 -118.934 445 -74.9336 c 0
 443.4 -64.5332 442.6 -54.1328 442.6 -43.7334 c 0
 442.6 -27.8373 444.787 -12.3787 451.335 1.95608 c 1
 384.262 3.91152 321.429 9.86629 218 28 c 0
 201 31 181 57 181 85 c 0
 181 98 185 110 194 122 c 0
 212 146 240 152 263 152 c 0
 287 152 307 145 307 145 c 1
 307 166 306 185 306 203 c 0xc0
 306 403 334 369 334 502 c 0
 334 534 333 573 329 626 c 1
 311 627 275 634 218 634 c 2
 198 634 l 1
 145 604 203 567 108 441 c 1
 103.237 431.475 84.8613 426 76 426 c 0
 40 426 14 481 7 502 c 0
 6 506 6 510 7 515 c 0
 40 654 14 592 49 702 c 0
 50 706 52 709 55 712 c 0
 82 739 110 736 127 738 c 0
 159 743 188 744 215 744 c 0
 292 744 353 730 438 730 c 0
 517 730 575 747 646 747 c 0
 673 747 701 745 733 738 c 0
 758 733 774 722 781 715 c 0
 839 656 795 699 871 529 c 0
 872 527 872 524 872 521 c 0
 872 498 844 454 799 454 c 0
 785.504 454 774.391 457.012 768 465 c 0
 662 604 708 625 667 642 c 1
 620 632 542 623 506 621 c 1xa0
 506 529 489 458 489 360 c 0
 489 293 496.123 224.031 523 117 c 0
 524.004 113.001 526 112 530 112 c 0
 539 112 555 123 569 123 c 0
 592.609 123 603 85.8311 603 66 c 0
 603 54.3088 600.458 42.6176 595.075 31.8269 c 1xc0
EndSplineSet
Validated: 1
EndChar

StartChar: tcedilla
Encoding: 355 355 146
Width: 352
Flags: W
HStem: 379 129<204 319.621>
VStem: 57 139<124.191 378.395>
LayerCount: 2
Fore
SplineSet
273.792 35.4165 m 1
 293.736 17.7288 310 -17.5614 310 -50.333 c 0
 310 -63.9336 307.6 -78.333 305.2 -92.7334 c 0
 295.6 -139.934 282.8 -173.533 247.6 -211.133 c 0
 230.8 -228.733 212.4 -245.533 180.4 -247.133 c 1
 172.4 -247.133 l 2
 148.72 -247.133 106 -241.158 106 -199.934 c 0
 106 -157.533 167.6 -148.733 173.2 -136.733 c 0
 174.8 -131.934 175.6 -128.733 175.6 -126.333 c 0
 175.6 -121.533 174 -117.533 174 -111.133 c 0
 174 -109.533 119.6 -107.934 114 -63.9336 c 0
 112.4 -53.5332 111.6 -43.1328 111.6 -32.7334 c 0
 111.6 -13.5341 114.79 5.02672 125.001 21.7404 c 1
 97.4136 34.0787 76.08 56.1181 61 81 c 0
 58 85 57 89 57 94 c 2
 57 371 l 1
 46.0791 378.281 10 399.396 10 434 c 0
 10 457 24 479 26 481 c 0
 126 588 62 514 121 582 c 0
 126 588 136 592 146 592 c 0
 163 592 183 583 194 564 c 0
 204 548 207 535 207 526 c 0
 207 518 205 512 204 508 c 1
 212 508 l 2
 226 508 252 506 303 503 c 0
 322 501 341 473 341 441 c 0
 341 423 335 404 320 387 c 1
 312 380 299 378 279 378 c 0
 263 378 242 379 217 379 c 0
 210 379 203 379 196 379 c 1
 196 329 l 2
 196 298 195 292 194 189 c 1
 205 136 201 128 213 124 c 0
 214 124 237 143 267 143 c 0
 295.934 143 313 128.221 313 108 c 0
 313 76.2635 292.539 51.653 273.792 35.4165 c 1
EndSplineSet
Validated: 1
EndChar

StartChar: Tbar
Encoding: 358 358 149
Width: 883
VWidth: 1080
Flags: W
HStem: -1 154<209.207 308.849> 2 106<525.094 570.343> 331 141<162.405 318 522.148 563.622> 641 109<179.23 328.831>
VStem: 308 213<142.166 328.987> 318 206<207.238 331.955> 334 174<479.694 628.478>
LayerCount: 2
Fore
SplineSet
571 119 m 0x78
 594.07 119 605 82.6282 605 64 c 0
 605 43 596 23 576 7 c 0
 571 3 566 2 560 2 c 0x78
 504 2 460 -1 414 -1 c 0
 360 -1 303 2 220 17 c 0
 200 20 183 49 183 79 c 0
 183 93 187.036 105.973 196 118 c 0
 216.08 144.94 245 153 268 153 c 0
 289 153 306 146 309 141 c 1
 309 159 308 174 308 187 c 0xb8
 308 249 312 267 318 332 c 1xb4
 312 332 300 331 283 331 c 0
 248 331 195 335 139 363 c 0
 117 374 108 387 108 401 c 0
 108 455.533 224.521 472 266 472 c 0
 295 472 317 468 330 468 c 1
 332 492 334 523 334 555 c 0
 334 581 333 607 331 632 c 1
 312 634 293 641 233 641 c 0
 223 641 212 640 200 640 c 1
 147 610 205 573 110 448 c 1
 104.922 437.844 87.9247 432 78 432 c 0
 42 432 16 487 9 508 c 0
 8 512 8 516 9 521 c 0
 42 660 16 598 51 708 c 0
 52 712 54 715 57 718 c 0
 84 745 112 742 129 744 c 0
 161 749 190 750 217 750 c 0
 294 750 355 736 440 736 c 0
 519 736 577 753 648 753 c 0
 675 753 703 751 735 744 c 0
 760 739 776 728 783 721 c 0
 841 662 797 706 873 535 c 0
 874 533 874 530 874 527 c 0
 874 504 846 460 801 460 c 0
 787.504 460 776.391 463.011 770 471 c 0
 664 610 710 631 669 648 c 1
 596 632 546 630 508 627 c 1xb2
 508 496 509 515 511 478 c 1
 517 476 525 475 532 475 c 0
 544 475 556 477 564 477 c 0
 618 474 659.949 474.895 701 455 c 0
 727.967 441.931 745 422 745 403 c 0
 745 388 736 374 714 363 c 0
 666 338 614 334 574 334 c 0
 554 334 538 335 526 335 c 2
 522 335 l 1
 524 327 524 318 524 309 c 0xb4
 524 284 521 253 521 205 c 0
 521 180 522 149 525 113 c 1
 527 110 529 108 533 108 c 0
 542 108 557 119 571 119 c 0x78
EndSplineSet
Validated: 1
EndChar

StartChar: tbar
Encoding: 359 359 150
Width: 358
VWidth: 1080
Flags: W
HStem: 9 115<219 271.554> 150 117<206.107 320.273> 379 129<212 333.125>
VStem: 63 140<265.001 369.031>
LayerCount: 2
Fore
SplineSet
340 206 m 0
 340 159.097 267.169 150 229 150 c 2
 206 150 l 1
 219 124 l 2
 220 124 242 143 273 143 c 0
 278 143 284 142 290 141 c 0
 313 136 320 123 320 108 c 0
 320 88 307 66 303 59 c 0
 292 42 282 37 267 24 c 1
 249.988 12.6584 220.093 9 200 9 c 0
 133.57 9 94.9299 37.1102 67 81 c 0
 64 85 63 89 63 94 c 0
 64 124 64 146 64 157 c 1
 54 160 39 165 29 173 c 0
 16 182 11 194 11 204 c 0
 11 221 23 238 37 246 c 0
 54 256 60 250 63 258 c 1
 63 326 l 1
 57 329 32 390 21 413 c 1
 20 414 l 1
 17 421 15 429 15 435 c 0
 15 452 24 466 27 473 c 0
 28 476 30 479 32 481 c 0
 132 588 69 514 127 582 c 0
 131 587 136 590 142 591 c 0
 145 591 148 592 151 592 c 0
 189.714 592 213 554.624 213 518 c 0
 213 514 212 511 212 508 c 1
 220 508 l 2
 236 508 261 506 309 503 c 1
 334.875 499.304 347 462.48 347 441 c 0
 347 420.425 334.859 379 308 379 c 1
 283 378 268 378 258 378 c 0
 242 378 239 379 227 379 c 0
 221 379 214 378 203 378 c 1
 203 378 203 377 201 376 c 1
 202 351 203 335 203 316 c 0
 203 303 202 288 202 267 c 1
 204 266 206 265 209 265 c 0
 215 265 223 267 233 267 c 2
 240 267 l 1
 264 265 291 267 315 249 c 1
 330 239 340 222 340 206 c 0
EndSplineSet
Validated: 1
EndChar

StartChar: Uogonek
Encoding: 370 370 161
Width: 832
Flags: W
HStem: -200 104<447.286 500.156> 623 140<311.821 403.17> 639 122<539.773 610.094 749.754 798.699>
VStem: 94 192<239.576 644.037> 330 86<-124.936 -38.235> 610 141<237.383 647>
LayerCount: 2
Fore
SplineSet
42 616 m 0xbc
 17.2071 616 3 644.519 3 668 c 0
 3 701 25 739 72 754 c 0
 74 754 77 755 79 755 c 0
 191 759 226 763 252 763 c 0
 280 763 297.977 757.815 391 746 c 0
 406.996 743.968 438 712 438 679 c 0
 438 667 434 654 424 643 c 0
 411 628 395 623 378 623 c 0xdc
 342 623 305 647 302 654 c 1
 297 525 286 486 286 427 c 0
 286 387 291 337 306 243 c 1
 332.06 185.214 361.119 145 434 145 c 0
 503 145 561 188 594 232 c 1
 607 348 610 389 610 417 c 0
 610 442 608 458 608 507 c 0
 608 538 609 581 612 648 c 1
 608 644 593 639 577 639 c 0
 548.083 639 515 655.171 515 691 c 0
 515 722 544 746 565 757 c 0
 569 759 573 761 578 761 c 0
 638 762 660 762 672 762 c 0
 692 762 687 761 767 758 c 0
 783 757 821 727 821 691 c 0
 821 683 818 674 813 665 c 0
 803 650 782 643 766 643 c 0
 758 643 752 645 749 647 c 1
 747 610 746 582 746 559 c 0
 746 503 751 474 751 409 c 0
 751 356 747 278 736 140 c 0
 736 137 735 134 733 131 c 0
 704 78 659 57 606 39 c 0
 561 24 520 12 480 6 c 1
 482 2 482 -2 482 -6 c 0
 482 -31 448 -21 435 -39 c 0
 420 -59 416 -78 416 -92 c 0
 416 -109 422 -120 426 -124 c 0
 428 -125 425 -125 436 -126 c 0
 447 -127 444 -130 447 -119 c 1
 453 -103 466 -96 479 -96 c 0
 497 -96 515 -110 515 -130 c 0
 515 -131 515 -132 515 -133 c 0
 511 -198 467 -200 440 -200 c 2
 424 -200 l 2
 410 -200 387 -198 366 -178 c 0
 340 -154 330 -124 330 -94 c 0
 330 -56 348 -19 370 2 c 1
 333 5 295 13 254 25 c 0
 184 46 162 93 118 126 c 1
 113 131 110 136 109 143 c 0
 99 299 94 429 94 521 c 0
 94 581 96 624 100 647 c 1
 89 644 66 616 42 616 c 0xbc
EndSplineSet
Validated: 1
EndChar

StartChar: uogonek
Encoding: 371 371 162
Width: 498
Flags: W
HStem: -204 104<369.286 422.156> 11 146<169.5 267.981> 397 136<52 128> 413 122<246.787 301.903>
VStem: 8 194<408.692 493.865> 57 145<165.585 213 216 399> 57 1<213 216> 252 86<-128.936 -42.2809> 303 135<166.979 415>
LayerCount: 2
Fore
SplineSet
401 7 m 1xd480
 403 0 404 -5 404 -10 c 0
 404 -35 370 -25 357 -43 c 0
 342 -63 338 -82 338 -96 c 0
 338 -113 344 -124 348 -128 c 0
 350 -129 347 -129 358 -130 c 0
 369 -131 366 -134 369 -123 c 1
 375 -107 388 -100 401 -100 c 0
 419 -100 437 -114 437 -134 c 0
 437 -135 437 -136 437 -137 c 0
 433 -202 389 -204 362 -204 c 2
 346 -204 l 2
 332 -204 309 -202 288 -182 c 0
 262 -158 252 -128 252 -98 c 0
 252 -58 272 -18 296 1 c 0
 299 4 304 8 312 14 c 1
 301 23 297 35 294 42 c 1
 267 36 226 11 182 11 c 0
 157 11 131 18 106 40 c 0
 66 76 58 126 58 131 c 2
 58 216 l 1xd3
 58 216 58 213 57 213 c 1
 57 399 l 1xd4
 56 398 54 397 52 397 c 0
 37 397 8 424 8 453 c 0
 8 461 10.0213 467.987 15 476 c 0
 36.09 509.944 85 533 128 533 c 0xe8
 158 533 185 522 198 496 c 0
 201 490 202 452 202 399 c 0
 202 338 201 258 201 185 c 1
 205 178 229 157 254 157 c 0
 271 157 290 167 303 200 c 1
 303 324 302 415 302 415 c 1
 300 414 294 413 288 413 c 0
 271 413 245 418 233 438 c 0
 227 447 225 457 225 466 c 0
 225 482 232 497 241 507 c 0
 264 535 295 533 314 535 c 0
 328 537 341 538 354 538 c 0
 374 538 394 535 417 525 c 0
 423 523 456 516 461 484 c 0
 461 482 462 479 462 477 c 0
 462 457 450 440 442 440 c 0
 440 440 439 441 438 442 c 1
 438 171 l 1
 462 140 442 162 481 132 c 1
 487 124 491 118 491 112 c 0
 491 107 489 103 485 97 c 0
 455 56 437 35 396 17 c 1
 401 7 l 1xd480
EndSplineSet
Validated: 1
EndChar

StartChar: uni1EA4
Encoding: 7844 7844 246
Width: 811
Flags: W
HStem: 5 165<450.747 533.206> 261 110<360.767 495.273> 732 20G<444.5 468.5> 749 21G<500.5 518> 914 86<636.49 666.535>
LayerCount: 2
Fore
SplineSet
400 492 m 0xc8
 388 458 376 414 360 384 c 1
 376 374 392 371 410 371 c 0
 433 371 460 376 497 380 c 1
 497 391 477.173 423.068 463 459 c 0
 453.12 484.047 435 536 433 554 c 1
 420 521 400 495 400 492 c 0xc8
534 159 m 0
 541 159 550 160 550 169 c 0
 549 180 546 208 543 231 c 0
 543 233 542 258 509 263 c 1
 485 261 466 261 449 261 c 0
 421 261 398 262 372 262 c 0
 354 262 334 261 310 259 c 1
 293 245 292 220 292 197 c 2
 292 190 l 1
 295 191 300 192 305 192 c 0
 319 192 337 187 350 171 c 0
 354 166 356 162 356 156 c 0
 357 133 358 114 358 97 c 0
 358 72 355 50 340 35 c 0
 319 14 296 8 274 8 c 0
 245 8 216 19 193 19 c 0
 192 19 191 19 190 19 c 0
 151 17 139 17 113 16 c 0
 109 15 101 10 89 10 c 0
 78 10 63 14 44 27 c 0
 41 30 38 32 37 35 c 1
 34 39 9 52 9 86 c 2
 9 88 l 1
 11 137 41 166 77 187 c 0
 91 195 104 198 115 198 c 0
 132 198 143 192 143 188 c 1
 163 225 186 306 188 315 c 1
 188 317 l 1
 269 573 265 524 362 712 c 0
 364 717 368 721 373 723 c 0
 400 737 429 752 460 752 c 0xe8
 477 752 506 747 517 731 c 0
 565 660 566 642 588 581 c 0
 649 406 655 301 697 184 c 1
 703 176 760 181 791 124 c 0
 799 110 806 90 806 71 c 0
 806 56 801 40 788 28 c 0
 777 18 760 14 757 14 c 0
 720 6 687 6 652 6 c 2
 639 6 l 2
 616 6 579 4 558 4 c 0
 536 4 519 5 468 5 c 0
 433 5 420 31 420 62 c 0
 420 93 433 129 450 147 c 0
 466 165 478 170 489 170 c 0
 504 170 517 159 534 159 c 0
669 936 m 0
 663 912 659 917 638 914 c 0
 637.543 914.07 637.029 914.105 636.463 914.105 c 0
 620.929 914.105 565.276 888.191 518 866 c 1
 524 852 528 838 534 822 c 1
 539 805 544 790 548 774 c 0
 549 772 549 771 549 770 c 0
 549 756 528 749 508 749 c 0
 493 749 478 753 474 761 c 0
 470 769 468 791 460 804 c 1
 458 795 454 782 453 770 c 0xd8
 451 758 434 754 415 754 c 0
 394 754 371 760 371 774 c 0
 371 775 372 776 372 778 c 0
 382 806 390 824 407 856 c 1
 399.5 865.5 394.25 877.25 394.25 888 c 0
 394.25 898.75 399.5 908.5 413 914 c 1
 438 927 463 938 491 950 c 0
 538 969 563 986 626 1000 c 0
 630 1001 632 1001 635 1000 c 0
 658.939 996.01 671.416 978.649 671.416 955.029 c 0
 671.416 949.049 670.616 942.667 669 936 c 0
EndSplineSet
Validated: 1
EndChar

StartChar: uni1EA6
Encoding: 7846 7846 248
Width: 811
Flags: W
HStem: 5 165<450.747 533.206> 261 110<360.767 495.273> 732 20G<444.5 468.5> 910 86<305.465 336.045>
VStem: 474 75<756.261 807.43>
LayerCount: 2
Fore
SplineSet
400 492 m 0
 388 458 376 414 360 384 c 1
 376 374 392 371 410 371 c 0
 433 371 460 376 497 380 c 1
 497 391 477.173 423.068 463 459 c 0
 453.12 484.047 435 536 433 554 c 1
 420 521 400 495 400 492 c 0
534 159 m 0
 541 159 550 160 550 169 c 0
 549 180 546 208 543 231 c 0
 543 233 542 258 509 263 c 1
 485 261 466 261 449 261 c 0
 421 261 398 262 372 262 c 0
 354 262 334 261 310 259 c 1
 293 245 292 220 292 197 c 2
 292 190 l 1
 295 191 300 192 305 192 c 0
 319 192 337 187 350 171 c 0
 354 166 356 162 356 156 c 0
 357 133 358 114 358 97 c 0
 358 72 355 50 340 35 c 0
 319 14 296 8 274 8 c 0
 245 8 216 19 193 19 c 0
 192 19 191 19 190 19 c 0
 151 17 139 17 113 16 c 0
 109 15 101 10 89 10 c 0
 78 10 63 14 44 27 c 0
 41 30 38 32 37 35 c 1
 34 39 9 52 9 86 c 2
 9 88 l 1
 11 137 41 166 77 187 c 0
 91 195 104 198 115 198 c 0
 132 198 143 192 143 188 c 1
 163 225 186 306 188 315 c 1
 188 317 l 1
 269 573 265 524 362 712 c 0
 364 717 368 721 373 723 c 0
 400 737 429 752 460 752 c 0
 477 752 506 747 517 731 c 0
 565 660 566 642 588 581 c 0
 649 406 655 301 697 184 c 1
 703 176 760 181 791 124 c 0
 799 110 806 90 806 71 c 0
 806 56 801 40 788 28 c 0
 777 18 760 14 757 14 c 0
 720 6 687 6 652 6 c 2
 639 6 l 2
 616 6 579 4 558 4 c 0
 536 4 519 5 468 5 c 0
 433 5 420 31 420 62 c 0
 420 93 433 129 450 147 c 0
 466 165 478 170 489 170 c 0
 504 170 517 159 534 159 c 0
303 932 m 0
 301.384 938.667 300.584 945.049 300.584 951.029 c 0
 300.584 974.649 313.061 992.01 337 996 c 0
 340 997 342 997 346 996 c 0
 409 982 434 965 481 946 c 0
 509 934 534 923 559 910 c 0
 572.52 904.026 577.835 894.196 577.835 883.495 c 0
 577.835 860.162 552.567 832.686 532 832 c 1
 538 814 544 796 548 779 c 0
 549 778 549 776 549 775 c 0
 549 761 528 754 508 754 c 0
 493 754 478 758 474 766 c 0
 470 774 468 796 460 808 c 1
 458 800 454 786 453 775 c 0
 451 764 434 758 415 758 c 0
 394 758 371 766 371 778 c 0
 371 780 372 782 372 783 c 0
 384 815 393 835 416 880 c 1
 381.236 895.973 348.238 910.18 336.082 910.18 c 0
 335.3 910.18 334.604 910.121 334 910 c 0
 313 913 309 908 303 932 c 0
EndSplineSet
Validated: 1
EndChar

StartChar: uni1EA8
Encoding: 7848 7848 250
Width: 811
Flags: W
HStem: 5 165<450.747 533.206> 261 110<360.767 495.273> 732 20G<444.5 460.795> 750 21G<408.938 423.938> 750 21G<408.938 423.938> 880.5 115.5<428.131 476.897>
VStem: 384 61.5<750.815 787.178>
LayerCount: 2
Fore
SplineSet
400 492 m 1xc6
 387.597 458.336 376.062 414.339 360 384 c 1
 376 374 392 371 410 371 c 0
 433 371 460 376 497 380 c 1
 497 391 477.173 423.068 463 459 c 0
 453.12 484.047 435 536 433 554 c 1
 420 521 400 495 400 492 c 1xc6
417.75 932.25 m 0
 417.75 965.66 430.647 996 465.75 996 c 0
 484.5 996 501 984 515.25 968.25 c 0
 534 948 540 928.5 540 903.75 c 0
 540 898.5 539.25 894 539.25 888.75 c 0
 537.75 863.25 531.75 846 513 828 c 2
 500.894 815.804 l 1
 505.875 801.375 l 2
 510.287 788.594 514.125 777 517.125 765.375 c 0
 517.5 764.25 517.5 763.125 517.5 762.375 c 0
 517.5 753.142 505.322 747.968 492.184 746.854 c 1
 501.188 743.704 511.717 738.87 517 731 c 0
 564.768 659.844 566 642 588 581 c 0
 649 406 655 301 697 184 c 1
 703 176 760 181 791 124 c 0
 799 110 806 90 806 71 c 0
 806 56 801 40 788 28 c 0
 777 18 760 14 757 14 c 0
 720 6 687 6 652 6 c 2
 639 6 l 2
 615.923 6 578.585 4 558 4 c 0
 536 4 519 5 468 5 c 0
 433 5 420 31 420 62 c 0
 420 93 433 129 450 147 c 0
 466 165 478 170 489 170 c 0
 504 170 517 159 534 159 c 0
 541.3 159 550 159.934 550 169 c 0
 549 180 546 208 543 231 c 0
 543 233 542 258 509 263 c 1
 485 261 466 261 449 261 c 0
 421 261 398 262 372 262 c 0
 354 262 334 261 310 259 c 1
 293 245 292 220 292 197 c 2
 292 190 l 1
 295 191 300 192 305 192 c 0
 319 192 337 187 350 171 c 0
 354 166 356 162 356 156 c 0
 357 133 358 114 358 97 c 0
 358 71.8203 354.561 49.5606 340 35 c 0
 319 14.0002 296 8 274 8 c 0
 245 8 216 19 193 19 c 0
 192 19 191 19 190 19 c 0
 151 17 139 17 113 16 c 0
 109 15 101 10 89 10 c 0
 78 10 63 14 44 27 c 0
 41 30 38 32 37 35 c 1
 34 39 9 52 9 86 c 2
 9 88 l 1
 11 137 41 166 77 187 c 0
 91 195 104 198 115 198 c 0
 132 198 143 192 143 188 c 1
 163 225 186 306 188 315 c 1
 188 317 l 1
 269 573 265 524 362 712 c 0
 364 717 368 721 373 723 c 0
 400 737 429 752 460 752 c 0xe6
 461.59 752 463.181 751.97 464.772 751.907 c 1
 457.143 757.574 458.229 775.814 450.75 787.5 c 1
 449.25 781.125 446.625 771 445.5 762.375 c 0
 444 753.75 430.875 750 417 750 c 0xd6
 400.875 750 384 755.25 384 765 c 0
 384 766.125 384.375 767.25 384.75 768.375 c 0
 394.875 795.75 402 810.375 424.875 854.625 c 0
 425.625 856.5 427.125 857.625 429 858.375 c 0
 438.75 863.25 448.875 868.875 460.125 868.875 c 0
 464.043 868.875 471.398 867.775 476.337 865.078 c 1
 476.768 868.295 477 871.681 477 875.25 c 2
 477 880.5 l 1
 452.25 895.5 441 885.75 427.5 902.25 c 0
 420 912 417.75 921 417.75 932.25 c 0
EndSplineSet
Validated: 1
EndChar

StartChar: uni1EAA
Encoding: 7850 7850 252
Width: 811
Flags: W
HStem: 5 165<450.747 533.206> 261 110<360.767 495.273> 732 20G<444.5 468.602> 925 70.5<394.848 456.555>
VStem: 371 82<761.076 808.07> 474.5 74.5<756.261 807.907>
LayerCount: 2
Fore
SplineSet
400 492 m 1
 387.597 458.336 376.062 414.339 360 384 c 1
 376 374 392 371 410 371 c 0
 433 371 460 376 497 380 c 1
 497 391 477.173 423.068 463 459 c 0
 453.12 484.047 435 536 433 554 c 1
 420 521 400 495 400 492 c 1
460 808.5 m 1
 458 800 454.5 786.5 453 775 c 0
 451 763.5 433.5 758.5 415 758.5 c 0
 393.5 758.5 371 765.5 371 778.5 c 0
 371 780 371.5 781.5 372 783 c 0
 385.5 819.5 395 839 425.5 898 c 0
 426.5 900.5 428.5 902 431 903 c 0
 439.35 907.175 447.905 911.762 456.932 914.51 c 1
 449.099 920.239 444.085 925 440.5 925 c 0
 439.5 925 439.5 924.25 438.5 923.5 c 0
 435.5 920.5 422.5 902.5 393.5 902.5 c 0
 391.5 902.5 388.5 903.25 385.5 903.25 c 0
 360.5 907 338.5 922.75 338.5 944.5 c 0
 339.5 969.25 370.5 977.5 377.5 980.5 c 0
 395.5 988.75 415.5 995.5 440.5 995.5 c 2
 444.5 995.5 l 1
 475.5 994 488.5 982 499.5 978.25 c 0
 520.5 972.25 521.5 969.25 521.5 970 c 0
 526.5 974.5 532.5 992.5 567.5 992.5 c 0
 590.5 992.5 621.5 982 624.5 957.25 c 0
 624.5 956.5 624.5 955.75 624.5 955 c 0
 624.5 932.5 597.5 927.25 594.5 926.5 c 0
 574.5 921.25 559.5 896.5 519.5 895 c 0
 518.5 895 517.5 895 516.5 895 c 0
 512.879 895 509.427 895.164 506.135 895.467 c 1
 519.423 870.422 524.714 851.968 533.5 827 c 0
 539.484 809.995 544.5 794.5 548.5 779 c 0
 549 777.5 549 776 549 775 c 0
 549 761 528 754 508 754 c 0
 493 754 478 758 474.5 766 c 0
 470.5 774 468 796 460 808.5 c 1
534 159 m 0
 541.3 159 550 159.934 550 169 c 0
 549 180 546 208 543 231 c 0
 543 233 542 258 509 263 c 1
 485 261 466 261 449 261 c 0
 421 261 398 262 372 262 c 0
 354 262 334 261 310 259 c 1
 293 245 292 220 292 197 c 2
 292 190 l 1
 295 191 300 192 305 192 c 0
 319 192 337 187 350 171 c 0
 354 166 356 162 356 156 c 0
 357 133 358 114 358 97 c 0
 358 71.8203 354.561 49.5606 340 35 c 0
 319 14.0002 296 8 274 8 c 0
 245 8 216 19 193 19 c 0
 192 19 191 19 190 19 c 0
 151 17 139 17 113 16 c 0
 109 15 101 10 89 10 c 0
 78 10 63 14 44 27 c 0
 41 30 38 32 37 35 c 1
 34 39 9 52 9 86 c 2
 9 88 l 1
 11 137 41 166 77 187 c 0
 91 195 104 198 115 198 c 0
 132 198 143 192 143 188 c 1
 163 225 186 306 188 315 c 1
 188 317 l 1
 269 573 265 524 362 712 c 0
 364 717 368 721 373 723 c 0
 400 737 429 752 460 752 c 0
 477.205 752 506.42 746.759 517 731 c 0
 564.77 659.845 566 642 588 581 c 0
 649 406 655 301 697 184 c 1
 703 176 760 181 791 124 c 0
 799 110 806 90 806 71 c 0
 806 56 801 40 788 28 c 0
 777 18 760 14 757 14 c 0
 720 6 687 6 652 6 c 2
 639 6 l 2
 615.923 6 578.585 4 558 4 c 0
 536 4 519 5 468 5 c 0
 433 5 420 31 420 62 c 0
 420 93 433 129 450 147 c 0
 466 165 478 170 489 170 c 0
 504 170 517 159 534 159 c 0
EndSplineSet
Validated: 1
EndChar

StartChar: uni1EB0
Encoding: 7856 7856 258
Width: 811
Flags: W
HStem: 5 165<450.747 533.206> 261 110<360.767 495.273> 732 20G<444.5 468.5> 767 55<416.618 493.673> 834.475 78.525<453.673 509.904>
LayerCount: 2
Fore
SplineSet
400 492 m 0
 388 458 376 414 360 384 c 1
 376 374 392 371 410 371 c 0
 433 371 460 376 497 380 c 1
 497 391 477.173 423.068 463 459 c 0
 453.12 484.047 435 536 433 554 c 1
 420 521 400 495 400 492 c 0
577 865 m 0
 597 865 626 858 626 836 c 0
 626 815 591 801 575 791 c 0
 552 776 519 767 482 767 c 2
 430 767 l 2
 361.913 767 292.904 800.245 275 846 c 0
 274 850 273 853 273 856 c 0
 273 877 306 883 335 883 c 0
 344 883 353 882 361 882 c 1
 324.357 897.973 291.245 912.18 279.912 912.18 c 0
 279.183 912.18 278.544 912.121 278 912 c 0
 257 915 252 910 247 934 c 0
 245.041 941.183 244.077 948.035 244.077 954.41 c 0
 244.077 977.324 256.53 994.088 280 998 c 0
 283 999 285 999 289 998 c 0
 352 984 377 968 424 948 c 0
 452 936 477 925 502 913 c 0
 515.804 906.998 521.233 896.944 521.233 886 c 0
 521.233 862.322 495.821 834.475 474.824 834.475 c 0
 458.048 834.475 436.33 847.001 406 860 c 1
 417 846 415 831 416 830 c 0
 429 827 454 822 475 822 c 0
 482 822 487 822 494 824 c 0
 507 828 507 855 555 863 c 0
 561 864 569 865 577 865 c 0
534 159 m 0
 541 159 550 160 550 169 c 0
 549 180 546 208 543 231 c 0
 543 233 542 258 509 263 c 1
 485 261 466 261 449 261 c 0
 421 261 398 262 372 262 c 0
 354 262 334 261 310 259 c 1
 293 245 292 220 292 197 c 2
 292 190 l 1
 295 191 300 192 305 192 c 0
 319 192 337 187 350 171 c 0
 354 166 356 162 356 156 c 0
 357 133 358 114 358 97 c 0
 358 72 355 50 340 35 c 0
 319 14 296 8 274 8 c 0
 245 8 216 19 193 19 c 0
 192 19 191 19 190 19 c 0
 151 17 139 17 113 16 c 0
 109 15 101 10 89 10 c 0
 78 10 63 14 44 27 c 0
 41 30 38 32 37 35 c 1
 34 39 9 52 9 86 c 2
 9 88 l 1
 11 137 41 166 77 187 c 0
 91 195 104 198 115 198 c 0
 132 198 143 192 143 188 c 1
 163 225 186 306 188 315 c 1
 188 317 l 1
 269 573 265 524 362 712 c 0
 364 717 368 721 373 723 c 0
 400 737 429 752 460 752 c 0
 477 752 506 747 517 731 c 0
 565 660 566 642 588 581 c 0
 649 406 655 301 697 184 c 1
 703 176 760 181 791 124 c 0
 799 110 806 90 806 71 c 0
 806 56 801 40 788 28 c 0
 777 18 760 14 757 14 c 0
 720 6 687 6 652 6 c 2
 639 6 l 2
 616 6 579 4 558 4 c 0
 536 4 519 5 468 5 c 0
 433 5 420 31 420 62 c 0
 420 93 433 129 450 147 c 0
 466 165 478 170 489 170 c 0
 504 170 517 159 534 159 c 0
EndSplineSet
Validated: 1
EndChar

StartChar: uni1EB2
Encoding: 7858 7858 260
Width: 811
Flags: W
HStem: 5 165<450.747 533.206> 261 110<360.767 495.273> 732 20G<444.5 468.602> 767.008 116.16<335.945 406.231> 767.008 98.4<531.078 572.082> 879.293 115.5<425.413 474.179>
LayerCount: 2
Fore
SplineSet
534 159 m 0xe0
 541.3 159 550 159.934 550 169 c 0
 549 180 546 208 543 231 c 0
 543 233 542 258 509 263 c 1
 485 261 466 261 449 261 c 0
 421 261 398 262 372 262 c 0
 354 262 334 261 310 259 c 1
 293 245 292 220 292 197 c 2
 292 190 l 1
 295 191 300 192 305 192 c 0
 319 192 337 187 350 171 c 0
 354 166 356 162 356 156 c 0
 357 133 358 114 358 97 c 0
 358 71.8203 354.561 49.5606 340 35 c 0
 319 14.0002 296 8 274 8 c 0
 245 8 216 19 193 19 c 0
 192 19 191 19 190 19 c 0
 151 17 139 17 113 16 c 0
 109 15 101 10 89 10 c 0
 78 10 63 14 44 27 c 0
 41 30 38 32 37 35 c 1
 34 39 9 52 9 86 c 2
 9 88 l 1
 11 137 41 166 77 187 c 0
 91 195 104 198 115 198 c 0
 132 198 143 192 143 188 c 1
 163 225 186 306 188 315 c 1
 188 317 l 1
 269 573 265 524 362 712 c 0
 364 717 368 721 373 723 c 0
 400 737 429 752 460 752 c 0
 477.205 752 506.42 746.759 517 731 c 0
 564.77 659.845 566 642 588 581 c 0
 649 406 655 301 697 184 c 1
 703 176 760 181 791 124 c 0
 799 110 806 90 806 71 c 0
 806 56 801 40 788 28 c 0
 777 18 760 14 757 14 c 0
 720 6 687 6 652 6 c 2
 639 6 l 2
 615.923 6 578.585 4 558 4 c 0
 536 4 519 5 468 5 c 0
 433 5 420 31 420 62 c 0
 420 93 433 129 450 147 c 0
 466 165 478 170 489 170 c 0
 504 170 517 159 534 159 c 0xe0
530.542 856.025 m 1
 541.899 861.406 558.552 865.408 577.057 865.408 c 0
 597.28 865.408 625.857 858.179 625.857 835.649 c 0
 625.857 815.008 591.457 801.088 575.457 791.008 c 0
 551.912 775.597 518.637 767.008 481.857 767.008 c 0
 473.057 767.008 465.057 767.488 456.257 767.488 c 0
 447.457 767.488 438.657 767.008 429.857 767.008 c 0xec
 391.577 767.008 358.126 776.083 332.257 791.008 c 0
 303.457 806.848 284.257 822.688 275.457 846.208 c 0
 273.857 850.048 273.057 852.928 273.057 856.288 c 0
 273.057 876.928 305.857 883.168 334.657 883.168 c 0xf0
 426.717 883.168 413.489 831.198 416.257 830.367 c 0
 428.415 827.176 433.356 824.418 452.332 822.915 c 1
 463.66 834.064 474.282 849.886 474.282 874.043 c 2
 474.282 879.293 l 1
 449.532 894.293 438.282 884.543 424.782 901.043 c 0
 417.282 910.793 415.032 919.793 415.032 931.043 c 0
 415.032 964.453 427.929 994.793 463.032 994.793 c 0xe4
 481.782 994.793 498.282 982.793 512.532 967.043 c 0
 531.282 946.793 537.282 927.293 537.282 902.543 c 0
 537.282 897.293 536.532 892.793 536.532 887.543 c 0
 535.825 875.517 534.117 865.326 530.542 856.025 c 1
400 492 m 1
 387.597 458.336 376.062 414.339 360 384 c 1
 376 374 392 371 410 371 c 0
 433 371 460 376 497 380 c 1
 497 391 477.173 423.068 463 459 c 0
 453.12 484.047 435 536 433 554 c 1
 420 521 400 495 400 492 c 1
EndSplineSet
Validated: 1
EndChar

StartChar: uni1EBE
Encoding: 7870 7870 272
Width: 682
Flags: W
HStem: 0 106<23.1855 107.243 281.05 547.745> 308 93<306.798 398.438> 589 157<69.979 131.947 472.467 496.357> 610 137<306.226 471.158> 752 21G<422.5 440> 756 21G<326.5 346.5> 838.468 77.532<270.376 319.506> 916 86<500.891 531.535>
VStem: 98 182<113.2 291.943> 133 173<407.282 601> 400 128.75<404.047 479.828> 422 110<203.017 262.568 283 293.382>
LayerCount: 2
Fore
SplineSet
534 938 m 0xc1
 528 914 524 919 503 916 c 0
 502.382 916.137 501.664 916.204 500.853 916.204 c 0
 489.858 916.204 461.664 903.969 430 890 c 1
 442 867 447 849 456 825 c 1
 461 808 466 792 470 777 c 0xc5
 471 776 471 774 471 773 c 0
 471 759 450 752 430 752 c 0
 415 752 400 756 396 764 c 0
 392 772 390 794 382 806 c 1
 380 798 376 784 375 773 c 0xc8
 373 762 356 756 337 756 c 0
 316 756 293 764 293 776 c 0
 293 778 294 780 294 781 c 0
 302 803 309 819 320 841 c 1
 316 840 313 839 310 839 c 0
 308.457 838.64 306.866 838.468 305.243 838.468 c 0
 284.694 838.468 258.955 866.068 258.955 889.511 c 0
 258.955 900.215 264.322 910.053 278 916 c 1xc6
 303 929 328 940 356 952 c 0
 403 971 428 988 491 1002 c 0
 495 1003 497 1003 500 1002 c 0
 523.939 998.01 536.416 980.649 536.416 957.029 c 0
 536.416 951.049 535.616 944.667 534 938 c 0xc1
417 283 m 2
 422 283 l 1
 422 285 l 2
 422 290 412 290 389 296 c 0
 366 303 352 308 337 308 c 0
 331 308 325.007 306.974 318 305 c 0
 300.019 299.934 299 298 297 295 c 1
 283 229 280 214 280 187 c 0
 280 172 281 154 281 122 c 1
 282 121 287 117 297 113 c 1
 343 103 375 100 407 100 c 0
 443 100 478 104 530 106 c 1
 560 121 531 136 604 221 c 1
 613 227 619 231 625 231 c 0
 630 231 635 228 642 222 c 0
 677 189 672 160 673 137 c 0
 674 125 674 113 674 100 c 0
 674 67 668 33 632 6 c 0
 628 3 623 0 617 0 c 2
 71 0 l 2
 67 0 9 11 9 54 c 0
 9 92 52 100 63 104 c 0
 67 105 71 106 75 106 c 0
 98 106 108 81 109 81 c 1
 109 86 l 1
 101 146 98 193 98 234 c 0xd090
 98 369 133 414 133 568 c 0
 133 578 132 589 132 601 c 1
 131 601 122 589 102 589 c 0
 95 589 86 591 75 595 c 0
 54 604 26 622 26 655 c 2
 26 660 l 1
 32 730 128 746 128 746 c 1
 234 746 l 2xe040
 340 746 397 747 439 747 c 0xd040
 498 747 524 744 610 730 c 1
 624 725 630 721 631 707 c 0
 632 696 632 686 632 678 c 0
 632 635 624 627 624 624 c 0
 624 622 630 623 649 609 c 0
 657 603 678 594 678 572 c 0
 678 558 671 543 659 540 c 0
 620 528 599 524 575 524 c 0
 555 524 533 527 496 529 c 0
 489 530 483 532 479 538 c 1
 468 550 464 557 464 562 c 0
 464 575 497 567 498 586 c 1
 498 592 l 1
 497 592 496 589 493 589 c 0xe040
 489 589 482 592 472 605 c 1
 454 608 438 610 416 610 c 0
 395 610 368.055 607.676 328 601 c 0
 304 597 311 598 306 608 c 1
 304 552 304 537 304 519 c 0
 304 500 304 478 306 410 c 1
 323 406 342 401 366 401 c 0
 376 401 387 402 399 404 c 0
 400 405 400 406 400 408 c 0
 400 413 397 423 397 434 c 0
 397 450 403 470 431 486 c 0
 442 493 455 496 468 496 c 0
 488 496 507 488 522 473 c 0
 528 467 529 465.75 529 445.75 c 0
 529 435.75 528.75 421.062 528.75 398.75 c 0xd060
 528.75 376.438 529 346.5 530 306 c 0
 531 306 531 294 532 228 c 1xd010
 531 217 528 211 517 206 c 0
 499 198 483 195 470 195 c 0
 446 195 429 205 415 222 c 1
 409 231 406 254 406 263 c 0
 406 281 412 283 417 283 c 2
EndSplineSet
Validated: 1
EndChar

StartChar: uni1EC0
Encoding: 7872 7872 274
Width: 682
Flags: W
HStem: 0 106<23.1855 107.243 281.05 547.745> 308 93<306.798 398.438> 589 157<69.979 131.947 472.467 496.357> 610 137<306.226 471.158> 752 21G<422.5 440> 756 21G<326.5 346.5> 909 86<212.465 242.887>
VStem: 98 182<113.2 291.943> 133 173<407.282 601> 396 75<754.261 805.25> 400 128.75<404.047 479.828> 422 110<203.017 262.568 283 293.382>
LayerCount: 2
Fore
SplineSet
417 283 m 2xd210
 422 283 l 1
 422 285 l 2
 422 290 412 290 389 296 c 0
 366 303 352 308 337 308 c 0
 331 308 325.007 306.974 318 305 c 0
 300.019 299.934 299 298 297 295 c 1
 283 229 280 214 280 187 c 0
 280 172 281 154 281 122 c 1
 282 121 287 117 297 113 c 1
 343 103 375 100 407 100 c 0
 443 100 478 104 530 106 c 1
 560 121 531 136 604 221 c 1
 613 227 619 231 625 231 c 0
 630 231 635 228 642 222 c 0
 677 189 672 160 673 137 c 0
 674 125 674 113 674 100 c 0
 674 67 668 33 632 6 c 0
 628 3 623 0 617 0 c 2
 71 0 l 2
 67 0 9 11 9 54 c 0
 9 92 52 100 63 104 c 0
 67 105 71 106 75 106 c 0
 98 106 108 81 109 81 c 1
 109 86 l 1
 101 146 98 193 98 234 c 0xd310
 98 369 133 414 133 568 c 0
 133 578 132 589 132 601 c 1
 131 601 122 589 102 589 c 0
 95 589 86 591 75 595 c 0
 54 604 26 622 26 655 c 2
 26 660 l 1
 32 730 128 746 128 746 c 1
 234 746 l 2xe280
 340 746 397 747 439 747 c 0xd280
 498 747 524 744 610 730 c 1
 624 725 630 721 631 707 c 0
 632 696 632 686 632 678 c 0
 632 635 624 627 624 624 c 0
 624 622 630 623 649 609 c 0
 657 603 678 594 678 572 c 0
 678 558 671 543 659 540 c 0
 620 528 599 524 575 524 c 0
 555 524 533 527 496 529 c 0
 489 530 483 532 479 538 c 1
 468 550 464 557 464 562 c 0
 464 575 497 567 498 586 c 1
 498 592 l 1
 497 592 496 589 493 589 c 0xe280
 489 589 482 592 472 605 c 1
 454 608 438 610 416 610 c 0
 395 610 368.055 607.676 328 601 c 0
 304 597 311 598 306 608 c 1
 304 552 304 537 304 519 c 0
 304 500 304 478 306 410 c 1
 323 406 342 401 366 401 c 0
 376 401 387 402 399 404 c 0
 400 405 400 406 400 408 c 0
 400 413 397 423 397 434 c 0
 397 450 403 470 431 486 c 0
 442 493 455 496 468 496 c 0
 488 496 507 488 522 473 c 0
 528 467 529 465.75 529 445.75 c 0
 529 435.75 528.75 421.062 528.75 398.75 c 0xd2a0
 528.75 376.438 529 346.5 530 306 c 0
 531 306 531 294 532 228 c 1
 531 217 528 211 517 206 c 0
 499 198 483 195 470 195 c 0
 446 195 429 205 415 222 c 1
 409 231 406 254 406 263 c 0
 406 281 412 283 417 283 c 2xd210
210 931 m 0
 208.384 937.667 207.584 944.049 207.584 950.029 c 0
 207.584 973.649 220.061 991.01 244 995 c 0
 247 996 249 996 253 995 c 0
 316 981 341 964 388 945 c 0
 416 933 441 922 466 909 c 1
 479.597 903.12 484.956 893.325 484.956 882.64 c 0
 484.956 864.248 469.078 843.223 452 835 c 1
 459 815 466 795 470 777 c 0xc640
 471 776 471 774 471 773 c 0
 471 759 450 752 430 752 c 0
 415 752 400 756 396 764 c 0
 392 772 390 794 382 806 c 1
 380 798 376 784 375 773 c 0xca40
 373 762 356 756 337 756 c 0xc640
 316 756 293 764 293 776 c 0
 293 778 294 780 294 781 c 0
 306 812 314 831 336 873 c 1
 295.201 891.976 256.202 909.152 242.921 909.152 c 0
 242.205 909.152 241.563 909.102 241 909 c 0
 220 912 216 907 210 931 c 0
EndSplineSet
Validated: 1
EndChar

StartChar: uni1EC2
Encoding: 7874 7874 276
Width: 682
Flags: W
HStem: 0 106<23.1855 107.243 281.05 547.745> 308 93<306.798 398.438> 589 157<69.979 131.947 472.467 496.357> 610 137<306.226 471.158> 882 116<356.608 404.828>
VStem: 98 182<113.2 291.943> 133 173<407.282 601> 292 62<768.824 797.764> 346 122<904.468 966.588> 370 56<764.726 797.559> 405 62<854.783 891.59> 422 110<203.017 262.568 283 293.382>
LayerCount: 2
Fore
SplineSet
362 798 m 1xc840
 357 798 l 1
 356 793 354 786 354 780 c 1
 352 771 339 768 325 768 c 0
 309 768 292 773 292 783 c 0
 292 784 292 785 293 786 c 0
 303 813 310 828 333 872 c 0
 337.257 880.515 358.687 886 368 886 c 0
 374 886 386 884 389 879 c 0
 394 869 398 862 401 854 c 1
 404 861 405 868 405 877 c 2
 405 882 l 1xc920
 380 898 369 888 356 904 c 0
 348 914 346 923 346 934 c 0
 346 968 359 998 394 998 c 0
 412 998 429 986 443 970 c 0
 462 950 468 930 468 906 c 0xc880
 468 900 467 896 467 891 c 0xc820
 466 865 460 848 441 830 c 0
 430 820 425 813 418 808 c 1
 421 799 426 789 426 780 c 0
 426 770 410 764 395 764 c 0
 384 764 372 767 370 773 c 1
 367 778 366 789 362 798 c 1xc840
417 283 m 2
 422 283 l 1
 422 285 l 2
 422 290 412 290 389 296 c 0
 366 303 352 308 337 308 c 0
 331 308 325.007 306.974 318 305 c 0
 300.019 299.934 299 298 297 295 c 1
 283 229 280 214 280 187 c 0
 280 172 281 154 281 122 c 1
 282 121 287 117 297 113 c 1
 343 103 375 100 407 100 c 0
 443 100 478 104 530 106 c 1
 560 121 531 136 604 221 c 1
 613 227 619 231 625 231 c 0
 630 231 635 228 642 222 c 0
 677 189 672 160 673 137 c 0
 674 125 674 113 674 100 c 0
 674 67 668 33 632 6 c 0
 628 3 623 0 617 0 c 2
 71 0 l 2
 67 0 9 11 9 54 c 0
 9 92 52 100 63 104 c 0
 67 105 71 106 75 106 c 0
 98 106 108 81 109 81 c 1
 109 86 l 1
 101 146 98 193 98 234 c 0xdc10
 98 369 133 414 133 568 c 0
 133 578 132 589 132 601 c 1
 131 601 122 589 102 589 c 0
 95 589 86 591 75 595 c 0
 54 604 26 622 26 655 c 2
 26 660 l 1
 32 730 128 746 128 746 c 1
 234 746 l 2xea
 340 746 397 747 439 747 c 0xda
 498 747 524 744 610 730 c 1
 624 725 630 721 631 707 c 0
 632 696 632 686 632 678 c 0
 632 635 624 627 624 624 c 0
 624 622 630 623 649 609 c 0
 657 603 678 594 678 572 c 0
 678 558 671 543 659 540 c 0
 620 528 599 524 575 524 c 0
 555 524 533 527 496 529 c 0
 489 530 483 532 479 538 c 1
 468 550 464 557 464 562 c 0
 464 575 497 567 498 586 c 1
 498 592 l 1
 497 592 496 589 493 589 c 0xea
 489 589 482 592 472 605 c 1
 454 608 438 610 416 610 c 0
 395 610 368.055 607.676 328 601 c 0
 304 597 311 598 306 608 c 1
 304 552 304 537 304 519 c 0
 304 500 304 478 306 410 c 1
 323 406 342 401 366 401 c 0
 376 401 387 402 399 404 c 0
 400 405 400 406 400 408 c 0
 400 413 397 423 397 434 c 0
 397 450 403 470 431 486 c 0
 442 493 455 496 468 496 c 0xda80
 488 496 507 488 522 473 c 0
 528 467 529 465.75 529 445.75 c 0
 529 435.75 528.75 421.062 528.75 398.75 c 0
 528.75 376.438 529 346.5 530 306 c 0
 531 306 531 294 532 228 c 1xd810
 531 217 528 211 517 206 c 0
 499 198 483 195 470 195 c 0
 446 195 429 205 415 222 c 1
 409 231 406 254 406 263 c 0
 406 281 412 283 417 283 c 2
EndSplineSet
Validated: 1
EndChar

StartChar: uni1EC4
Encoding: 7876 7876 278
Width: 682
Flags: W
HStem: 0 106<23.1855 107.243 281.05 547.745> 308 93<306.798 398.438> 589 157<69.979 131.947 472.467 496.357> 610 137<306.226 471.158> 752 21G<422.5 440> 756 21G<326.5 346.5> 934 72<311.302 388.163>
VStem: 98 182<113.2 291.943> 133 173<407.282 601> 348 74<856.732 905.954> 400 128.75<404.047 479.828> 422 110<203.017 262.568 283 293.382>
LayerCount: 2
Fore
SplineSet
360 1006 m 1xc640
 392 1004 404 992 416 988 c 0
 436 982 438 979 438 980 c 0
 442 984 448 1002 484 1002 c 0
 506 1002 538 992 540 967 c 1
 540 965 l 2
 540 942 514 937 510 936 c 0
 490 931 476 906 436 905 c 1
 432 905 l 2
 429 905 425 905 421 906 c 1
 422 905 422 905 422 904 c 0
 440 874 445 853 456 825 c 1
 461 808 466 792 470 777 c 0xc640
 471 776 471 774 471 773 c 0
 471 759 450 752 430 752 c 0
 415 752 400 756 396 764 c 0
 392 772 390 794 382 806 c 1
 380 798 376 784 375 773 c 0xca40
 373 762 356 756 337 756 c 0
 316 756 293 764 293 776 c 0
 293 778 294 780 294 781 c 0
 308 818 317 837 348 896 c 0
 348 898 350 900 353 901 c 0
 364 907 376 913 389 915 c 1
 371 923 362 935 356 935 c 1
 356 935 356 934 354 934 c 1
 352 930 338 912 310 912 c 0
 308 912 304 913 302 913 c 0
 276 917 254 933 254 954 c 1
 256 979 286 988 294 990 c 1
 312 999 332 1006 356 1006 c 2
 360 1006 l 1xc640
417 283 m 2
 422 283 l 1
 422 285 l 2
 422 290 412 290 389 296 c 0
 366 303 352 308 337 308 c 0
 331 308 325.007 306.974 318 305 c 0
 300.019 299.934 299 298 297 295 c 1
 283 229 280 214 280 187 c 0
 280 172 281 154 281 122 c 1
 282 121 287 117 297 113 c 1
 343 103 375 100 407 100 c 0
 443 100 478 104 530 106 c 1
 560 121 531 136 604 221 c 1
 613 227 619 231 625 231 c 0
 630 231 635 228 642 222 c 0
 677 189 672 160 673 137 c 0
 674 125 674 113 674 100 c 0
 674 67 668 33 632 6 c 0
 628 3 623 0 617 0 c 2
 71 0 l 2
 67 0 9 11 9 54 c 0
 9 92 52 100 63 104 c 0
 67 105 71 106 75 106 c 0
 98 106 108 81 109 81 c 1
 109 86 l 1
 101 146 98 193 98 234 c 0xd310
 98 369 133 414 133 568 c 0
 133 578 132 589 132 601 c 1
 131 601 122 589 102 589 c 0
 95 589 86 591 75 595 c 0
 54 604 26 622 26 655 c 2
 26 660 l 1
 32 730 128 746 128 746 c 1
 234 746 l 2xe280
 340 746 397 747 439 747 c 0xd280
 498 747 524 744 610 730 c 1
 624 725 630 721 631 707 c 0
 632 696 632 686 632 678 c 0
 632 635 624 627 624 624 c 0
 624 622 630 623 649 609 c 0
 657 603 678 594 678 572 c 0
 678 558 671 543 659 540 c 0
 620 528 599 524 575 524 c 0
 555 524 533 527 496 529 c 0
 489 530 483 532 479 538 c 1
 468 550 464 557 464 562 c 0
 464 575 497 567 498 586 c 1
 498 592 l 1
 497 592 496 589 493 589 c 0xe280
 489 589 482 592 472 605 c 1
 454 608 438 610 416 610 c 0
 395 610 368.055 607.676 328 601 c 0
 304 597 311 598 306 608 c 1
 304 552 304 537 304 519 c 0
 304 500 304 478 306 410 c 1
 323 406 342 401 366 401 c 0
 376 401 387 402 399 404 c 0
 400 405 400 406 400 408 c 0
 400 413 397 423 397 434 c 0
 397 450 403 470 431 486 c 0
 442 493 455 496 468 496 c 0
 488 496 507 488 522 473 c 0
 528 467 529 465.75 529 445.75 c 0
 529 435.75 528.75 421.062 528.75 398.75 c 0xd2a0
 528.75 376.438 529 346.5 530 306 c 0
 531 306 531 294 532 228 c 1xd210
 531 217 528 211 517 206 c 0
 499 198 483 195 470 195 c 0
 446 195 429 205 415 222 c 1
 409 231 406 254 406 263 c 0
 406 281 412 283 417 283 c 2
EndSplineSet
Validated: 1
EndChar

StartChar: uni1ED0
Encoding: 7888 7888 290
Width: 783
Flags: W
HStem: -3 133<330.812 496.384> 640 109<357.582 512.671> 756 21G<467.5 485> 841.468 77.532<315.531 363.294> 919 86<545.891 576.535>
VStem: 12 215<232.61 491.821> 338 82<762.687 809.285> 442 74<758.261 809.43> 622 155<303.577 522.631>
LayerCount: 2
Fore
SplineSet
579 941 m 0xef80
 573 917 569 922 548 919 c 0xef80
 547.382 919.137 546.664 919.204 545.853 919.204 c 0
 534.858 919.204 506.664 906.969 475 893 c 1
 487 870 492 853 500 829 c 0
 506 812 512 796 516 781 c 1
 516 777 l 2
 516 763 495 756 475 756 c 0
 460 756 445 760 442 768 c 0
 438 776 435 798 427 810 c 1
 425 802 422 788 420 777 c 0
 418 766 400 760 382 760 c 0
 360 760 338 768 338 780 c 0
 338 782 338 784 339 785 c 0
 347 807 354 822 364 844 c 1
 361 843 358 842 356 842 c 0
 354.405 841.64 352.766 841.468 351.096 841.468 c 0
 329.938 841.468 303.981 869.129 303.981 892.589 c 0
 303.981 903.263 309.355 913.067 323 919 c 1xf780
 348 932 373 943 401 955 c 0
 448 974 473 991 536 1005 c 0
 540 1006 542 1006 545 1005 c 0
 568.939 1001.01 581.416 983.649 581.416 960.029 c 0
 581.416 954.049 580.616 947.667 579 941 c 0xef80
230 375 m 0
 228.864 350.006 227 330 227 311 c 0
 227 277 232.016 259.009 252 225 c 0
 279.022 179.013 304.04 159.127 358 142 c 0
 383.019 134.059 403 130 422 130 c 0
 444 130 465 135 489 148 c 0
 546 178 563 216 591 282 c 0
 611 331 622 357 622 398 c 0
 622 418 619 438 615 462 c 0
 604 523 592.927 556.91 547 594 c 0
 509.941 623.927 481 640 443 640 c 0
 434 640 424 639 414 637 c 0
 343 625 310 589 266 523 c 0
 234 474 233 441 230 375 c 0
419 -3 m 0
 362 -3 304 10 253 31 c 1
 152 86 43 142 22 273 c 0
 16 311 12 337 12 372 c 0
 12 448 31.1775 516.858 88 588 c 0
 177.279 699.777 284 749 430 749 c 1
 552 748 646 709 717 612 c 0
 762 552 777 493 777 432 c 0
 777 389 770 345 760 297 c 0
 741 206 689.789 168.145 647 106 c 0
 592.733 27.1841 507 -3 419 -3 c 0
EndSplineSet
Validated: 1
EndChar

StartChar: uni1ED2
Encoding: 7890 7890 292
Width: 783
Flags: W
HStem: -3 133<330.812 496.384> 640 109<357.582 512.671> 756 21G<467.5 485> 837.468 77.532<503.618 557.624> 915 86<296.465 326.327>
VStem: 12 215<232.61 491.821> 338 82<762.687 809.047> 622 155<303.577 522.631>
LayerCount: 2
Fore
SplineSet
294 937 m 0xef
 292.384 943.667 291.584 950.049 291.584 956.029 c 0
 291.584 979.649 304.061 997.01 328 1001 c 0
 331 1002 333 1002 337 1001 c 0xef
 400 987 425 970 472 951 c 0
 500 939 525 928 550 915 c 1
 563.678 909.053 569.045 899.215 569.045 888.511 c 0
 569.045 865.068 543.306 837.468 522.757 837.468 c 0xf7
 513.123 837.468 506.07 841.31 495 845 c 1
 500 829 l 2
 506 812 512 796 516 781 c 1
 516 777 l 2
 516 763 495 756 475 756 c 0
 460 756 445 760 442 768 c 0
 438 776 435 798 427 810 c 1
 425 802 422 788 420 777 c 0
 418 766 400 760 382 760 c 0
 360 760 338 768 338 780 c 0
 338 782 338 784 339 785 c 0
 352 820 361 839 389 893 c 1
 360.387 905.399 336.322 915.069 326.35 915.069 c 0
 325.866 915.069 325.416 915.046 325 915 c 0
 304 918 300 913 294 937 c 0xef
419 -3 m 0
 362 -3 304 10 253 31 c 1
 152 86 43 142 22 273 c 0
 16 311 12 337 12 372 c 0
 12 448 31.1775 516.858 88 588 c 0
 177.279 699.777 284 749 430 749 c 1
 552 748 646 709 717 612 c 0
 762 552 777 493 777 432 c 0
 777 389 770 345 760 297 c 0
 741 206 689.789 168.145 647 106 c 0
 592.733 27.1841 507 -3 419 -3 c 0
230 375 m 0
 228.864 350.006 227 330 227 311 c 0
 227 277 232.016 259.009 252 225 c 0
 279.022 179.013 304.04 159.127 358 142 c 0
 383.019 134.059 403 130 422 130 c 0
 444 130 465 135 489 148 c 0
 546 178 563 216 591 282 c 0
 611 331 622 357 622 398 c 0
 622 418 619 438 615 462 c 0
 604 523 592.927 556.91 547 594 c 0
 509.941 623.927 481 640 443 640 c 0
 434 640 424 639 414 637 c 0
 343 625 310 589 266 523 c 0
 234 474 233 441 230 375 c 0
EndSplineSet
Validated: 1
EndChar

StartChar: uni1ED4
Encoding: 7892 7892 294
Width: 783
Flags: W
HStem: -3 133<330.873 496.384> 640 109<357.582 512.671> 872.125 115.5<413.256 462.022>
VStem: 12 215<232.61 491.821> 359.875 61.5<757.94 787.521> 437.5 55.875<754.312 787.608> 622 155<303.577 522.631>
LayerCount: 2
Fore
SplineSet
483.148 804.495 m 1
 487.028 793.282 493.375 780.94 493.375 769.5 c 0
 493.375 759 477.625 753.75 462.625 753.75 c 0
 451.375 753.75 440.125 756.75 437.5 762.75 c 0
 435.121 767.507 433.45 778.866 429.869 788.04 c 1
 428.297 787.952 426.671 787.868 424.988 787.787 c 1
 423.644 782.129 422.152 775.457 421.375 769.5 c 0
 419.875 760.875 406.75 757.125 392.875 757.125 c 0
 376.75 757.125 359.875 762.375 359.875 772.125 c 0
 359.875 773.25 360.25 774.375 360.625 775.5 c 0
 370.75 802.875 377.875 817.5 400.75 861.75 c 0
 401.5 863.625 403 864.75 404.875 865.5 c 0
 414.625 870.375 424.75 876 436 876 c 0
 441.5 876 453.771 873.832 456.625 868.125 c 0
 458.493 864.908 460.181 861.849 461.723 858.909 c 1
 461.986 861.459 462.125 864.112 462.125 866.875 c 2
 462.125 872.125 l 1
 437.375 887.125 426.125 877.375 412.625 893.875 c 0
 405.125 903.625 402.875 912.625 402.875 923.875 c 0
 402.875 957.285 415.772 987.625 450.875 987.625 c 0
 469.625 987.625 486.125 975.625 500.375 959.875 c 0
 519.125 939.625 525.125 920.125 525.125 895.375 c 0
 525.125 890.125 524.375 885.625 524.375 880.375 c 0
 522.875 854.875 516.875 837.625 498.125 819.625 c 2
 483.148 804.495 l 1
419 -3 m 0
 361.992 -3 304.325 9.86836 253 31 c 1
 152 86 43 142 22 273 c 0
 16 311 12 337 12 372 c 0
 12 448 31.1775 516.858 88 588 c 0
 177.279 699.777 284 749 430 749 c 1
 552 748 646 709 717 612 c 0
 762 552 777 493 777 432 c 0
 777 389 770 345 760 297 c 0
 741 206 689.789 168.145 647 106 c 0
 592.733 27.1842 507 -3 419 -3 c 0
230 375 m 0
 228.864 350.006 227 330 227 311 c 0
 227 277 232.016 259.009 252 225 c 0
 279.022 179.013 304.04 159.127 358 142 c 0
 383.019 134.059 403 130 422 130 c 0
 444 130 465 135 489 148 c 0
 546 178 563 216 591 282 c 0
 611 331 622 357 622 398 c 0
 622 418 619 438 615 462 c 0
 604 523 592.927 556.91 547 594 c 0
 509.941 623.927 481 640 443 640 c 0
 434 640 424 639 414 637 c 0
 343 625 310 589 266 523 c 0
 234 474 233 441 230 375 c 0
EndSplineSet
Validated: 1
EndChar

StartChar: uni1ED6
Encoding: 7894 7894 296
Width: 783
Flags: W
HStem: -3 133<330.873 496.384> 640 109<357.582 512.671> 748 21G<467.5 485> 752.5 21G<371.25 391.25> 923 70.5<368.848 432.97>
VStem: 12 215<232.61 491.821> 338 82<755.076 802.07> 441.5 74.5<750.261 801.907> 622 155<303.577 522.631>
LayerCount: 2
Fore
SplineSet
230 375 m 0xcf80
 228.864 350.006 227 330 227 311 c 0
 227 277 232.016 259.009 252 225 c 0
 279.022 179.013 304.04 159.127 358 142 c 0
 383.019 134.059 403 130 422 130 c 0
 444 130 465 135 489 148 c 0
 546 178 563 216 591 282 c 0
 611 331 622 357 622 398 c 0
 622 418 619 438 615 462 c 0
 604 523 592.927 556.91 547 594 c 0
 509.941 623.927 481 640 443 640 c 0
 434 640 424 639 414 637 c 0
 343 625 310 589 266 523 c 0
 234 474 233 441 230 375 c 0xcf80
419 -3 m 0
 361.992 -3 304.325 9.86836 253 31 c 1
 152 86 43 142 22 273 c 0
 16 311 12 337 12 372 c 0
 12 448 31.1775 516.858 88 588 c 0
 177.279 699.777 284 749 430 749 c 1
 552 748 646 709 717 612 c 0
 762 552 777 493 777 432 c 0
 777 389 770 345 760 297 c 0
 741 206 689.789 168.145 647 106 c 0
 592.733 27.1842 507 -3 419 -3 c 0
418.5 993.5 m 1
 449.5 992 462.5 980 473.5 976.25 c 0
 494.5 970.25 495.5 967.25 495.5 968 c 0
 500.5 972.5 506.5 990.5 541.5 990.5 c 0
 564.5 990.5 595.5 980 598.5 955.25 c 0
 598.5 954.5 598.5 953.75 598.5 953 c 0
 598.5 930.5 571.5 925.25 568.5 924.5 c 0
 548.5 919.25 533.5 894.5 493.5 893 c 0
 492.5 893 491.5 893 490.5 893 c 0
 483.04 893 476.298 893.695 470.197 894.874 c 1
 485.694 866.995 491.093 847.73 500.5 821 c 0
 506.484 803.995 511.5 788.5 515.5 773 c 0
 516 771.5 516 770 516 769 c 0
 516 755 495 748 475 748 c 0
 460 748 445 752 441.5 760 c 0
 437.5 768 435 790 427 802.5 c 1
 425 794 421.5 780.5 420 769 c 0xaf80
 418 757.5 400.5 752.5 382 752.5 c 0x9f80
 360.5 752.5 338 759.5 338 772.5 c 0
 338 774 338.5 775.5 339 777 c 0
 352.5 813.5 362 833 392.5 892 c 0
 393.5 894.5 395.5 896 398 897 c 0
 409.267 902.633 420.909 909.018 433.577 910.62 c 1
 424.202 917.152 418.474 923 414.5 923 c 0
 413.5 923 413.5 922.25 412.5 921.5 c 0
 409.5 918.5 396.5 900.5 367.5 900.5 c 0
 365.5 900.5 362.5 901.25 359.5 901.25 c 0
 334.5 905 312.5 920.75 312.5 942.5 c 0
 313.5 967.25 344.5 975.5 351.5 978.5 c 0
 369.5 986.75 389.5 993.5 414.5 993.5 c 2
 418.5 993.5 l 1
EndSplineSet
Validated: 1
EndChar

StartChar: uni1EDE
Encoding: 7902 7902 304
Width: 860
Flags: W
HStem: -3 133<333.715 499.226> 640 109<360.424 515.513> 644.009 267<709.6 794.8> 755.358 240.301<401.225 483.107>
VStem: 14.8418 215<232.61 491.821> 385.59 146.699<874.046 953.108> 624.842 155<303.577 522.631> 688.439 163<777.422 861.057>
LayerCount: 2
Fore
SplineSet
456.689 857.059 m 1x9c
 426.989 875.059 413.489 863.358 397.289 883.159 c 0
 388.289 894.858 385.59 905.659 385.59 919.159 c 0
 385.59 959.415 401.225 995.659 443.189 995.659 c 0
 465.689 995.659 485.489 981.259 502.59 962.358 c 0
 525.09 938.059 532.289 914.659 532.289 884.959 c 0
 532.289 878.659 531.39 873.259 531.39 866.959 c 0
 529.59 836.358 522.39 815.659 499.89 794.059 c 0
 469.289 765.259 477.39 758.059 399.989 755.358 c 0
 399.09 756.259 398.189 758.059 398.189 758.959 c 0
 398.189 772.459 456.689 788.659 456.689 850.759 c 2
 456.689 857.059 l 1x9c
421.842 -3 m 0
 364.834 -3 307.167 9.86836 255.842 31 c 1
 154.842 86 45.8418 142 24.8418 273 c 0
 18.8418 311 14.8418 337 14.8418 372 c 0
 14.8418 448 34.0193 516.858 90.8418 588 c 0
 180.121 699.777 286.842 749 432.842 749 c 1
 554.842 748 648.842 709 719.842 612 c 0
 764.842 552 779.842 493 779.842 432 c 0xce
 779.842 389 772.842 345 762.842 297 c 0
 743.842 206 692.631 168.145 649.842 106 c 0
 595.575 27.1841 509.842 -3 421.842 -3 c 0
232.842 375 m 0
 231.706 350.006 229.842 330 229.842 311 c 0
 229.842 277 234.858 259.009 254.842 225 c 0
 281.864 179.013 306.882 159.127 360.842 142 c 0
 385.861 134.059 405.842 130 424.842 130 c 0
 446.842 130 467.842 135 491.842 148 c 0
 548.842 178 565.842 216 593.842 282 c 0
 613.842 331 624.842 357 624.842 398 c 0
 624.842 418 621.842 438 617.842 462 c 0
 606.842 523 595.769 556.91 549.842 594 c 0
 512.783 623.927 483.842 640 445.842 640 c 0
 436.842 640 426.842 639 416.842 637 c 0
 345.842 625 312.842 589 268.842 523 c 0
 236.842 474 235.842 441 232.842 375 c 0
767.439 757.009 m 1
 734.439 777.009 719.439 764.009 701.439 786.009 c 0
 691.439 799.009 688.439 811.009 688.439 826.009 c 0
 688.439 832.009 688.439 839.009 690.439 847.009 c 0
 697.734 881.055 709.6 911.009 752.439 911.009 c 0
 777.439 911.009 799.439 895.009 818.439 874.009 c 0
 843.439 847.009 851.439 821.009 851.439 788.009 c 0
 851.439 781.009 850.439 775.009 850.439 768.009 c 0
 848.439 734.009 840.439 711.009 815.439 687.009 c 0
 781.439 655.009 790.439 647.009 704.439 644.009 c 1xad
 703.439 645.009 702.439 647.009 702.439 648.009 c 0
 702.439 663.009 767.439 681.009 767.439 750.009 c 2
 767.439 757.009 l 1
EndSplineSet
Validated: 1
EndChar

StartChar: A
Encoding: 65 65 332
Width: 811
VWidth: 1080
Flags: W
HStem: 5 165<450.747 533.206> 261 110<360.767 495.273> 732 20G<444.5 468.603>
LayerCount: 2
Fore
SplineSet
400 492 m 1
 387.597 458.336 376.062 414.339 360 384 c 1
 376 374 392 371 410 371 c 0
 433 371 460 376 497 380 c 1
 497 391 477.173 423.068 463 459 c 0
 453.12 484.047 435 536 433 554 c 1
 420 521 400 495 400 492 c 1
534 159 m 0
 541.3 159 550 159.934 550 169 c 0
 549 180 546 208 543 231 c 0
 543 233 542 258 509 263 c 1
 485 261 466 261 449 261 c 0
 421 261 398 262 372 262 c 0
 354 262 334 261 310 259 c 1
 293 245 292 220 292 197 c 2
 292 190 l 1
 295 191 300 192 305 192 c 0
 319 192 337 187 350 171 c 0
 354 166 356 162 356 156 c 0
 357 133 358 114 358 97 c 0
 358 71.8203 354.561 49.5606 340 35 c 0
 319 14.0002 296 8 274 8 c 0
 245 8 216 19 193 19 c 0
 192 19 191 19 190 19 c 0
 151 17 139 17 113 16 c 0
 109 15 101 10 89 10 c 0
 78 10 63 14 44 27 c 0
 41 30 38 32 37 35 c 1
 34 39 9 52 9 86 c 2
 9 88 l 1
 11 137 41 166 77 187 c 0
 91 195 104 198 115 198 c 0
 132 198 143 192 143 188 c 1
 163 225 186 306 188 315 c 1
 188 317 l 1
 269 573 265 524 362 712 c 0
 364 717 368 721 373 723 c 0
 400 737 429 752 460 752 c 0
 477.205 752 506.42 746.759 517 731 c 0
 564.77 659.845 566 642 588 581 c 0
 649 406 655 301 697 184 c 1
 703 176 760 181 791 124 c 0
 799 110 806 90 806 71 c 0
 806 56 801 40 788 28 c 0
 777 18 760 14 757 14 c 0
 720 6 687 6 652 6 c 2
 639 6 l 2
 615.923 6 578.585 4 558 4 c 0
 536 4 519 5 468 5 c 0
 433 5 420 31 420 62 c 0
 420 93 433 129 450 147 c 0
 466 165 478 170 489 170 c 0
 504 170 517 159 534 159 c 0
EndSplineSet
Validated: 1
EndChar

StartChar: B
Encoding: 66 66 333
Width: 661
VWidth: 1080
Flags: W
HStem: -0 160<35.0488 145.804> 9 142<26.9757 96.3892> 10 126<312.353 422.049> 351 75<337.047 397.165>
VStem: 146 158<145.822 350.125> 462 180<178.517 317.9 470.725 602.86>
LayerCount: 2
Fore
SplineSet
55 626 m 0x9c
 34.7396 629.377 25 659.519 25 677 c 0
 25 699.88 38.041 735.76 63 742 c 0
 115 756 155 760 195 760 c 0
 231 760 267 756 311 751 c 0
 413 738 501 747 589 669 c 0
 628 634 637 593 640 549 c 0
 640 542 641 535 641 529 c 0
 641 494 633 462 609 430 c 0
 588 402 575 397 563 397 c 0
 556 397 549 398 541 398 c 0
 532 398 521 397 507 389 c 1
 516 384 524 383 532 383 c 0
 544 383 554 387 564 387 c 0
 577 387 590.982 380.987 609 356 c 0
 634.974 319.981 642 285 642 248 c 0
 642 235 641 221 640 208 c 0
 634 149 627 91 570 48 c 0
 522 12 476 3 429 3 c 0
 388 3 348 10 306 10 c 0x3c
 299 10 291 9 284 9 c 0x5c
 230 5 200 -0 156 -0 c 0x9c
 127 -0 92 2 40 9 c 0
 16.0214 12.4255 5 49.394 5 69 c 0
 5 99 22 128 44 147 c 0
 46 149 49 150 51 151 c 0x5c
 69 158 84 160 97 160 c 0
 127 160 142 145 146 138 c 1
 146 144 146 150 146 156 c 0
 146 225 130 222 129 307 c 1
 129 309 l 1
 154 638 l 1
 148 630 147 618 116 618 c 0
 103 618 83 620 55 626 c 0x9c
336 631 m 1
 332 584 329 552 329 523 c 0
 329 493 332 465 337 427 c 0
 338 426 339 426 341 426 c 0
 351 426 375 438 412 455 c 0
 438 467 446 471 455 491 c 0
 463 509 468 523 468 537 c 0
 468 550 464 564 456 580 c 0
 443 606 428 615 397 626 c 0
 381 632 371 636 360 636 c 0
 354 636 346 634 336 631 c 1
462 245 m 1
 462 250 l 2
 462 299 436 339 396 343 c 0
 356 347 331 351 320 351 c 0
 315 351 313 351 313 349 c 0
 308 280 304 252 304 207 c 2
 304 180 l 1
 305 155 331 136 362 136 c 2
 370 136 l 1
 424 142 459 187 462 245 c 1
EndSplineSet
Validated: 1
EndChar

StartChar: C
Encoding: 67 67 334
Width: 745
VWidth: 1080
Flags: W
HStem: -6 139<355.87 556.53> 644 115<365.827 522.483>
VStem: 19 205<262.656 461.656>
LayerCount: 2
Fore
SplineSet
649 182 m 0
 652 182 655 183 658 183 c 0
 683 183 691 165 691 144 c 0
 691 119 680 89 670 77 c 0
 598 -13 496 -3 395 -6 c 0
 390 -6 385 -6 380 -6 c 0
 327 -6 286.038 4.0755 237 29 c 0
 158.062 69.1215 111 110 65 185 c 0
 34 236 19 279 19 335 c 0
 19 343 19 351 20 360 c 0
 27 456 60 517 118 592 c 0
 173 662 222 701 308 737 c 0
 345 752 392 759 439 759 c 0
 490 759 540 751 577 737 c 0
 627 718 686.8 707.901 718 645 c 0
 730.917 618.959 736 595 736 571 c 0
 736 528 718 487 692 439 c 1
 684 430 679 425 672 425 c 0
 668 425 663 427 656 431 c 0
 594 467 611 518 599 534 c 0
 555 589 538.942 624.764 485 638 c 0
 468.983 641.93 455 644 441 644 c 0
 404 644 373 630 336 602 c 0
 262 546 236 491 226 399 c 0
 224 384 224 370 224 357 c 0
 224 303 239 263 280 214 c 0
 326 160 369 142 443 134 c 0
 450 133 456 133 462 133 c 0
 526 133 574 171 649 182 c 0
EndSplineSet
Validated: 1
EndChar

StartChar: D
Encoding: 68 68 335
Width: 804
VWidth: 1080
Flags: W
HStem: -0 119<303.03 438.735> 1 128<80.4494 145> 625 126<64.9085 134.993> 646 104<319.283 448.422>
VStem: 151 160<133.138 632.354> 156 163<414.743 645.879> 611 177<287.402 491.557>
LayerCount: 2
Fore
SplineSet
85 625 m 2x66
 59.8682 625 15 629.126 15 673 c 0
 15 703 58 727 86 739 c 0
 107 749 126 751 144 751 c 0x66
 160 751 175 749 190 749 c 0
 226 749 257 750 287 750 c 0
 351 750 409 746 487 726 c 0
 553 709 601.808 695.769 658 649 c 0
 720.786 596.742 754.761 550.93 777 475 c 0
 784.915 447.975 788 433 788 410 c 0
 788 372 779 336 768 294 c 0
 749 223 733 172 678 114 c 0
 580 12 447 -0 363 -0 c 0x96
 337 -0 316 1 302 1 c 2
 249 1 l 2
 177 1 130 3 33 14 c 0
 11 17 2 41 2 66 c 0
 2 89 10 113 20 121 c 0
 39 135 60 140 79 140 c 0
 110 140 136 129 143 129 c 2
 145 129 l 1
 150 278 151 330 151 365 c 0x4a
 151 382 150 395 150 413 c 0
 150 450 151 498 156 657 c 1
 147 652 158 651 135 645 c 1
 135 645 125 625 92 625 c 2
 85 625 l 2x66
303 129 m 0
 303 128.308 344.702 119 366 119 c 0
 387 119 402.965 125.086 430 136 c 0
 489.923 160.191 520 177 556 225 c 0
 597 280 611 317 611 382 c 2
 611 389 l 1
 610 463 595 493 548 551 c 0
 511 598 483 616 424 632 c 0
 394 640 366 646 346 646 c 0
 334 646 325 644 319 639 c 1x96
 312 496 311 431 311 381 c 2
 311 295 l 2x9a
 311 260 310 218 303 129 c 0
EndSplineSet
Validated: 1
EndChar

StartChar: E
Encoding: 69 69 336
Width: 682
VWidth: 1080
Flags: W
HStem: 0 106<23.1855 107.243 281.05 547.745> 308 93<306.798 398.438> 589 157<69.979 131.947 472.467 496.357> 610 137<306.226 471.158>
VStem: 98 182<113.2 291.943> 133 173<407.282 601> 400 128.75<404.047 479.828> 422 110<203.017 262.568 283 293.382>
LayerCount: 2
Fore
SplineSet
417 283 m 2xd1
 422 283 l 1
 422 285 l 2
 422 290 412 290 389 296 c 0
 366 303 352 308 337 308 c 0
 331 308 325 307 318 305 c 0
 300 300 299 298 297 295 c 1
 283 229 280 214 280 187 c 0
 280 172 281 154 281 122 c 1
 282 121 287 117 297 113 c 1
 343 103 375 100 407 100 c 0
 443 100 478 104 530 106 c 1
 560 121 531 136 604 221 c 1
 613 227 619 231 625 231 c 0
 630 231 635 228 642 222 c 0
 677 189 672 160 673 137 c 0
 674 125 674 113 674 100 c 0
 674 67 668 33 632 6 c 0
 628 3 623 0 617 0 c 2
 71 0 l 2
 67 0 9 11 9 54 c 0
 9 92 52 100 63 104 c 0
 67 105 71 106 75 106 c 0
 98 106 108 81 109 81 c 1
 109 86 l 1
 101 146 98 193 98 234 c 0xd9
 98 369 133 414 133 568 c 0
 133 578 132 589 132 601 c 1
 131 601 122 589 102 589 c 0
 95 589 86 591 75 595 c 0
 54 604 26 622 26 655 c 2
 26 660 l 1
 32 730 128 746 128 746 c 1
 234 746 l 2xe4
 340 746 397 747 439 747 c 0xd4
 498 747 524 744 610 730 c 1
 624 725 630 721 631 707 c 0
 632 696 632 686 632 678 c 0
 632 635 624 627 624 624 c 0
 624 622 630 623 649 609 c 0
 657 603 678 594 678 572 c 0
 678 558 671 543 659 540 c 0
 620 528 599 524 575 524 c 0
 555 524 533 527 496 529 c 0
 489 530 483 532 479 538 c 1
 468 550 464 557 464 562 c 0
 464 575 497 567 498 586 c 1
 498 592 l 1
 497 592 496 589 493 589 c 0xe4
 489 589 482 592 472 605 c 1
 454 608 438 610 416 610 c 0
 395 610 368 608 328 601 c 0
 304 597 311 598 306 608 c 1
 304 552 304 537 304 519 c 0
 304 500 304 478 306 410 c 1
 323 406 342 401 366 401 c 0
 376 401 387 402 399 404 c 0
 400 405 400 406 400 408 c 0
 400 413 397 423 397 434 c 0
 397 450 403 470 431 486 c 0
 442 493 455 496 468 496 c 0
 488 496 507 488 522 473 c 0
 528 467 529 465.75 529 445.75 c 0
 529 435.75 528.75 421.062 528.75 398.75 c 0xd6
 528.75 376.438 529 346.5 530 306 c 0
 531 306 531 294 532 228 c 1
 531 217 528 211 517 206 c 0
 499 198 483 195 470 195 c 0
 446 195 429 205 415 222 c 1
 409 231 406 254 406 263 c 0
 406 281 412 283 417 283 c 2xd1
EndSplineSet
Validated: 1
EndChar

StartChar: F
Encoding: 70 70 337
Width: 648
VWidth: 1080
Flags: W
HStem: -1 102<-11.4258 74.9465 247.57 371.917> 306 93<272.798 364.438> 587 157<35.979 97.9473> 608 137<272.317 437.158>
VStem: 64 183<111.2 290.035> 99 173<405.282 599> 366 130<402.047 471.882> 372 126<225.428 281.998> 388 110<206.017 291.039>
LayerCount: 2
Fore
SplineSet
75 79 m 1xd880
 75 84 l 1
 67 144 64 191 64 232 c 0xd880
 64 367 99 412 99 566 c 0
 99 576 98 587 98 599 c 1
 97 599 88 587 68 587 c 0
 61 587 52 589 41 593 c 0
 20 602 -8 620 -8 653 c 2
 -8 658 l 1
 -2 728 94 744 94 744 c 1
 200 744 l 2xe4
 306 744 363 745 405 745 c 0
 464 745 490 742 576 728 c 1
 590 723 596 719 597 705 c 0
 598 694 598 684 598 676 c 0
 598 631 590 620 590 613 c 0
 590 608 596.119 606.161 615 592 c 0
 623 586 644 577 644 555 c 0
 644 541.567 637.341 526.085 625 523 c 0
 586 511 565 507 541 507 c 0
 521 507 499 510 462 512 c 0
 455 513 449 515 445 521 c 1
 434 533 431 541 431 547 c 0
 431 563 458 564 458 578 c 0
 458 579 457 581 457 582 c 0
 452 597 448 596 438 603 c 1
 420 606 404 608 382 608 c 0
 361 608 334.055 605.676 294 599 c 0
 270 595 279 597 272 606 c 1
 270 550 270 535 270 517 c 0
 270 498 270 476 272 408 c 1
 289 404 308 399 332 399 c 0
 342 399 353 400 365 402 c 0
 366 403 366 404 366 405 c 0
 366 410 363 419 363 430 c 0
 363 444 369.072 461.875 397 478 c 0
 409.031 484.946 422 489 434 489 c 0
 454 489 474 481 488 465 c 0
 497.667 455.333 492.376 456.891 496 306 c 0xd6
 497 306 497 293 498 231 c 1
 497 220 494 214 483 209 c 0
 465 201 449 198 436 198 c 0
 412 198 395 208 381 225 c 1
 375.053 233.921 372 256.685 372 265 c 0xd1
 372 279 377 282 381 282 c 0
 384 282 388 282 388 283 c 0
 388 288 378 288 355 294 c 0
 332 301 318 306 303 306 c 0
 297 306 291.007 304.974 284 303 c 0
 266.019 297.934 265 296 263 293 c 1
 248 229 247 213 247 146 c 2
 247 120 l 1
 258.526 108.474 310.993 101 311 101 c 0
 320 101 308 110 375 113 c 1
 385 118 393 120 400 120 c 0
 420 120 426 100 426 77 c 0
 426 48 416 13 416 13 c 2
 414 6 401 -1 393 -1 c 2
 37 -1 l 2
 33 -1 -25 9 -25 52 c 0
 -25 90 18 98 29 102 c 0
 33 103 37 104 41 104 c 0
 64 104 74 79 75 79 c 1xd880
EndSplineSet
Validated: 1
EndChar

StartChar: G
Encoding: 71 71 338
Width: 818
VWidth: 1080
Flags: W
HStem: -5 137<348.829 564.59> 632 117<349.718 542.501>
VStem: 7 205<263.466 461.051> 576 186<147.75 286.887>
LayerCount: 2
Fore
SplineSet
748 118 m 0
 668 9 525 2 383 -5 c 1
 364 -5 l 2
 313 -5 272.041 6.08053 225 30 c 0
 146.069 70.1351 99 111 53 186 c 0
 22 237 7 280 7 336 c 0
 7 448.35 44.3587 503.291 106 583 c 0
 161 653 210 692 296 728 c 0
 355 752 397 748 454 749 c 0
 459 749 464 749 469 749 c 0
 617 749 664 719 747 664 c 0
 752 661 755 657 757 652 c 0
 768 621 772 596 772 573 c 0
 772 531 756 497 731 449 c 1
 723 439 718 434 711 434 c 0
 706 434 702 435 695 439 c 0
 631 476 650 529 639 540 c 0
 585 593 548 619 476 628 c 0
 460 630 445 632 432 632 c 0
 392 632 361 621 324 593 c 0
 250 537 224 492 214 400 c 0
 212 385 212 371 212 358 c 0
 212 304 227 264 268 215 c 0
 314 161 357 144 431 135 c 0
 446 133 459 132 472 132 c 0
 520 132 555 144 574 160 c 1
 575 212 576 229 576 239 c 0
 576 250 574 250 568 282 c 0
 565 298 497 270 461 322 c 0
 457 328 453 338 453 349 c 0
 453 358 456 368 464 376 c 0
 473 384 464 384 771 399 c 0
 791 399 806 379 806 355 c 0
 806 341 801 325 788 311 c 0
 782 305 778 303 774 303 c 0
 768 303 763 310 754 317 c 1
 753 317 l 2
 752 317 752 315 752 312 c 0
 752 294 762 237 762 188 c 0
 762 159 758 133 748 118 c 0
EndSplineSet
Validated: 1
EndChar

StartChar: H
Encoding: 72 72 339
Width: 851
VWidth: 1080
Flags: W
HStem: -5 131<527.38 602.559> 5 123<33.4559 119.753 311.001 390.766> 20 108<24.0574 119.753> 354 89<310 607> 623 123<542.517 616.901> 628 112<52.0172 134.415 538.523 616.096> 628 102<313.108 414.293>
VStem: 118 190<131 352 445 628.636> 524 319<646.755 729.796> 612 150<129.686 348 445 623.557>
LayerCount: 2
Fore
SplineSet
11 73 m 0x3180
 11 104.822 42.1885 128 69 128 c 0
 93 128 115 116 120 109 c 1
 118 188 118 247 118 296 c 0
 118 441 124 477 138 636 c 1
 135 632 122 628 106 628 c 0
 87 628 64 634 49 654 c 0
 41 665 35 679 35 693 c 0
 35 709.221 48.0417 740 72 740 c 0x5580
 380 736 126 737 397 730 c 0
 416 729 429 708 429 686 c 0
 429 673 425 660 415 649 c 0
 400 633 380 628 363 628 c 0
 337 628 315 639 313 643 c 1
 310 592 308 565 308 540 c 0
 308 514 310 490 310 445 c 1
 371 444 406 443 440 443 c 0
 482 443 523 444 611 445 c 1
 612 469 612 489 612 506 c 2
 612 563 l 2
 612 585 613 604 617 628 c 1x1340
 615 626 606 623 594 623 c 0
 577 623 553 629 537 652 c 0
 530 663 524 677 524 693 c 0
 524 707.902 533.941 737 556 737 c 1
 612 743 645 746 675 746 c 0
 711 746 746 741 816 731 c 0
 828 730 843 717 843 695 c 0x1980
 843 687 840 676 834 665 c 0
 810 619 763 621 762 619 c 1
 762 136 l 1x1940
 763 133 787 126 803 93 c 0
 811 77 812 63 812 51 c 2
 812 30 l 1
 811 12 808 5 789 4 c 1
 699 -6 679 -8 663 -8 c 0
 645 -8 631 -5 524 -5 c 1
 505 -1 500 1 500 16 c 2
 500 24 l 1
 501 40 497 69 521 98 c 1
 543 123 573 126 589 126 c 2
 601 126 l 1x9980
 607 206 608 198 608 212 c 0
 608 224 607 250 607 348 c 1
 515 352 470 354 428 354 c 0
 394 354 361 353 306 352 c 1
 308 273 312 232 312 175 c 0
 312 162 311 148 311 132 c 0
 311 131 313 131 315 131 c 0
 319 131 325 132 332 132 c 0
 356 132 393 128 410 94 c 0
 415 85 418 74 418 64 c 0
 418 46 409 29 391 16 c 0
 386 13 382 11 376 11 c 0
 244 9 226 5 203 5 c 0x5180
 183 5 159 8 49 20 c 0
 32 22 11 47 11 73 c 0x3180
EndSplineSet
Validated: 1
EndChar

StartChar: I
Encoding: 73 73 340
Width: 419
VWidth: 1080
Flags: W
HStem: 6 126<18.2915 121.613> 11 112<297.105 391.493> 628 112<284.274 395.512> 636 115<40.2953 120.415>
VStem: 117 178<116 643.484>
LayerCount: 2
Fore
SplineSet
383 740 m 0x28
 401.917 740 412 716.817 412 701 c 0
 412 681 402 662 402 661 c 0
 402 659 401 658 400 656 c 0
 386 635 365 628 345 628 c 0
 317 628 290 641 283 648 c 1
 293 551 295 497 295 432 c 0
 295 398 294 360 294 311 c 0
 294 261 295 199 297 116 c 1
 299 117 317 123 338 123 c 0
 358 123 381 118 395 96 c 0
 401 86 404 76 404 66 c 0
 404 43.2225 388.353 15.3922 362 11 c 1x68
 229 10 212 6 189 6 c 0
 169 6 144 9 35 20 c 1
 11.5231 24.6954 -3 52.2543 -3 74 c 0
 -3 109.533 34.0355 132 63 132 c 0
 89 132 114 120 122 109 c 1
 119 255 117 339 117 407 c 0
 117 484 119 541 124 646 c 1
 119 641 107 636 92 636 c 0
 73 636 51 643 35 664 c 0
 27 675 21 689 21 703 c 0
 21 720.241 33.7487 751 58 751 c 0x98
 366 746 112 748 383 740 c 0x28
EndSplineSet
Validated: 1
EndChar

StartChar: J
Encoding: 74 74 341
Width: 343
VWidth: 1000
Flags: W
HStem: 626 123<54.0105 119.903>
VStem: 120 146<-129.793 620.348>
LayerCount: 2
Fore
SplineSet
40 -256 m 0
 -16.1735 -256 -65 -225.224 -65 -174 c 0
 -65 -156 -59 -137 -42 -118 c 0
 -34 -108 -21 -90 5 -90 c 2
 13 -90 l 1
 55 -94 63 -126 65 -129 c 0
 72 -139 83 -139 87 -138 c 0
 89 -138 112 -125 119 -88 c 1
 120 155 120 239 120 391 c 2
 120 631 l 1
 118 628 112 626 104 626 c 0
 88 626 65 633 48 655 c 0
 38 668 35 683 35 695 c 0
 35 704 37 712 37 716 c 1
 40 726 44 732 54 735 c 0
 89 746 123 749 160 749 c 0
 178 749 198 748 218 747 c 1
 257 747 l 2
 283.881 747 341 734.504 341 691 c 0
 341 680 337 670 334 664 c 0
 311 618 265 615 263 610 c 1
 267 498 267 433 267 378 c 0
 267 320 266 274 266 197 c 0
 266 138 267 62 269 -50 c 1
 269 -52 l 2
 269 -61 268 -97 253 -125 c 0
 235 -160 211 -175 185 -197 c 0
 162 -216 145 -231 111 -243 c 0
 91 -251 65 -256 40 -256 c 0
EndSplineSet
Validated: 1
EndChar

StartChar: K
Encoding: 75 75 342
Width: 736
VWidth: 1080
Flags: W
HStem: -1 133<643 702.063> -1 112<251.097 280.787 352.38 435.984> -1 97<394.979 441.261> 14 111<17.9978 88.7272> 614 128<259.284 328.435> 626 116<39.6769 92.5679 385.327 428 567.481 639.437> 642 100<43.8473 96.814>
VStem: 1 313<18.1274 101.435> 95 150<119.116 277.186> 97 164<398 621> 369 163<661.2 746.5>
LayerCount: 2
Fore
SplineSet
43 626 m 0x0460
 24.6068 626 17 653.936 17 669 c 0
 17 698 38 723 60 737 c 0
 64 740 69 742 74 742 c 2x0460
 306 742 l 1
 334 741 351 713 351 683 c 0
 351 664 345 644 329 629 c 0
 317 618 301 614 287 614 c 0
 275 614 265 617 259 621 c 1
 261 550 261 528 261 518 c 0
 261 502 259 517 257 398 c 1
 428 622 l 1
 426 622 l 2
 403.075 622 369 643.401 369 679 c 0
 369 728 423 746 432 746 c 0
 495 747 519 748 528 748 c 0
 532 748 533 747 533 747 c 1
 533 747 532 747 532 746 c 0
 532 745 540 743 596 739 c 1
 596 739 662 726 662 681 c 2
 662 676 l 1
 657 624 588 621 585 619 c 0
 481 536 491 531 379 399 c 1
 506 292 460 329 643 120 c 1
 643 121 l 2
 643 124 651 132 664 132 c 0
 695.236 132 723 87.8128 723 59 c 0
 723 40.4594 710.194 -1 682 -1 c 2x8860
 375 -1 l 2
 356 -1 337 23 337 50 c 0
 337 65 343 80 357 94 c 0
 371 107 383 111 394 111 c 0x4060
 415 111 429 96 435 96 c 2
 436 96 l 1
 443 101 443 114 440 123 c 1
 388 188 356 232 275 304 c 1
 264 298 258 291 251 279 c 1
 247 240 245 220 245 200 c 0x20a0
 245 178 247 155 251 106 c 1
 253 110 259 113 267 113 c 0
 283.841 113 314 91.078 314 62 c 0
 314 40 298 20 281 9 c 1
 276 7 300 5 295 5 c 0
 136 5 253 14 36 14 c 1
 17 15 1 37 1 62 c 0x1120
 1 75 5 90 17 102 c 0
 35 120 53 125 68 125 c 0
 81 125 91 121 95 118 c 1x10a0
 93 222 91 244 91 308 c 0
 91 362 93 446 97 636 c 1
 97 638 l 2
 97 641 96 642 93 642 c 0x1260
 84 642 61 626 43 626 c 0x0460
EndSplineSet
Validated: 1
EndChar

StartChar: L
Encoding: 76 76 343
Width: 709
VWidth: 1080
Flags: W
HStem: -2 97<354 514.429> 1 280<535.015 677.65> 15 115<22.0871 166.281> 601 142<353.624 452.032>
VStem: 168 184<113 438.434> 178 176<113.672 597.745> 535 161<116.997 204.091>
LayerCount: 2
Fore
SplineSet
114 743 m 0x36
 230 748 241 751 256 751 c 0
 271 751 290 748 420 743 c 0
 440 742 471 708 471 669 c 0
 471 655 466.933 640.047 457 626 c 0
 442.905 606.067 423 601 406 601 c 0
 394 601 383 604 377 604 c 0
 375 604 374 604 373 603 c 0
 360 595 354 585 352 579 c 1x3a
 354 490 354 434 354 395 c 0x36
 354 318 352 306 352 236 c 0x3a
 352 205 353 162 354 95 c 1
 388 95 l 2x96
 443 95 468 97 535 125 c 1
 535 141 521 165 521 206 c 0
 521 218 522 232 525 247 c 0
 532 279 558 287 585 287 c 0
 609 287 633 281 645 281 c 0
 646 281 647 281 648 281 c 0
 666 281 673 279 677 263 c 0
 691 203 696 173 696 138 c 0
 696 109 692 78 686 23 c 0
 686 22 687 22 687 21 c 0
 687 13 669 1 659 1 c 0x56
 657 1 655 2 654 3 c 0
 653 3 615 13 600 15 c 1x36
 454 7 396 -2 308 -2 c 0x96
 247 -2 171 3 40 15 c 1
 18.3137 18.098 4 48.3933 4 62 c 0
 4 79 15 96 28 118 c 1
 34 126 39 129 49 130 c 1
 65 130 l 2
 125 130 150 113 164 113 c 2
 168 113 l 1
 168 156 l 2x3a
 168 286 178 303 178 445 c 0
 178 478 177 519 176 569 c 1
 166 594 149 609 95 634 c 0
 79.7236 640.547 75 665.029 75 686 c 0
 75 704 81 722 98 737 c 0
 103 741 108 743 114 743 c 0x36
EndSplineSet
Validated: 1
EndChar

StartChar: M
Encoding: 77 77 344
Width: 879
VWidth: 1080
Flags: W
HStem: 19 145<205.048 261.925 785.142 830.53> 20 114<17.4366 68.8096> 22 131<604.705 672.901> 617 112<21.8345 67.8603 789.491 864.508> 735 20G<750.5 771.5>
VStem: 64 140<163 495.53> 585 260<48.3332 131.249> 674 114<297.582 476> 683 98<152.493 475.906>
LayerCount: 2
Fore
SplineSet
49 617 m 0x5d
 28.5135 617 0 633.053 0 666 c 0
 0 699 37 719 55 728 c 0
 57 729 58 729 60 729 c 0
 94 737 122 741 147 741 c 0
 185 741 219 733 263 722 c 0
 271 719 276 716 279 708 c 0
 366 496 363 461 453 298 c 1
 692 728 l 2
 694 732 697 735 701 737 c 0
 723 749 741 755 760 755 c 0
 783 755 808 747 842 736 c 1
 859.552 731.612 875 693.844 875 666 c 0
 875 655 872 647 865 642 c 1
 865 641 l 2
 865 625 833 617 810 617 c 0
 798 617 788 619 788 624 c 1x5d
 784 491 781 412 781 328 c 0x5c80
 781 271 783 216 785 151 c 1
 788 159 793 163 799 163 c 0
 809 163 821 155 831 141 c 0
 842 127 845 112 845 99 c 0
 845 77 836 58 836 46 c 1
 834 31 830 24 814 22 c 0
 770 16 747 14 727 14 c 0
 697 14 678 19 614 22 c 1
 595 27 590 30 590 48 c 0
 590 55 585 69 585 85 c 0x3e
 585 99 589 116 604 132 c 0
 619 148 636 153 650 153 c 0
 662 153 671 149 673 144 c 1
 681 205 683 253 683 294 c 0x3c80
 683 371 674 410 674 470 c 0
 674 472 674 474 674 476 c 1
 654 435 626 328 501 56 c 1
 496.939 51.9387 490.397 21.3184 455 18 c 0
 453 18 451 18 449 18 c 0
 414 18 393 45 381 60 c 1
 371.788 69.2118 218.287 471.641 205 496 c 1
 206 486 207 474 207 459 c 0
 207 421 204 373 204 275 c 0
 204 242 204 205 205 163 c 1
 206 164 208 164 212 164 c 0
 227 164 261 156 279 118 c 0
 283 109 285 100 285 92 c 0
 285 71 274 54 273 48 c 0
 269 34 264 28 249 28 c 0
 172 24 168 19 100 19 c 0x9d
 84 19 66 19 42 20 c 1
 27 23 22 26 18 41 c 0
 17 44 3 60 3 82 c 0
 3 91 6 102 13 113 c 0
 23 128 37 134 48 134 c 0
 57 134 65 130 69 123 c 1
 65 206 64 266 64 317 c 0
 64 418 69 468 69 600 c 2
 69 626 l 1
 66 620 59 617 49 617 c 0x5d
EndSplineSet
Validated: 1
EndChar

StartChar: N
Encoding: 78 78 345
Width: 811
VWidth: 1080
Flags: W
HStem: -20 129<14.4661 108.803 224.097 263.995> 603 124<27.4531 107.912> 620 123<532.732 621.75 732.43 768.225>
VStem: 109 130<108.5 465.791> 109 115<100 405.313> 609 124<302 470.96> 623 105<463.04 631.654>
LayerCount: 2
Fore
SplineSet
623 632 m 1xc2
 617 632 601 620 579 620 c 0
 566 620 550 625 535 640 c 0
 517 657 512 667 512 676 c 0
 512 685 518 693 521 706 c 0
 525.123 723.864 523.01 739.915 550 743 c 0
 620 751 638 755 650 755 c 0
 664 755 667.076 749.792 755 741 c 0
 785 738 801 717 801 694 c 0
 801 673 788 651 761 638 c 0
 746 631 752 628 732 626 c 1
 729 565 728 517 728 477 c 0xa2
 728 388 733 343 733 252 c 0xa4
 733 206 732 150 728 76 c 0
 728 71 726 67 724 63 c 0
 721 59 705 13 662 9 c 0
 660 9 658 9 656 9 c 0
 620 9 601 37 589 53 c 0
 347 355 343 323 235 467 c 1
 238 441 239 429 239 409 c 0xb2
 239 330 224 274 224 132 c 2
 224 100 l 1
 226 103 233 109 243 109 c 0
 251 109 261 104 271 87 c 0
 278 76 280 66 280 56 c 0
 280 33 268 15 267 11 c 0
 263 -4 258 -10 243 -11 c 0
 166 -15 162 -20 94 -20 c 0
 78 -20 60 -20 36 -19 c 1
 21 -16 16 -12 12 3 c 0
 11 5 -4 22 -4 45 c 0
 -4 56 -1 67 8 79 c 0
 22 99 46 107 68 107 c 0
 88 107 105 101 109 90 c 1
 105 196 104 246 104 281 c 0
 104 351 109 350 109 619 c 1
 104 609 90 603 74 603 c 0
 52 603 28 614 17 644 c 0
 14 653 12 661 12 669 c 0
 12 698 33 719 49 727 c 0
 51 727 52 728 54 728 c 0
 87 736 115 740 140 740 c 0
 178 740 213 732 257 720 c 0
 262 719 266 716 269 712 c 0
 291 686 592 326 609 302 c 1xcc
 623 632 l 1xc2
EndSplineSet
Validated: 1
EndChar

StartChar: O
Encoding: 79 79 346
Width: 783
VWidth: 1080
Flags: W
HStem: -3 133<330.873 496.384> 640 109<357.582 512.671>
VStem: 12 215<232.61 491.821> 622 155<303.577 522.631>
LayerCount: 2
Fore
SplineSet
419 -3 m 0
 361.992 -3 304.325 9.86836 253 31 c 1
 152 86 43 142 22 273 c 0
 16 311 12 337 12 372 c 0
 12 448 31.1775 516.858 88 588 c 0
 177.279 699.777 284 749 430 749 c 1
 552 748 646 709 717 612 c 0
 762 552 777 493 777 432 c 0
 777 389 770 345 760 297 c 0
 741 206 689.789 168.145 647 106 c 0
 592.733 27.1841 507 -3 419 -3 c 0
230 375 m 0
 228.864 350.006 227 330 227 311 c 0
 227 277 232.016 259.009 252 225 c 0
 279.022 179.013 304.04 159.127 358 142 c 0
 383.019 134.059 403 130 422 130 c 0
 444 130 465 135 489 148 c 0
 546 178 563 216 591 282 c 0
 611 331 622 357 622 398 c 0
 622 418 619 438 615 462 c 0
 604 523 592.927 556.91 547 594 c 0
 509.941 623.927 481 640 443 640 c 0
 434 640 424 639 414 637 c 0
 343 625 310 589 266 523 c 0
 234 474 233 441 230 375 c 0
EndSplineSet
Validated: 1
EndChar

StartChar: P
Encoding: 80 80 347
Width: 631
VWidth: 1080
Flags: W
HStem: 10 151<290.407 370.82> 313 127<283.059 344.394> 639 107<281.513 373.643>
VStem: 18 380<26.6978 123.64> 117 166<159.104 315.622> 122 153<442.726 631.948> 413 201<486.479 601.895>
LayerCount: 2
Fore
SplineSet
121 653 m 1xe6
 110 653 123 629 84 629 c 0
 75 629 63 630 48 633 c 0
 28.7791 636.203 18 665.126 18 680 c 0xf2
 18 701.968 34.1604 733.527 61 738 c 1
 160 740 203 743 300 745 c 0
 313 745 326 746 339 746 c 0
 423 746 493 734 562 674 c 0
 600 640 610 602 613 560 c 0
 613 555 614 550 614 545 c 0
 614 510 604 480 583 448 c 1
 542 389 497 357 429 331 c 0
 391 317 360 313 336 313 c 0
 309 313 291 318 284 318 c 2
 283 318 l 1xea
 284 240 285 223 290 156 c 1
 292 158 301 161 314 161 c 0
 336 161 368 152 388 118 c 0
 395 106 398 93 398 81 c 0
 398 56 385 31 363 15 c 0
 359 11 354 10 348 10 c 0
 273 10 226 2 164 2 c 0
 133 2 98 4 53 10 c 0
 29.1762 13.4034 18 47.5476 18 66 c 0xf2
 18 95 35 123 57 141 c 1
 68.5422 152.542 112.344 155.344 114 157 c 1
 115 235 117 277 117 283 c 2
 117 284 l 1xea
 121 347 122 441 122 519 c 0
 122 596 121 653 121 653 c 1xe6
281 634 m 1
 277 590 275 560 275 533 c 0xe6
 275 504 277 478 282 441 c 0
 283 440 285 440 287 440 c 0
 297 440 319 451 356 467 c 0
 383 479 393 483 401 501 c 0
 409 517 413 531 413 544 c 0
 413 557 409 570 401 586 c 0
 389 611 375 619 342 630 c 0
 325 635 316 639 306 639 c 0
 299 639 292 637 281 634 c 1
EndSplineSet
Validated: 1
EndChar

StartChar: Q
Encoding: 81 81 348
Width: 759
VWidth: 1080
Flags: W
HStem: -246 114<992.74 1164.65> 652 94<297.176 452.418>
VStem: 6 171<252.578 498.133> 573 150<285.455 520.088>
LayerCount: 2
Fore
SplineSet
541 36 m 0
 600 32 653 14 720 -12 c 0
 865 -70 1037 -132 1087 -132 c 2
 1089 -132 l 1
 1118 -131 1173 -101 1208 -101 c 0
 1225 -101 1237 -108 1238 -129 c 0
 1239 -142 1242 -150 1242 -159 c 0
 1242 -169 1238 -179 1224 -195 c 0
 1182 -242 1127 -234 1083 -241 c 0
 1061 -244 1041 -246 1022 -246 c 0
 1003 -246 985 -244 963 -241 c 0
 828 -217 758 -176 637 -126 c 0
 514 -75 363 12 336 19 c 0
 293.036 30.1389 240 51 231 56 c 0
 136 111 33 170 14 297 c 0
 9 333 6 363 6 390 c 0
 6 457 24.0265 504.98 69 566 c 0
 150.048 675.965 245 743 393 746 c 1
 400 746 l 2
 517 746 600 699 666 608 c 0
 709 548 723 491 723 431 c 0
 723 387 715 342 706 293 c 0
 689 208 648 166 599 93 c 0
 586 73 535 47 535 39 c 0
 535 37 537 36 541 36 c 0
221 556 m 0
 179.825 501.985 177 452.252 177 370 c 0
 177 310 185 269 220 213 c 0
 250 166 273 144 325 128 c 0
 348 121 366 117 384 117 c 0
 405 117 425 123 448 135 c 0
 504 165 517 202 544 268 c 0
 563 317 573 352 573 392 c 0
 573 412 570 434 566 459 c 0
 556 519 544 551 502 591 c 0
 460 630 429 652 382 652 c 0
 377 652 372 651 367 651 c 0
 301 646 265.134 613.898 221 556 c 0
EndSplineSet
Validated: 1
EndChar

StartChar: R
Encoding: 82 82 349
Width: 777
VWidth: 1080
Flags: W
HStem: 7 21G<653 683> 21 124<72.4219 119.449 297.007 388.182> 622 116<52.2344 122.228> 631 116<180.117 405.821>
VStem: 125 165<150 311.282> 130 177<426.728 623.946> 448 189<466.403 591.602>
LayerCount: 2
Fore
SplineSet
478 341 m 1x16
 516 322 651 230 763 71 c 1
 766 64 768 59 768 54 c 0
 768 48 765 44 757 38 c 0
 727 16 699 7 667 7 c 0x96
 639 7 608 14 571 27 c 0
 567 28 564 30 561 34 c 0
 552 44 342 311 341 311 c 0
 332 311 321 309 310 309 c 0
 304 309 297 309 290 312 c 1
 291 231 291 269 297 150 c 1
 297 150 306 152 320 152 c 0
 342 152 377 146 396 111 c 0
 401 101 404 91 404 82 c 0
 404 61 392 41 372 26 c 0
 367 23 363 21 358 20 c 0
 299 15 255 8 199 8 c 0
 161 8 118 12 60 21 c 0
 46 23 26 44 26 71 c 0
 26 91 36 113 65 135 c 1
 68 136 70 137 72 139 c 1
 81 143 90 145 98 145 c 0
 107 145 115 143 119 143 c 2
 120 143 l 1
 122 222 125 271 125 277 c 2
 125 279 l 1x4a
 129 344 130 436 130 512 c 0
 130 588 129 647 129 647 c 1
 119 646 131 622 92 622 c 0
 83 622 71 624 56 627 c 0
 39 630 26 652 26 677 c 0
 26 695 33 715 52 732 c 0
 57 736 62 738 68 738 c 0x66
 167 740 209 747 308 747 c 0
 412 747 499.644 740.582 586 667 c 0
 617.869 639.846 637 596 637 548 c 0
 637 474 592 391 478 341 c 1x16
313 626 m 1
 309 582 307 550 307 521 c 0
 307 490 309 462 314 425 c 1
 316 424 318 423 322 423 c 0
 334 423 356 433 390 446 c 0
 416 456 425 461 433 478 c 0
 443 497 448 513 448 529 c 0
 448 545 443 560 434 579 c 1
 421 603 407 611 374 622 c 0x26
 357 627 348 631 338 631 c 0
 331 631 324 629 313 626 c 1
EndSplineSet
Validated: 1
EndChar

StartChar: S
Encoding: 83 83 350
Width: 502
VWidth: 1080
Flags: W
HStem: -4 112<198.975 348.539> 660 87<201.933 293.998>
VStem: 25 152<492.017 634.681> 364 129<141.866 270>
LayerCount: 2
Fore
SplineSet
13 264 m 1
 14 279 31 297 60 297 c 0
 72 297 86 294 102 285 c 0
 185 241 160 157 199 130 c 0
 221 114 239 108 264 108 c 0
 272 108 282 109 292 110 c 0
 327 113 340 115 349 131 c 0
 359 148 364 165 364 182 c 0
 364 207 352.971 231.979 333 260 c 0
 300.953 304.966 254 295 180 333 c 0
 150 349 100 349 67 398 c 0
 38 442 25 486 25 530 c 0
 25 565 33 601 48 638 c 0
 67 687 101 714 149 732 c 0
 177 743 202 747 226 747 c 0
 265 747 302 736 342 729 c 1
 374 722 422 727 452 683 c 0
 455 679 457 665 457 643 c 0
 457 611 452 560 439 496 c 1
 435 485 431 480 420 477 c 0
 412 475 405 474 399 474 c 0
 316 474 330 619 290 641 c 0
 269 653 253 660 239 660 c 0
 231 660 224 657 217 652 c 0
 189 631 177 602 177 570 c 0
 177 546 184 520 197 495 c 0
 213 466 244 474 297 448 c 0
 339 428 407.813 435.868 452 373 c 0
 480.878 331.914 493 291 493 249 c 0
 493 209 482 168 465 127 c 0
 443 71 406.973 37.0671 350 14 c 0
 317.985 1.0377 290 -4 262 -4 c 0
 226 -4 192 4 155 13 c 0
 101 25 94 33 27 75 c 0
 21 79 17 84 16 92 c 0
 12 129 10 154 10 175 c 0
 10 206 13 227 13 264 c 1
EndSplineSet
Validated: 1
EndChar

StartChar: T
Encoding: 84 84 351
Width: 889
VWidth: 1080
Flags: W
HStem: 1 111<519.603 571.054> 634 110<176.972 326.831>
VStem: 306 183<168.997 416.779> 334 172<364.574 621.072>
LayerCount: 2
Fore
SplineSet
569 123 m 0xe0
 592.609 123 603 85.8309 603 66 c 0
 603 44 594 22 574 6 c 0
 569 2 564 1 558 1 c 0
 436 1 372 1 218 28 c 0
 201 31 181 57 181 85 c 0
 181 98 185 110 194 122 c 0
 212 146 240 152 263 152 c 0
 287 152 307 145 307 145 c 1
 307 166 306 185 306 203 c 0xe0
 306 403 334 369 334 502 c 0
 334 534 333 573 329 626 c 1
 311 627 275 634 218 634 c 2
 198 634 l 1
 145 604 203 567 108 441 c 1
 103.237 431.475 84.8611 426 76 426 c 0
 40 426 14 481 7 502 c 0
 6 506 6 510 7 515 c 0
 40 654 14 592 49 702 c 0
 50 706 52 709 55 712 c 0
 82 739 110 736 127 738 c 0
 159 743 188 744 215 744 c 0
 292 744 353 730 438 730 c 0
 517 730 575 747 646 747 c 0
 673 747 701 745 733 738 c 0
 758 733 774 722 781 715 c 0
 839 656 795 699 871 529 c 0
 872 527 872 524 872 521 c 0
 872 498 844 454 799 454 c 0
 785.504 454 774.391 457.011 768 465 c 0
 662 604 708 625 667 642 c 1
 620 632 542 623 506 621 c 1xd0
 506 529 489 458 489 360 c 0
 489 293 496.118 224.03 523 117 c 0
 524.004 113.001 526 112 530 112 c 0
 539 112 555 123 569 123 c 0xe0
EndSplineSet
Validated: 1
EndChar

StartChar: U
Encoding: 85 85 352
Width: 832
VWidth: 1080
Flags: W
HStem: 0 145<359.551 518.138> 613 140<311.821 403.17> 629 122<539.773 610.094 749.754 798.699>
VStem: 94 192<238.963 634.037> 610 141<237.376 637>
LayerCount: 2
Fore
SplineSet
42 606 m 0xb8
 17.2071 606 3 634.519 3 658 c 0
 3 691 25 729 72 744 c 0
 74 744 77 745 79 745 c 0
 191 749 226 753 252 753 c 0
 280 753 297.977 747.815 391 736 c 0
 406.996 733.968 438 702 438 669 c 0
 438 657 434 644 424 633 c 0
 411 618 395 613 378 613 c 0xd8
 342 613 305 637 302 644 c 1
 297 515 286 476 286 417 c 0
 286 377 291 337 306 243 c 1
 332.06 185.214 361.119 145 434 145 c 0
 503 145 561 188 594 232 c 1
 607 348 610 379 610 407 c 0
 610 432 608 448 608 497 c 0
 608 528 609 571 612 638 c 1
 608 634 593 629 577 629 c 0
 548.083 629 515 645.171 515 681 c 0
 515 712 544 736 565 747 c 0
 569 749 573 751 578 751 c 0
 638 752 660 752 672 752 c 0
 692 752 687 751 767 748 c 0
 783 747 821 717 821 681 c 0
 821 673 818 664 813 655 c 0
 803 640 782 633 766 633 c 0
 758 633 752 635 749 637 c 1
 747 600 746 572 746 549 c 0
 746 493 751 464 751 399 c 0
 751 346 747 278 736 140 c 0
 736 137 735 134 733 131 c 0
 704 78 658.938 57.1799 606 39 c 0
 533.916 14.245 472 0 407 0 c 0
 359 0 309.07 8.22907 254 25 c 0
 184.089 46.2908 162 93 118 126 c 1
 113 131 110 136 109 143 c 0
 99 299 94 419 94 511 c 0
 94 571 96 614 100 637 c 1
 89 634 66 606 42 606 c 0xb8
EndSplineSet
Validated: 1
EndChar

StartChar: V
Encoding: 86 86 353
Width: 706
VWidth: 1080
Flags: W
HStem: 624 106<25.5938 81.9993> 670 77<468.19 547> 679 66<229 303.587>
LayerCount: 2
Fore
SplineSet
343 696 m 0x20
 343 674.508 326.77 664 305 664 c 0
 275 664 236 679 229 679 c 1x20
 298 508 310 489 360 252 c 1
 499 471 436 492 547 668 c 1
 547 669 l 2
 547 670 546 670 545 670 c 0
 537 670 513 663 490 663 c 0
 475 663 461 666 454 678 c 0
 449 686 447 694 447 701 c 0
 447 717 456 732 468 741 c 0
 472 744 480 747 505 747 c 0x40
 533 747 580 744 665 738 c 1
 674 736 680 733 685 726 c 0
 691 717 693 708 693 701 c 0
 693 669 656 648 652 639 c 0
 541 408 519 308 385 36 c 0
 373 13 343 1 315 1 c 0
 286 1 259 13 253 41 c 0
 194 281 159 354 82 623 c 0
 82 624 81 624 79 624 c 2
 70 624 l 2
 56 624 34 627 20 655 c 0
 16 663 14 672 14 680 c 0
 14 700.039 26.7546 725.551 49 730 c 1x80
 140 740 157 745 186 745 c 0
 209 745 238 742 310 738 c 1
 326 736 343 717 343 696 c 0x20
EndSplineSet
Validated: 1
EndChar

StartChar: W
Encoding: 87 87 354
Width: 1079
VWidth: 1080
Flags: W
HStem: 6 20G<329.5 348.5 694 714> 617 112<32.0101 118.621 396.725 450.997> 630 101<642 728.298> 669 77<835.19 913> 678 66<229 303.587>
LayerCount: 2
Fore
SplineSet
343 695 m 0x88
 343 673.508 326.77 663 305 663 c 0
 275 663 236 678 229 678 c 1x88
 309 479 321 470 380 265 c 1
 418 330 484 514 486 519 c 1
 451 618 l 1
 451 618 447 617 441 617 c 0
 427 617 403 622 387 654 c 0
 383 662 381 671 381 679 c 0
 381 696 388 712 403 723 c 0
 408 727 413 729 419 729 c 0xc0
 441 729 459 728 474 728 c 0
 537 728 556 731 594 731 c 0
 620 731 652.994 729.907 714 726 c 0
 729.998 724.976 747 706 747 685 c 0
 747 650.837 695.769 630 673 630 c 1xa0
 664 629 642 626 642 614 c 2
 642 612 l 1
 662 515 711 410 747 265 c 1
 871 454 869 468 913 669 c 1
 911 669 l 2
 901 669 875 662 855 662 c 0
 831.742 662 814 676.627 814 700 c 0
 814 716 823 731 835 740 c 0
 839 743 847 746 872 746 c 0x90
 900 746 947 743 1032 737 c 1
 1041 735 1047 732 1052 725 c 0
 1058 716 1060 707 1060 700 c 0
 1060 668 1023 647 1019 638 c 0
 906 407 886 302 752 30 c 0
 744 14 724 5 704 5 c 0
 684 5 665.2 14.0485 660 35 c 0
 592 309 552 395 552 395 c 1
 540 363 516 297 385 30 c 0
 377 14 358 6 339 6 c 0
 320 6 302 14 297 35 c 0
 236 276 217 357 126 622 c 0
 125 624 123 625 119 625 c 0
 111 625 97 622 81 622 c 0
 60 622 36 627 21 653 c 0
 16 662 14 671 14 679 c 0
 14 698.929 27.4965 724.699 49 729 c 1xc0
 140 739 157 744 186 744 c 0
 209 744 238 741 310 737 c 1
 326 735 343 716 343 695 c 0x88
EndSplineSet
Validated: 1
EndChar

StartChar: X
Encoding: 88 88 355
Width: 847
VWidth: 1080
Flags: W
HStem: 10 154<717.141 818.107> 10 147<61.6644 149.853> 16 103<296.281 342.912> 620 129<112.636 193.184 744.189 788.854> 620 104<744.189 804.81> 637 91<369.253 430.727> 660 85<566.967 608.254>
VStem: 497 344<35.5676 125.657>
LayerCount: 2
Fore
SplineSet
576 660 m 0x03
 563.819 660 558 681.218 558 696 c 0
 558 717 573 734 589 742 c 0
 593 744 597 745 601 745 c 0x03
 662 745 684 749 702 749 c 0x11
 722 749 737 744 797 724 c 0x09
 811 719 820 702 820 683 c 0
 820 666 813.981 648.024 797 635 c 0
 783.986 625.019 773 620 764 620 c 0
 754 620 748 626 744 634 c 1
 555 420 l 1
 634 295 638 269 717 165 c 1
 720 164 723 164 726 164 c 0
 735 164 747 166 760 166 c 0
 779 166 800 162 820 140 c 0
 836 122 841 103 841 86 c 0
 841 66 835 47 835 35 c 1
 832 18 828 12 810 11 c 1
 784 11 763 10 746 10 c 0x91
 615 10 670 19 530 19 c 1
 512 22 507 25 505 43 c 0
 504 54 497 67 497 85 c 0
 497 94 499 105 504 117 c 0
 521 159 525 134 532 127 c 1
 493 198 475 205 441 277 c 1
 397 208 387 201 338 150 c 1
 338 150 302 138 296 120 c 1
 302 119 308 119 313 119 c 0
 330 119 342 122 351 122 c 0
 360 122 366 119 371 105 c 0
 373 99 375 93 375 88 c 0
 375 53 331 32 327 27 c 0
 321 19 315 16 306 16 c 0x21
 240 16 211 10 169 10 c 0x41
 148 10 123 12 89 16 c 0x21
 82 17 77 20 72 25 c 0
 67 31 25 47 25 89 c 0
 25 129 63 143 82 151 c 0
 93 156 103 157 111 157 c 0
 135 157 147 144 150 144 c 1
 278 280 280 286 364 365 c 0
 367 368 366 378 360 392 c 1
 194 583 180 619 180 619 c 1
 179 619 l 2
 175 619 146 606 111 606 c 0
 92 606 73 609 54 620 c 0x49
 39 629 15 647 15 673 c 0
 15 678 16 682 17 687 c 0
 24 714 45 729 97 737 c 0
 164 747 209 754 253 754 c 0
 298 754 342 747 409 728 c 0
 423 724 438 704 438 683 c 0
 438 673 435 664 428 655 c 0
 417 641 415 637 410 637 c 0x05
 404 637 395 642 368 644 c 1
 403 592 417 585 468 516 c 1
 477 525 600 663 609 672 c 1
 593 664 583 660 576 660 c 0x03
EndSplineSet
Validated: 1
EndChar

StartChar: Y
Encoding: 89 89 356
Width: 788
VWidth: 1080
Flags: W
HStem: 3 88<272.596 518.929> 615 129<471.757 528.542> 634 118<643.898 708.923> 634 110<287.471 360.288>
VStem: 295 161<112.662 177.059 179.763 299.626> 455 322<641.135 727.451>
LayerCount: 2
Fore
SplineSet
504 110 m 0xa8
 528.534 110 546 79.0082 546 56 c 0
 546 39.1599 536.066 18.2583 518 16 c 0
 428 7 395 3 358 3 c 0
 325 3 290 6 207 13 c 0
 190 15 177 34 177 57 c 0
 177 74 183 93 200 108 c 0
 215 121 230 126 244 126 c 0
 266 126 283 115 287 109 c 1
 294 188 295 210 295 300 c 1
 213 471 180 469 94 615 c 1xc8
 93 605 84 598 71 598 c 0
 35.2725 598 7 643.225 7 677 c 0
 7 697.401 17.7412 731.534 42 735 c 1
 119 741 148 743 165 743 c 0
 183 743 188 741 222 741 c 0
 243 741 275 742 327 744 c 1
 328 744 l 2
 347 744 374 714 374 682 c 0
 374 652.781 352.189 634 323 634 c 0x98
 310 634 297 638 287 648 c 1
 356 489 369 486 395 402 c 1
 530 621 l 1
 525 617 517 615 508 615 c 0
 492 615 471 625 459 659 c 0
 456 666 455 673 455 680 c 0
 455 707 475 729 494 740 c 0
 497 742 501 744 505 744 c 0xc4
 584 749 594 752 609 752 c 0xa4
 624 752 642.005 749.105 739 744 c 0
 758 743 777 717 777 688 c 0x94
 777 676 774 664 766 653 c 0
 751 631 730 626 710 626 c 0
 687 626 666 634 657 634 c 0
 656 634 655 633 654 633 c 0
 580 499 554 429 457 300 c 1
 456 292 456 285 456 278 c 0xa8
 456 229 470 216 470 178 c 0
 470 158 466 133 455 95 c 0xa4
 455 94 454 93 454 93 c 2
 454 91 455 91 456 91 c 0
 461 91 484 110 504 110 c 0xa8
EndSplineSet
Validated: 1
EndChar

StartChar: Z
Encoding: 90 90 357
Width: 798
VWidth: 1080
Flags: W
HStem: 1 109<387.882 609.404> 14 96<283 477.354> 666 84<228.017 447.376> 666 76<465.594 530>
VStem: 693 91<253.09 315.011>
LayerCount: 2
Fore
SplineSet
711 742 m 1x18
 727.898 740.464 739 726.189 739 709 c 0
 739 689 719 675 713 667 c 0
 493 399 501 415 283 110 c 1x58
 575 110 l 1
 606 123 625 144 653 188 c 0
 674 220 653 226 693 310 c 0
 699 322 711 327 724 327 c 0
 751 327 784 306 784 282 c 0
 784 213 776.813 182.072 756 128 c 0
 739.855 86.0558 733 34 677 4 c 0
 673 2 669 1 665 1 c 0x88
 406 1 475 14 215 14 c 1
 203 12 174 -18 138 -18 c 0
 126 -18 113 -15 99 -6 c 0
 76 9 71 31 71 51 c 0
 71 66 73 81 73 90 c 0
 73 92 73 94 73 96 c 0
 72 103 73 109 78 115 c 0
 359 495 300 413 530 666 c 1x58
 262 666 l 1
 245 660 230 648 209 624 c 0
 173 582 174 561 135 491 c 0
 129 481 102 468 74 468 c 0
 52 468 29 476 15 499 c 0
 11 505 10 511 12 518 c 0
 40 629 34 629 91 737 c 1
 97 746 102 750 113 750 c 2
 197 750 l 2x28
 649 750 169 742 711 742 c 1x18
EndSplineSet
Validated: 1
EndChar

StartChar: backslash
Encoding: 92 92 359
Width: 823
VWidth: 1080
Flags: W
HStem: 16 136<676.592 720.933 722.423 772.336> 667 79<226.792 268.101> 730 20G<121.5 140> 730 20G<121.5 140>
LayerCount: 2
Fore
SplineSet
68 623 m 0xc0
 41.3799 623 14 656.914 14 684 c 0
 14 700.122 22.3691 720.147 37 726 c 1
 96 745 112 750 131 750 c 0xa0
 149 750 171 746 233 746 c 0
 238 746 241 745 245 743 c 0
 261 735 277 719 277 697 c 0
 277 692 276 687 274 682 c 0
 270 671 269 667 260 667 c 0
 254 667 243 669 226 673 c 1
 262 601 233.205 629.195 376 484 c 0
 495 363 544 328 690 152 c 0
 691 152 699 163 722 163 c 0
 731 163 741 162 752 157 c 0
 773 149 807 135 809 97 c 1
 809 93 l 2
 809 52 767 37 762 31 c 0
 758 26 753 23 746 22 c 0
 711 18 687 16 665 16 c 0
 623 16 594 22 528 22 c 0
 519 22 514 25 508 32 c 0
 504 38 460 60 460 95 c 0
 460 100 461 105 463 111 c 0
 469 125 474 129 481 129 c 0
 488 129 496 126 508 126 c 2
 512 126 l 2
 525 126 502 128 498 141 c 1
 412 261 394 268 296 387 c 2
 90 635 l 1
 86 628 78 623 68 623 c 0xc0
EndSplineSet
Validated: 1
EndChar

StartChar: bracketright
Encoding: 93 93 360
Width: 262
Flags: W
HStem: -1 99<44.3865 103.999> 664 87<24.8042 129.503>
VStem: 34 209<18.2685 90.0898> 104 139<98 152.112> 122 123<99.8885 328.958> 129 116<247.144 595.199> 143 97<328.359 649.4>
LayerCount: 2
Fore
SplineSet
14 703 m 0xc2
 14 730 45 751 81 751 c 0
 101 751 121 746 135 744 c 0
 137 744 157 747 179 747 c 0
 212 747 250 741 250 716 c 0
 250 709 247 701 241 691 c 1
 240 668 240 646 240 625 c 0xc2
 240 539 245 464 245 315 c 0xc8
 245 279 243 178 243 42 c 1
 242 30 238 24 227 20 c 0
 204 11 196 8 187 8 c 0
 178 8 168 11 140 14 c 0
 134 14 116 -1 92 -1 c 0
 65 -1 34 19 34 50 c 0xe0
 34 66 43 98 90 98 c 2
 99 98 l 2
 102 98 104 98 104 99 c 0xd0
 119 118 122 134 122 153 c 0xc8
 122 170 120 190 120 216 c 1
 129 369 l 2xc4
 132 428 130 462 137 524 c 0
 140 556 143 579 143 596 c 0
 143 639 129 648 84 671 c 1
 81 671 70 664 56 664 c 0
 37 664 14 680 14 703 c 0xc2
EndSplineSet
Validated: 1
EndChar

StartChar: asciicircum
Encoding: 94 94 361
Width: 366
VWidth: 1080
Flags: W
HStem: 422 317
VStem: 4 165<435.101 521.141> 220 141<430.463 522.766>
LayerCount: 2
Fore
SplineSet
186 536 m 1
 184 524 174.211 484.964 169 455 c 0
 165 432 130 422 92 422 c 0
 49 422 4 436 4 462 c 0
 4 465 5 468 6 471 c 0
 34 544 53 583 114 701 c 0
 116 706 120 709 125 711 c 0
 151 724 178 739 208 739 c 0
 222.667 739 255.391 733.219 263 718 c 1
 309 650 309.948 615.982 330 559 c 0
 341.969 524.989 352 494 360 463 c 0
 361 460 361 458 361 455 c 0
 361 432 328 421 294 421 c 0
 258 421 220 433 220 454 c 0
 220 484 202 525 186 536 c 1
EndSplineSet
Validated: 1
EndChar

StartChar: grave
Encoding: 96 96 363
Width: 296
VWidth: 1080
Flags: W
HStem: 409 325<126.003 176.997>
VStem: 21 253
LayerCount: 2
Fore
SplineSet
38 705 m 0
 60 722 87 734 117 734 c 0
 134.77 734 165.493 727.343 177 712 c 0
 223 644 223.948 609.982 244 553 c 0
 255.969 518.989 266 488 274 457 c 0
 275 454 275 451 275 448 c 0
 275 421 235 409 196 409 c 0
 166 409 136.046 416.031 126 431 c 0
 101.115 468.077 67 645 38 661 c 1
 27 675 21 681 21 687 c 0
 21 692 26 696 38 705 c 0
EndSplineSet
Validated: 1
EndChar

StartChar: a
Encoding: 97 97 364
Width: 480
VWidth: 1000
Flags: W
HStem: 5 126<87.5 186.78> 12 180<349 421> 242 98<195.671 241.773> 441 106<179.545 237.895>
VStem: 10 143<131.841 206.92> 23 150<330.224 434.305> 243 132<214.792 242 340.002 437.893> 253 122<169.77 241.947>
LayerCount: 2
Fore
SplineSet
219 340 m 2xb4
 226 340 l 2
 232 340 243 343 243 380 c 0xb6
 243 407 235 437 230 441 c 1
 165 441 176 410 173 372 c 0
 169 332 131 309 95 309 c 0
 68 309 23 324 23 386 c 0
 23 428 45 476 75 502 c 0
 98 521 134 547 232 547 c 0
 257 547 284 544 310 525 c 0
 388 471 370 382 375 257 c 1
 375 199 l 2
 375 189 375 180 376 169 c 1
 387 180 404 192 421 192 c 0
 441 192 462 176 462 149 c 0
 462 137 458 126 458 123 c 0
 456 95 458 61 427 31 c 0
 405 10 380 14 367 13 c 0
 360 13 354 12 349 12 c 0x75
 280 12 273 44 264 53 c 1
 255 69 l 1
 253 69 241 52 214 36 c 0
 207 32 187 5 122 5 c 0
 53 5 10 62 10 139 c 0xb9
 10 161 14.0669 184.974 23 208 c 0
 53.2265 285.912 173 340 219 340 c 2xb4
232 168 m 0
 248 187 253 202 253 214 c 0xb9
 253 231 243 241 243 242 c 2
 243 242 229 242 194 220 c 0
 194 219 153 198 153 181 c 2
 153 180 l 1xba
 154 154 157 131 166 131 c 0
 168 131 169 132 171 133 c 0
 177 137 164 135 185 143 c 0
 212 154 221 155 232 168 c 0
EndSplineSet
Validated: 1
EndChar

StartChar: b
Encoding: 98 98 365
Width: 533
VWidth: 1000
Flags: W
HStem: 7 94<176 306.012> 436 120<214.085 339>
VStem: -18 193<598.256 672.317> 41 138<166.758 495.581 499 594.678> 380 134<192.867 350.179>
LayerCount: 2
Fore
SplineSet
92 754 m 0xe8
 99 759 106 761 113 761 c 0
 148 761 174 702 175 691 c 0xe8
 178 624 179 567 179 519 c 0
 179 477 178 531 177 499 c 1
 188 514 167 524 214 534 c 1
 240 538 290 556 332 556 c 0
 346 556 359 554 370 549 c 0
 431 521 454 476 479 425 c 0
 504 376 514 318 514 265 c 0
 514 181.3 490.664 131.196 453 86 c 0
 437 67 422 25 372 19 c 0
 326 13 266 7 209 7 c 0
 143 7 82 16 56 47 c 0
 52 51 50 56 50 62 c 0
 43 173 41 293 41 400 c 0xd8
 41 528 44 547 47 597 c 1
 45 594 39 593 31 593 c 0
 12 593 -18 602 -18 626 c 0
 -18 632 -16 639 -12 646 c 0
 10 689 38 717 92 754 c 0xe8
288 426 m 1
 288 426 276 436 258 436 c 0
 241 436 220 427 200 395 c 0
 183 367 179 343 179 312 c 0xd8
 179 239.128 182.961 194.253 213 141 c 0
 227.077 116.044 230 109 248 104 c 0
 254 102 258 101 262 101 c 0
 268 101 273.985 103.027 283 108 c 0
 324.93 131.128 340 154 362 202 c 0
 374 227 380 243 380 264 c 0
 380 271 379 279 378 287 c 0
 372 335 356.93 356.942 323 398 c 0
 308.971 414.976 306 418 288 426 c 1
EndSplineSet
Validated: 1
EndChar

StartChar: c
Encoding: 99 99 366
Width: 453
VWidth: 1000
Flags: W
HStem: 15 113<195.098 308.09> 422 117<194.686 291.861>
VStem: 11 145<170.041 369.653> 320 101<137.889 198.863>
LayerCount: 2
Fore
SplineSet
368 349 m 1
 364 349 l 2
 326 349 310 386 305 390 c 0
 272.382 413.104 279.963 422 245 422 c 0
 231 422 221 419 206 409 c 0
 190 399 187 392 177 366 c 0
 163 328 156 304 156 274 c 0
 156 261 157 247 160 230 c 0
 166 189 172 171 197 147 c 0
 210 135 219 135 246 131 c 0
 258 129 266 128 273 128 c 0
 280 128 285 130 292 134 c 0
 309 143 310 150 320 177 c 0
 328 200 346 210 365 210 c 0
 393 210 421 189 421 158 c 0
 421 157 421 156 421 155 c 0
 418 105 416 92 398 67 c 0
 364 21 301 15 268 15 c 0
 256 15 248 16 247 16 c 0
 243 16 234 15 222 15 c 0
 191 15 138.139 21.1464 92 65 c 0
 41.1623 113.319 11 168.005 11 259 c 0
 11 287 15 315 24 346 c 0
 41 404 59 450 111 490 c 0
 158 526 202 539 258 539 c 0
 262 539 266 539 270 539 c 0
 310 537 343 534 384 494 c 0
 411 467 422 439 422 415 c 0
 422 379 398 351 368 349 c 1
EndSplineSet
Validated: 1
EndChar

StartChar: d
Encoding: 100 100 367
Width: 507
VWidth: 1000
Flags: W
HStem: 17 132<192.534 301.532 455.093 475.297> 437 125<223.6 309.875>
VStem: 21 129<202.611 349.093> 325 121<542.834 651.086> 347 108<205.081 393.409>
LayerCount: 2
Fore
SplineSet
286 623 m 0xf0
 273.314 623 269 636.137 269 650 c 0
 269 689 306.076 735.884 332 753 c 0
 341.027 758.96 352 761 364 761 c 0
 403 761 450 732 450 704 c 0
 450 700 449 695 446 691 c 1xf0
 450 618 455 529 455 260 c 2
 455 144 l 1xe8
 457 145 458 146 460 146 c 0
 472 146 488 120 488 98 c 2
 488 87 l 2
 488 68 485 35 453 21 c 0
 445 17 437 16 430 16 c 0
 415 16 403 21 402 21 c 0
 401 21 400 21 399 21 c 0
 365 21 342 72 338 72 c 0
 337 72 337 71 337 70 c 0
 335 43 253 17 186 17 c 0
 177 17 169.001 17.0101 161 18 c 0
 112.008 24.0615 97 65 81 85 c 0
 48 125 21 171 21 250 c 2
 21 258 l 1
 22 298 24 446 158 536 c 0
 188 556 214 562 238 562 c 0
 272 562 300 549 326 541 c 1
 326 557 325 572 325 589 c 0
 325 622 326 577 329 642 c 0
 329 645 333 653 331 651 c 0
 318 636 299 623 286 623 c 0xf0
271 437 m 1
 269 437 l 2
 254 437 225 421 208 399 c 0
 175 358 159 337 153 291 c 0
 151 280 150 270 150 262 c 0
 150 243 155 229 167 210 c 0
 186 180 204 171 243 156 c 0
 255 151 265 149 272 149 c 0
 290 149 298 162 315 188 c 0
 340.985 230.071 347 258.889 347 317 c 0xe8
 347 345 342 366 325 394 c 0
 308 421 297 431 271 437 c 1
EndSplineSet
Validated: 1
EndChar

StartChar: e
Encoding: 101 101 368
Width: 427
VWidth: 1000
Flags: W
HStem: 14 127<191.62 298.982> 286 92<180.085 265.867> 431 105<199.811 281.236>
VStem: 17 127<230.401 291.991> 282 122<376.804 430.027> 304 101<141.997 199.946>
LayerCount: 2
Fore
SplineSet
179 378 m 1xf8
 181 378 183 378 185 378 c 0
 208 378 243 374 267 370 c 1
 267 372 266 374 266 376 c 0
 266 393 282 420 282 425 c 2
 282 426 l 1
 278 429 270 431 260 431 c 0
 243 431 220 426 202 414 c 0
 192 407 185 389 179 378 c 1xf8
144 293 m 1
 144 291 161 255 166 230 c 1
 172 192 176 175 198 156 c 0
 209 146 219 147 246 144 c 0
 262 143 272 141 279 141 c 0
 296 141 294 149 304 177 c 0
 312.19 199.933 331 210 350 210 c 0
 377 210 405 190 405 159 c 0
 405 158 405 157 405 156 c 0xf4
 402 102 399 95 385 69 c 0
 358 22 315 14 286 14 c 0
 270 14 258 16 253 16 c 0
 249 16 241 15 228 15 c 0
 197 15 145 21 98 65 c 0
 47.0089 113.158 17 168.005 17 259 c 0
 17 287 21 315 30 346 c 0
 47 404 65 450 117 490 c 0
 159 522 200 536 249 536 c 0
 258 536 267 536 277 535 c 0
 316 531 357 524 381 476 c 0
 397 444 404 419 404 395 c 0
 404 375 399.945 356.021 392 335 c 0
 385.958 319.016 372 292 342 290 c 0
 338 290 271 286 215 286 c 0
 180 286 150 288 144 293 c 1
EndSplineSet
Validated: 1
EndChar

StartChar: f
Encoding: 102 102 369
Width: 349
VWidth: 1000
Flags: W
HStem: 2 119<32.2344 67.9041 215.015 256.283> 331 150<218.469 295.8> 639 122<245.131 317.031>
VStem: 75 139<113 336.531 474.468 612.958>
LayerCount: 2
Fore
SplineSet
439 665 m 0
 439 635.793 413.478 603 381 603 c 0
 367 603 355 609 347 611 c 0
 314 620 307 636 300 637 c 0
 290 639 283 639 276 639 c 0
 266 639 259 637 251 631 c 0
 235 619 234 608 225 577 c 0
 216 545 214 521 214 505 c 0
 214 486 217 475 217 468 c 2
 217 466 l 1
 223 471 238 481 256 481 c 0
 271 481 289 474 307 452 c 0
 317 439 321 425 321 412 c 0
 321 374.228 287.176 331 251 331 c 0
 238 331 228 336 218 337 c 1
 217 325 213 323 213 232 c 0
 213 197 214 171 215 102 c 1
 215.251 114.308 220.182 120 227 120 c 0
 236.758 120 245.054 109.946 257 98 c 1
 268 82 271 67 271 55 c 0
 271 35 262 20 256 12 c 0
 251 5 245 2 236 2 c 2
 48 2 l 2
 42 2 37 4 32 8 c 0
 16 21 9 39 9 56 c 0
 9 85.7277 32.0696 121 55 121 c 0
 61 121 66 118 68 113 c 1
 70 172 71 176 71 205 c 0
 71 212 71 219 71 226 c 0
 71 249 71 278 72 325 c 0
 72 326 62 324 38 353 c 0
 36 355 35 356 35 358 c 1
 30 366 25 380 25 396 c 0
 25 403 26.0348 409.99 28 417 c 0
 39.1984 456.944 70 468 73 474 c 1
 75 484 75 493 75 501 c 0
 75 517 73 532 73 548 c 0
 73 570 77 594 94 626 c 1
 117 676 148 702 192 730 c 0
 222 749 246 753 275 758 c 0
 284 760 293 761 303 761 c 0
 312 761 322 760 332 757 c 0
 364 748 412 742 433 692 c 0
 437 683 439 674 439 665 c 0
EndSplineSet
Validated: 1
EndChar

StartChar: g
Encoding: 103 103 370
Width: 551
VWidth: 1000
Flags: W
HStem: -250 137<195.846 329.404> 16 117<245.203 346.5> 16 108<224.42 330.625> 378 185<441.277 514.58> 451 124<205.567 266.518>
VStem: 2 170<-89.821 -26.4729> 31 141<300.518 417.237> 285 157<289.521 386.431> 361 169<-96.0408 -18.1263>
LayerCount: 2
Fore
SplineSet
113 195 m 1xc480
 112 195 109 202 100 220 c 0
 84.6139 248.721 31 274.435 31 340 c 0
 31 360 37.0102 375.998 40 390 c 0
 50.0342 436.993 81 457 81 476 c 0
 81 479 80 483 78 486 c 0
 75 489 48 494 48 525 c 0
 48 550.641 58.5897 564 85 564 c 0
 119 564 132 542 143 542 c 0
 172 542 198 575 256 575 c 0xca
 270 575 285 573 303 568 c 0
 354 555 365 532 391 531 c 0
 406 531 417 563 450 563 c 0
 455 563 461 562 467 560 c 1
 468 560 l 2
 473 560 488 565 503 565 c 0
 520 565 537 559 540 532 c 0
 542 518 544 503 544 488 c 0
 544 468 541 447 530 425 c 0x9280
 521 409 506 378 474 378 c 0
 464 378 453 381 440 387 c 1
 442 375 442 361 442 344 c 2
 442 321 l 2
 442 296 440 268 419 241 c 0
 378 187 324 190 287 170 c 0
 280 166 223 156 221 142 c 0
 220 141 222 137 240 129 c 0
 248 125 257 124 265 124 c 0xb1
 286 124 309 133 341 133 c 0
 352 133 364 132 378 129 c 0
 413 121 530 103 530 -24 c 0
 530 -26 530 -28 530 -30 c 0
 529 -65 518 -92 497 -119 c 0
 453 -173 411 -193 352 -219 c 0
 302 -241 265 -247 212 -249 c 0
 203 -249 194 -250 187 -250 c 0
 123 -250 94 -234 54 -176 c 0
 35 -147 2 -116 2 -69 c 0
 2 -63 3 -56 4 -49 c 0
 13 -6 49 5 66 18 c 0
 83 31 99 36 111 39 c 1
 95 52 52 63 50 110 c 0
 50 115 51 119 53 123 c 0
 84 179 97 174 113 195 c 1xc480
277 403 m 0
 266 435 256 451 242 451 c 0
 231 451 218 441 199 423 c 0
 180 404 174 393 172 365 c 1
 172 355 l 2
 172 336 177 325 192 303 c 1
 212 276 220 266 232 266 c 0
 233 266 234 266 235 266 c 0
 256 268 263.85 287.049 277 327 c 0
 281.944 342.019 285 354 285 366 c 0x8b
 285 377 282 388 277 403 c 0
301 12 m 0
 293 14 286 16 279 16 c 0
 261 16 244 7 220 -9 c 1
 186 -30 172 -40 172 -58 c 2
 172 -60 l 1
 173 -79 189 -90 225 -105 c 0
 238 -110 248 -113 259 -113 c 0
 272 -113 285 -109 305 -105 c 0
 340 -97 361 -94 361 -74 c 0xc480
 361 -67 358 -57 352 -44 c 0
 337 -10 327 4 301 12 c 0
EndSplineSet
Validated: 1
EndChar

